<svg xmlns="http://www.w3.org/2000/svg" width="430" height="932" viewBox="0 0 430 932"><defs><style>.st0{fill:#84737d}.st1{opacity:.31;mix-blend-mode:multiply}.st6{fill:#45374a}.st7{fill:#4b465e}</style></defs><g style="isolation:isolate"><g id="_Шар_1" data-name="Шар_1"><path d="M70.15 81.82s-2.52.52-3.32 1.15-1.46 1.04-2 1.25-2.78.19-3.18 1.06-2.57 6.95-2.57 6.95.35.87 1.06 1.39 2.64 2.05 4.15 2.05 2.5-.42 2.95-.26 2.45 1.01 3.3.49 6.43-3.68 6.55-4.38 1.06-6.43.68-6.95-2-2.05-2.97-2.45-1.98-.54-2.4-.54-2.24.24-2.24.24Z" class="st0"/><g style="mix-blend-mode:multiply;opacity:.25"><path d="m59.38 92.1 2.29-6.27s2.73 1.15 3.3 1.13 6.53.4 6.81.31 5.28-2.99 5.35-3.02.52.47.52.47l-.64 7.19c-.16.4-6.01 3.91-6.48 4.01s-2.71-.12-3.06-.24-1.74-.16-1.98-.14-3.09-.24-3.49-.61-2.71-2.4-2.62-2.83" style="fill:#726370"/></g><g class="st1"><path d="M77.44 84.42s-3.27 2.6-3.36 2.88-1.89 4.42-2.14 4.54-6.63 2.09-6.68 2.09-2.67-.34-2.83-.46-1.15-1.06-1.38-1.08-1.68.07-1.66.23 3.36 2.9 4.49 2.99 2.78-.46 3.25-.3 2.51.72 2.88.65 7.14-3.78 7.21-4.22.9-7.23.21-7.32Z" class="st7"/></g><path d="M59.58 91.78c.81-2.11 1.6-4.24 2.48-6.32.07-.14.2-.2.31-.25.4-.18.94-.33 1.35-.47.86-.28 1.76-.52 2.57-.91.1-.05.17-.11.25-.17 1.51-.95 4.01-1.81 5.81-1.69 1.21.14 2.32.7 3.34 1.33.4.25.79.52 1.17.82.13.1.15.28.05.41a.29.29 0 0 1-.42.04c-.7-.55-1.48-1.05-2.3-1.43-.6-.28-1.23-.52-1.89-.58-1.11-.07-2.21.24-3.28.6-.76.29-1.56.58-2.21 1.06-.48.34-1.04.48-1.57.68-.86.3-1.9.57-2.68.91 0 0 .02-.02.03-.04-.04.08-.14.32-.17.41-.78 1.93-1.51 3.89-2.27 5.83-.14.36-.69.16-.56-.22Z" class="st0" style="mix-blend-mode:screen"/><path d="M77.59 85.5c-.14 1.47-.29 2.93-.5 4.4-.08.47-.12.91-.28 1.37-.03.06-.08.16-.14.21-.39.34-.93.65-1.35.93-1.24.8-2.5 1.56-3.78 2.29-.43.24-.86.48-1.32.7-.26.12-.52.24-.82.27-.6.05-1.11-.25-1.57-.51-.39-.21-.73-.38-1.16-.29-1.26.17-2.54.19-3.79-.06-.5-.14-.95-.43-1.4-.68-.43-.25-.85-.51-1.26-.77a.305.305 0 0 1-.09-.42c.09-.14.28-.18.42-.09.41.25.83.5 1.25.74.38.21.84.49 1.24.59 1.14.21 2.37.17 3.51 0 .27-.06.61-.05.88.03.56.16.97.47 1.37.63.41.18.74.09 1.1-.11.42-.21.84-.45 1.26-.69 1.65-.98 3.32-2.01 4.88-3.14.02-.01.04-.04.03-.03 0 0-.02.03-.03.04 0 .01-.01.02-.01.02 0-.01.02-.06.03-.11.33-1.77.44-3.6.61-5.39.06-.61.97-.54.93.08Z" class="st0"/><path d="M69.71 96.54c-.41 0-.93-.15-1.52-.33-.6-.18-1.35-.4-1.73-.34-.08.01-.16.03-.24.04-.93.15-2.21.36-3.49-.11-1.08-.4-3.56-2.04-3.98-3.06-.11-.28-.08-.49-.03-.63.06-.18.6-1.78 1.18-3.41 1.28-3.58 1.51-3.77 1.66-3.9.63-.54 1.47-.78 2.28-1.01.78-.23 1.51-.44 2.05-.89.38-.32 1.45-1.1 3.22-1.51 1.57-.37 3.76-.51 4.73-.12.6.25 3.8 1.99 4.22 2.99.46 1.09-.18 7.04-.59 7.74-.27.47-2.4 1.77-3.64 2.51s-3.42 1.98-4.01 2.02h-.09ZM66.6 94.9c.55 0 1.22.2 1.86.39.48.14 1.03.3 1.28.29.71-.12 6.32-3.43 6.88-4.06.29-.66.87-6.07.53-6.86-.2-.48-2.71-2.07-3.7-2.47-.67-.27-2.6-.2-4.14.17-1.56.37-2.49 1.04-2.82 1.31-.69.58-1.56.83-2.4 1.07-.73.21-1.42.41-1.9.8-.31.44-1.53 3.81-2.56 6.86.21.51 2.24 2.07 3.42 2.5 1.04.39 2.17.2 3 .06.09-.01.17-.03.25-.04.09-.01.19-.02.3-.02m-4.39-9.38" class="st6"/><path d="M77.64 84.93c-1.07.76-2.21 1.58-3.24 2.4l-.08.07c-.05.07-.09.16-.14.24-.44.83-1.13 2.33-1.55 3.2-.17.34-.33.7-.55 1.03-.04.05-.09.13-.16.17-.5.23-2.12.71-2.66.9-1.29.42-2.57.85-3.85 1.33-.42.15-.66-.47-.24-.64 2.15-.52 4.29-1.1 6.38-1.82.06-.02.12-.05.17-.07 0 0-.01 0 0 0 .03-.03.08-.11.11-.17.75-1.4 1.26-2.98 1.92-4.43.03-.05.07-.12.11-.16.28-.3.58-.56.87-.82.5-.44 1.8-1.56 2.32-2 .52-.42 1.13.36.59.77m-18.27 7.12 1.7.24c.18.02.19.28.02.32l-1.69.41c-.27.06-.53-.1-.6-.36-.09-.34.23-.67.57-.6Z" class="st6"/><g class="st1"><path d="M65.17 91.97s-1.41-.18-1.27-1.45 1.98-2.83 2.72-1.84-.41 3.62-1.45 3.29" class="st7"/></g><g class="st1"><path d="M69.12 88.12s.37-.85.76-1.2 1.15-.39 1.33-.21-.49 1.33-1.01 1.54-1.17.18-1.08-.12Z" class="st7"/></g><g class="st1"><path d="M68.39 85.3s-.99-.07-.11-.81 2.39-.72 2.26-.25-1.71 1.04-2.16 1.06Z" class="st7"/></g><g class="st1"><path d="M70.64 93.28s-1.11-.25-1.36.12 1.29.57 1.61.28-.25-.41-.25-.41Z" class="st7"/></g><g class="st1"><path d="M74.01 90.36s-.3-.39.07-1.24 1.82-1.34 1.66-.34-1.4 2.09-1.73 1.57Z" class="st7"/></g><path d="M89.6 82.26s-.49.09-.65.46-.94 1.75-1.08 1.84-.51.64-.53.71.37.97.92 1.11 1.59.37 1.8.44.64.05 1.11-.35 1.84-1.68 1.79-2.1-.11-.85-.28-1.01-.49-.39-.71-.65-.39-.46-.64-.51-1.73.07-1.73.07Z" class="st0"/><g class="st1"><path d="M88.24 83.61s1.27 1.04 1.79.94 2.26-1.37 2.26-1.37 1.04.19.61 1.27-.66 1.37-1.32 1.84-.52.52-1.41.42-2.64-.42-2.69-.9.75-2.22.75-2.22Z" class="st7"/></g><path d="M90.52 87.4c-.78 0-2.34-.58-2.55-.72-.14-.1-1.21-1.1-1.21-1.51 0-.2.07-.31.53-.84.22-.26.48-.54.6-.65.11-.13.53-.86.86-1.46 0 0 0-.02.01-.03.44-.71 2.71-.32 2.74-.32.54.1.79.51.92.73.02.03.03.06.05.08s.13.12.21.2c.41.37.7.65.8.96.2.64-.35 1.65-.42 1.77-.34.61-2.12 1.7-2.23 1.75-.08.04-.18.05-.31.05Zm-2.68-2.22c.21.25.53.61.66.7.24.14 1.58.54 1.96.57.39-.23 1.6-1.06 1.75-1.32.23-.41.35-.87.34-1.01-.07-.12-.38-.4-.52-.52-.19-.17-.29-.26-.35-.35a1 1 0 0 1-.09-.15c-.11-.18-.17-.25-.26-.27-.46-.08-1.46-.13-1.79-.05-.29.54-.76 1.37-.97 1.58-.15.15-.51.56-.73.82m1.65-2.39" class="st6"/><path d="M89.25 90.47c-.05-.14-.4-.07-.73.54s-1.15 1.3-1.08 1.41.85 1.06 1.08 1.11 1.56.16 1.96.05 1.74-.57 1.91-.94.45-.05.38-.8-.54-1.32-.54-1.32-.94-.61-1.23-.57-1.74.52-1.74.52Z" class="st0"/><g class="st1"><path d="M88.21 91.58s.52.38 1.25.47 2.92-.82 2.92-.82.52.09.38.61-.28 1.32-1.18 1.56-1.84.21-2.19.14-.85-.21-1.18-.54-.42-.92 0-1.41Z" class="st7"/></g><path d="M89.55 94.1h-.2c-.38-.05-1.89-.66-2.27-1.22a.7.7 0 0 1-.12-.55c.07-.29.35-.65.78-1.2.23-.29.49-.62.57-.79.12-.23.36-.72 3.19-.69h.02c.1 0 .19.03.27.08.44.29 1.47 1.06 1.53 1.78.07.79-.47 1.33-.99 1.84-.56.56-2.15.76-2.8.76Zm-1.57-1.69c.33.26 1.23.67 1.49.71.35.04 1.89-.18 2.19-.47.46-.46.74-.75.71-1.08-.03-.17-.5-.62-.99-.97-1.31 0-2.04.12-2.23.22-.14.25-.39.56-.65.89-.16.2-.4.51-.53.7Zm1.15-1.57" class="st6"/><path d="M86.33 95.42c.02-.07-2.03.21-2.71.75s-.94 1.08-.9 1.32.66 1.65 1.15 2.03 2.17.42 2.99.09.75.02 1.27-1.13.78-2.71.59-2.64-2.4-.42-2.4-.42Z" class="st0"/><g class="st1"><path d="M83.31 97.05s.78.02.99.09.85.68 1.46.82 3.16-1.65 3.16-1.65-1.27 2.83-1.58 2.92-.73.99-1.48.57-1.63.28-2.14-.57-.85-1.44-.4-2.19Z" class="st7"/></g><path d="M84.32 100.27c-1.07 0-1.96-1.87-1.97-1.89-.11-.33.28-2.23.76-2.64.23-.2.79-.42 1.79-.79.14-.05.29-.11.37-.14a.44.44 0 0 1 .3-.08c3.22.15 3.57.55 3.69.68.2.23.16.53.15.63-.11.92-1.48 3.58-1.93 3.9-.28.2-.91.33-3.16.33m-1.02-2.15c.2.4.78 1.16 1.03 1.18 1.91 0 2.44-.1 2.59-.15.33-.38 1.38-2.42 1.52-3.12-.46-.14-1.7-.28-2.79-.33-.11.05-.25.1-.41.16-.35.13-1.28.47-1.48.61-.17.23-.42 1.3-.45 1.65Zm5.28-2.03" class="st6"/><path d="M55.66 95.96c-.15 0-2.3-.42-2.76-.32s-1.56 1.41-1.48 1.84 1.41 2.65 2.47 2.86 1.84-.39 2.12-.6 1.38-.49 1.52-.64 1.31-.39 1.17-.74-2.16-2.37-3.04-2.4" class="st0"/><g class="st1"><path d="M51.53 97.34s3 .78 3.5.71 2.02-.81 2.12-.85 1.48 1.48 1.48 1.48-1.73.35-2.09.78-1.26 1.18-1.78 1.12-3.52-1.23-3.24-3.24Z" class="st7"/></g><path d="M54.91 101.07h-.19c-1.12-.11-3.82-1.34-3.88-3.77-.01-.54 1.44-1.8 1.45-1.82.43-.35.73-.48 1.02-.41.1.02.36.06.64.1 1.19.18 2.13.33 2.53.57.28.17 2.67 2.19 2.77 2.79.1.59-.53.76-1.68 1.08-.3.08-.73.2-.88.27-.03.03-.06.09-.09.13-.25.36-.75 1.08-1.69 1.08Zm-3.09-3.68c.13 1.69 2.2 2.64 3 2.71.47.04.71-.26.99-.66.08-.11.15-.21.22-.29.18-.18.48-.27 1.29-.49.21-.06.5-.14.74-.21-.55-.59-1.73-1.68-2.08-1.89-.26-.16-1.6-.36-2.17-.44-.27-.04-.48-.07-.62-.1-.32.15-1.15 1.03-1.37 1.36Zm1.41-1.38" class="st6"/><path d="M84.79 79.87s.12.85.64.97.94.14 1.08-.16.24-.54.14-.9.07-.47-.26-.54-1.77.28-1.6.64Z" class="st0"/><path d="M85.49 81.52c-.19 0-.35-.02-.43-.04-.38-.13-.77-.7-1.02-1.17a.3.3 0 0 1-.04-.1c-.04-.14-.1-.51.32-.83.47-.37 1.72-.72 2.23-.43.64.36.62 1.78.55 1.99-.15.44-1.03.58-1.6.58Zm-.1-.96c.16.01.53-.04.77-.09-.01-.22-.06-.52-.12-.66-.24 0-.76.13-1.02.26.14.22.28.42.37.49m.62-.81" class="st6"/></g></g></svg>