<svg xmlns="http://www.w3.org/2000/svg" width="430" height="932" viewBox="0 0 430 932"><defs><style>.st0{fill:#84737d}.st2{mix-blend-mode:multiply;opacity:.25}.st3{fill:#726370}.st5{mix-blend-mode:screen}.st6{fill:#45374a}</style></defs><g style="isolation:isolate"><g id="_Шар_1" data-name="Шар_1"><path d="m64.08 68.23 1.59-1.8 5.2-2.33s2.86.46 3.04.42 5.9-2.02 5.9-2.02 7.81.39 8.31.57 3.43 2.09 3.68 2.72.35 1.63.35 1.63-1.38 3.71-1.84 4.49-3.22 3.15-3.61 3.39-8.77 3.96-9.16 3.96-7.95-1.98-8.13-2.26-.53-1.24-.78-1.31-3.32-1.45-3.57-2.02-1.27-2.69-1.34-2.97-.11-1.98.35-2.47Z" class="st0"/><g class="st5"><path d="M64.07 69.62c.48-.78.95-1.54 1.49-2.28.21-.25.41-.59.76-.71.97-.33 2.42-.97 3.4-1.36.33-.13.97-.41 1.29-.51.07-.02.18-.02.23-.02h.35c.83 0 2.27.03 3.08-.03 1.44-.41 3.14-1.05 4.59-1.49.2-.06.41-.13.64-.15.1 0 .26 0 .36-.01 2.26 0 4.49.05 6.74.21l.23.02.13.02c.05 0 .08.01.17.04l3.24 1.67c.2.1.27.34.17.54s-.34.27-.54.17c-.55-.29-1.86-.95-2.39-1.22-.23-.12-.55-.28-.77-.4.02.01.05.02.04.02-1.14-.13-2.31-.13-3.46-.18-1.29-.03-2.59-.07-3.87-.03-.8.19-2.18.7-2.98.96-.7.23-1.39.49-2.11.69-.91.1-2.35.05-3.28.06h-.39.01-.02c-.71.28-2.06.85-2.77 1.15-.56.22-1.29.55-1.86.73h.02c.04-.01.04-.02.06-.02-.59.69-1.23 1.75-1.76 2.61-.32.52-1.11.06-.8-.48" class="st0"/></g><g class="st5"><path d="M65.05 71.72c.31.51.62 1.07 1 1.52l.05.05s.01 0 0 0h.01c.39.18 1.13.54 1.53.73.7.36 1.45.66 2.11 1.12.33.4.66.78 1.01 1.17l-.22-.14c1.58.46 3.15.93 4.74 1.34.61.15 1.21.32 1.81.39h.06c.35-.1.68-.22 1.03-.34 1.54-.56 3.08-1.16 4.6-1.77 1.08-.44 2.21-.86 3.23-1.39-.02.02-.05.04-.06.06 0 0-.01.02-.02.02 0 .01 0 0 0 0l.01-.02.09-.12c1-1.12 2.04-2.17 3.09-3.24l.15-.15.08-.08.06-.06.03-.03-.02.01c-.01.01-.03.02-.04.04 0 0-.02.02-.02.03l.02-.03.05-.08c.69-1.25 1.36-2.54 2.14-3.75.06-.1.2-.13.3-.07.09.06.12.16.09.26-.48 1.38-1.05 2.71-1.72 4.01-.03.06-.08.14-.11.19-1.07 1.14-2.32 2.41-3.34 3.6-.05.06-.09.13-.15.17-.13.1-.28.18-.42.25-2.52 1.17-5.1 2.14-7.71 3.1-.42.14-.86.33-1.3.4-.75 0-1.5-.26-2.2-.43-1.61-.44-3.19-.93-4.77-1.45a.5.5 0 0 1-.2-.14c-.3-.39-.6-.74-.89-1.15 0-.01-.05-.07 0 0h.01c-.07-.06-.17-.12-.25-.17-.97-.59-2.07-1.17-3.07-1.72a.7.7 0 0 1-.27-.23c-.4-.53-.68-1.1-.98-1.69-.13-.29.28-.52.45-.24Z" class="st0"/></g><g style="opacity:.31;mix-blend-mode:multiply"><path d="M64.45 70.13s3.39 1.41 3.49 1.65 2.31 2.73 2.31 2.73l3.11.8 5.56-1.7h1.79s3.63-.94 3.72-1.08 4.53-2.83 4.53-2.83l.52-1.6s2.31-3.06 2.45-2.55.14 2.03.14 2.03l-1.46 4.05-3.77 3.68-9.52 4.1-7.64-2.17-1.27-1.23c-.09-.19-3.25-2.07-3.25-2.07l-1.46-3.49s-.33-.38.75-.33Z" style="fill:#4b465e"/></g><g class="st2"><path d="M63.69 69.5s2.79-.88 3-.85l5.59.81s1.56 1.84 1.94 2.12 3.18 1.03 3.5.95 5.23-2.86 5.8-2.9 4.91-1.31 5.09-1.38c0 0 3.04-3 3.15-2.83s.46 1.41.46 1.84-1.84 4.53-1.8 4.42-3.61 3.75-3.61 3.75-9.13 3.98-9.5 3.97-7.47-1.92-7.51-2.03-1.34-1.73-1.34-1.73l-2.83-1.56s-2.26-4.42-1.94-4.6Z" class="st3"/></g><path d="M77.45 79.91c-.39 0-1.33-.18-4.07-1-1.81-.54-3.65-1.14-3.86-1.21-.29-.1-.59-.42-1.22-1.31-.03-.04-.05-.08-.07-.1-.32-.26-2.6-1.62-3.01-1.82-.16-.08-.53-.27-2.24-4.22a.62.62 0 0 1-.07-.38c.09-.81 2.02-3.41 2.56-3.81.62-.47 4.89-2.19 5.31-2.3.26-.06.81-.02 2 .08.56.05 1.25.11 1.42.09.46-.05 4.49-1.31 4.92-1.57.32-.21 1.18-.22 5.13-.03 1.32.06 2.68.13 3 .09.78-.08 2.14.77 3.59 1.72.28.18.54.36.64.4.8.4 1.29 2.34 1.29 2.36.08.34-.13.92-.95 2.87-.26.61-.61 1.45-.64 1.63-.02.17-.05.5-2.08 2.54-.32.33-1.96 1.96-2.44 2.18-.27.12-2.31.97-4.46 1.87-2.06.86-4.19 1.74-4.45 1.86-.06.03-.13.06-.3.06m-7.59-3.12c1.89.63 6.78 2.15 7.55 2.15.43-.19 2.37-.99 4.42-1.84 2.06-.85 4.18-1.74 4.43-1.85.47-.25 3.65-3.4 3.97-4 .05-.26.24-.75.7-1.84.32-.76.84-2.01.89-2.33-.14-.58-.56-1.53-.77-1.66-.13-.07-.34-.2-.73-.46-.67-.44-2.46-1.62-2.96-1.56-.38.04-1.44 0-3.15-.09-1.66-.08-4.15-.2-4.61-.1-.73.4-4.85 1.65-5.3 1.7-.25.02-.77-.02-1.6-.09-.6-.05-1.5-.13-1.69-.1-.42.11-4.47 1.77-4.95 2.13-.47.35-1.97 2.51-2.17 3.09.69 1.59 1.56 3.4 1.82 3.71.42.24 3.03 1.72 3.27 2.04.02.03.06.09.11.16.47.67.68.89.77.96Zm-4.21-3.18s.01 0 .03.02c0 0-.02-.01-.03-.02m14.01-10.43" class="st6"/><path d="M63.78 69.53c1.39.65 2.79 1.24 4.17 1.9.07.04.17.09.22.15.02.02.1.12.12.14.43.56.98 1.28 1.42 1.82.2.24.42.52.64.73-.02 0 .04.02.05.03.95.36 2.13.69 3.05.83 1.11-.49 2.97-1.17 4.35-1.67.21-.08.44.04.52.25.07.21-.03.44-.24.52-1.28.49-2.57.95-3.85 1.41-.18.06-.35.13-.51.19-.04.02-.12.04-.17.05-.18.02-.36-.03-.52-.07-.93-.27-1.9-.73-2.81-1.05-.15-.05-.29-.2-.39-.3-.18-.19-.35-.39-.52-.59-.33-.39-.99-1.18-1.32-1.58l-.16-.19c-.05-.06-.12-.14-.1-.1-.06-.03-.15-.07-.21-.09-1.34-.54-2.72-1.02-4.09-1.48-.63-.24-.27-1.17.36-.9Zm28.06-3.9c-.04.06-.09.14-.14.19-.47.55-1.27 1.42-1.75 1.96-.14.16-.39-.03-.29-.21l.69-1.21c.15-.28.44-.78.58-1.06 0-.02.04-.08.05-.1.27-.7 1.27-.21.87.43Z" class="st6"/><g class="st2"><path d="M70.57 72.41s-1.37-.85-1.37-2.22 1.74-2.36 2.26-2.45 2.5.38 3.21 1.46 0 2.45-.94 2.78-2.92.57-3.16.42Z" class="st3"/></g><g class="st2"><path d="M79.2 65.77s1.84-1.23 2.59-1.18 1.89.28 1.41.94-2.03 1.23-2.92 1.23-1.7-.57-1.08-.99" class="st3"/></g><g class="st2"><path d="M80.8 75.29c0-.15.19-1.74.9-2.45s1.89-1.27 2.31-1.27 1.08.57.94.99.33 1.7-.71 2.17-3.44 1.6-3.44.57Z" class="st3"/></g><g class="st2"><path d="M86.22 67.65s.8.52.99-.14.38-1.37-.19-1.37-1.13 1.41-.8 1.51" class="st3"/></g></g></g></svg>