<svg xmlns="http://www.w3.org/2000/svg" width="430" height="932" viewBox="0 0 430 932"><defs><style>.st0{fill:#84737d}.st1{opacity:.31;mix-blend-mode:multiply}.st6{fill:#45374a}.st7{fill:#4b465e}</style></defs><g style="isolation:isolate"><g id="_Шар_1" data-name="Шар_1"><path d="M45.42 78.59s-1.56.47-1.89.21-.82-.9-1.72-.61-5 1.15-5.21 1.58-1.18 6.15-1.08 6.72 4.03 6.5 4.27 6.98.87 3.13.97 3.25 3.04 1.15 3.37 1.44 1.86 2 2.33 2 6.81-.59 7.42-.64 2.29.68 2.55.38 1.51-2.5 1.79-2.92 5.47-3.04 5.75-3.58.73-6.83.59-7.21-4.48-4.05-5.02-4.24-5.94-2.5-6.72-2.66-6.76-1.04-7.4-.68Z" class="st0"/><path d="M63.73 91.1h-.02a.456.456 0 0 1-.44-.49l.17-3.42-4.51-4.04-6.41-2.39-6.62-.98-2.39.1c-.07 0-.13 0-.19-.03l-1.21-.48c-.73.17-4.02.94-4.53 1.09a.467.467 0 0 1-.58-.32c-.07-.25.07-.51.32-.58.61-.18 4.56-1.1 4.73-1.14.09-.02.19-.01.28.02l1.25.49 2.34-.1h.09l6.72.99s.06.01.09.02l6.54 2.44q.075.03.15.09l4.74 4.24c.1.09.16.23.15.37l-.18 3.64c-.01.25-.22.44-.47.44Z" class="st0" style="mix-blend-mode:screen"/><g style="mix-blend-mode:multiply;opacity:.25"><path d="M54.8 91.57c-1.04.14-10.61-2.4-10.61-2.4l-1.99-4.3s-.32-1.07-.98-1.03c-.66.05-2.78-4.86-2.78-4.86l-1.65.66s-1.51 6.46-1.41 6.69 4.41 7.12 4.41 7.12l.97 3.25s3.16 1.18 3.25 1.41 2.17 2.55 2.88 2.36 6.69-.94 6.69-.94l2.45.47 1.98-2.92s5.47-3.44 5.84-3.82.52-2.31.52-2.31l.19-4.78s-8.72 5.26-9.76 5.4" style="fill:#726370"/></g><g class="st1"><path d="M48.43 99.92s-.97-.99-1.06-1.74 1.18-2.78 1.51-3.04 2 .75 2.4 1.27.54 3.28.54 3.28l-3.39.24Z" class="st7"/></g><path d="M46.44 99.83c-.11 0-.22-.04-.31-.12l-1.86-1.65-3.23-1.53a.46.46 0 0 1-.25-.31l-.83-3.45-4.16-6.19a.47.47 0 0 1 .78-.52l4.21 6.26s.05.1.07.15l.8 3.32 3.09 1.46s.08.04.11.07l1.76 1.56 6.94-.65h.09c.95.09 1.46.15 1.75.2.25-.34.77-1.15 1.2-1.85.04-.07.1-.12.17-.16l5.48-3.15c.22-.13.51-.05.64.17s.05.51-.17.64l-5.38 3.09c-1.33 2.16-1.47 2.19-1.67 2.23-.09.02-.19.01-.28-.02-.18-.04-1.04-.14-1.77-.21l-7.1.67h-.04Zm8.83-.5h.02z" class="st0"/><g class="st1"><path d="m36.6 79.76 3.26 4.01s2.02.35 2.33 1.1 2.37 6.08 2.58 6.15 7.11 3.43 7.64 3.61 4.49-.39 5.09-.57 6.93-4.6 6.93-4.6l-.35 3.64-6.22 3.99s-1.52 2.86-1.63 2.79-2.72-.57-2.72-.57-6.26.99-6.93.78-2.62-1.73-2.72-1.84-3.18-1.41-3.22-1.77-1.45-4.14-1.66-4.42-3.99-5.37-3.85-6.01 1.47-6.3 1.47-6.3Z" class="st7"/></g><path d="M46.45 100.64c-.67 0-2.26-1.47-2.59-1.87-.2-.25-1.56-.83-2.22-1.1-.63-.27-.99-.42-1.17-.54-.37-.25-.6-.94-1.06-2.78-.08-.31-.18-.7-.22-.82-.41-.61-4-6.31-4.24-6.69-.13-.22-.34-.55.43-4.03.35-1.58.75-3.1.78-3.22.16-.66 1.18-1.21 5.71-1.91.16-.02.27-.04.33-.05.61-.11 1.21.4 1.78.94.02.02.04.03.05.05.18-.05.51-.19.74-.29.62-.26 1.01-.42 1.33-.42.53 0 6.01.87 7.1 1.04.04 0 .07.02.11.03.23.09 5.72 2.32 6.34 2.6.71.33 4.87 3.67 5.36 4.6.55 1.04-.23 6.47-.39 7.01-.14.49-1.11 1.17-4.69 3.28-.67.39-1.43.84-1.6.97-.09.13-.35.6-.56.97-.54.96-.88 1.55-1.1 1.77-.37.37-1.06.25-2.17.01-.31-.07-.79-.17-.91-.15-2.04.19-6.8.61-7.16.61Zm-5.4-4.31c.15.09.59.27.98.44 1.31.56 2.26.99 2.58 1.38.38.47 1.54 1.41 1.87 1.52.43-.02 3.81-.32 7.04-.61.26-.02.63.05 1.21.17.38.08 1.07.23 1.32.2.18-.24.62-1.03.9-1.51.36-.65.56-.99.68-1.14.12-.14.34-.28 1.83-1.16 1.27-.75 3.91-2.3 4.26-2.76.21-.84.75-5.61.45-6.25-.35-.66-4.33-3.9-4.91-4.17-.56-.26-5.67-2.33-6.24-2.56-2.49-.4-6.52-1.02-6.89-1.02-.15 0-.65.22-.95.34-.79.34-1.26.54-1.61.26-.06-.05-.13-.12-.22-.2-.6-.57-.85-.69-.95-.69-.05.01-.18.03-.35.06-4.02.62-4.78 1.08-4.93 1.22-.71 2.72-1.4 5.94-1.3 6.51.52.84 4.03 6.39 4.2 6.63.1.13.14.28.35 1.11.15.59.49 1.95.69 2.23Zm-1.83-2.79s0 .01.01.02zm-2.57-13.85" class="st6"/><path d="M44.35 79.39c-.56 1.24-1.09 2.5-1.58 3.76-.14.38-.29.76-.39 1.14-.01.03 0 .06 0 .08v.05c.22.81.53 1.59.83 2.38.49 1.25.99 2.54 1.6 3.73.03.06.04.07.06.1 0 .02.02.03.04.03.05.04.12.07.18.1 2.66 1.39 5.42 2.61 8.2 3.75.59.25.26 1.14-.36.91-1.62-.89-3.25-1.74-4.89-2.58-.64-.33-2.68-1.35-3.27-1.69l-.09-.05c-.06-.04-.14-.08-.18-.15-.53-.86-.85-1.79-1.26-2.7-.51-1.22-1.04-2.43-1.45-3.69a.87.87 0 0 1-.01-.48c.02-.12.11-.4.14-.52.13-.46.49-1.5.64-1.96l.89-2.59c.24-.62 1.16-.27.9.36Z" class="st6"/><path d="m41.9 84.47-2.96-.65a.16.16 0 0 1-.12-.19c.02-.08.09-.13.16-.12l3.03.22c.53.06.42.84-.11.75Z" class="st6"/><g class="st1"><path d="M40.89 88.93s.75-2.07 1.93-2.62 2.57-.49 3.13-.26 1.34 1.72 1.39 2.12-1.72 2.4-2.36 2.69-2.85.42-3.54-.09-.57-1.84-.57-1.84Z" class="st7"/></g><g class="st1"><path d="M52.65 82.76s-.99-.16-1.44.28.14 1.56.61 1.6 2.52.45 2.52.02.09-.78-.14-1.01-1.56-.9-1.56-.9Z" class="st7"/></g><g class="st1"><path d="M59.7 86.81s-.42-.28-1.01-.28-.99.38-.85.57.8.38 1.04.4 1.41-.4.82-.68Z" class="st7"/></g><g class="st1"><path d="M38.13 80.78s1.11-.45 1.56-.47 1.13.49 1.32.75-.8 1.56-1.32 1.34-1.56-.52-1.63-.59.07-1.04.07-1.04Z" class="st7"/></g><g class="st1"><path d="M46.05 81.91s.73-.4 1.13-.47 1.3.21 1.39.4-1.15.82-1.63.87-1.77-.38-.9-.8Z" class="st7"/></g><g class="st1"><path d="M56.3 89.39s.92.81.95 1.06.35 1.34.6 1.13.92-1.56.74-1.8-.32-.46-.95-.6-1.66-.11-1.34.21" class="st7"/></g></g></g></svg>