<svg xmlns="http://www.w3.org/2000/svg" id="_Шар_1" width="430" height="932" data-name="Шар_1" viewBox="0 0 430 932"><defs><style>.st0{fill:#66ab5c}</style></defs><path d="M338.22 732.97c-39.54-14.48-123.02-15.23-163.11-8.73-37.92 6.15-123.28 23.42-167.42 25.75l-7.64.18.29 181.79 429.69.07.04-181.87s-7.03.23-16.82-.91c-19.72-2.3-52.54-8.04-75.03-16.28" style="fill:#579c4e"/><path d="M315.52 734.45c0 8.61-30.04 17.27-69.73 17.27s-75.48-12.93-75.48-21.54 35.79-9.66 75.48-9.66 69.73 5.31 69.73 13.93" class="st0"/><path d="M306.23 738.54s4.83-3.9 31.75 2.41 39.18 4.83 39.55 2.79c.1-.55-17.62-4.16-25.93-6.83-9.24-2.97-35.71-12.11-53.17-12.85-17.45-.74-20.05 13.18-20.05 13.18z" class="st0"/><path d="M429.98 749.63c-.08 0-8.3.25-17.97-1.07-19.58-2.67-50.96-8.87-73.6-16.17-27.87-9-61.51-11.86-84.81-12.68-27.97-.98-57.34.49-78.58 3.93-9.73 1.58-22.4 3.85-37.06 6.49-41.15 7.4-97.5 17.52-130.29 19.25l-7.63.09v1.22c.07 0 .12-.01.12-.01l7.53-.08h.03c32.86-1.73 89.26-11.87 130.45-19.27 14.66-2.63 27.32-4.91 37.04-6.49 37.55-6.09 112.89-7.41 162.83 8.71 22.71 7.33 54.18 13.55 73.81 16.22 7.07.96 13.39 1.1 16.37 1.1 1.14 0 1.79-.02 1.81-.02h.03v-1.19s-.04-.01-.07-.01Z" style="fill:#368a31"/></svg>