<svg xmlns="http://www.w3.org/2000/svg" width="430" height="932" data-name="Шар_1" viewBox="0 0 430 932"><path d="M.75 749.89s34.89-1.08 40.76-1.41c11.02-.62 40.11 9.09 49.4 8.79 11.64-.37 25.49-9.52 36.03-8.27s37.72 10.36 58.54 8.14c14.01-1.49 34.95-7.05 51.59-11.45 19.19-5.08 30.95 15.36 50.58 7.74 38.57-14.98 50.22-1.32 62.15-1.49s47.91-2.3 81.08-2.05l.31 182.08-430.28.06-.17-182.15Z" style="fill:#579c4e"/><path d="M253.18 747.3c.38.23.59.39.59.39.02-.06.03-.11.04-.17-.21-.08-.42-.15-.63-.23Z" style="fill:#44ad3e"/><path d="M92.48 757.42s8.91-1.67 16.9-4.64 13.93-4.64 19.87-2.79 19.69 3.53 27.3 5.57 18.2 2.6 26.19 1.49c3.47-.48 8.72-.83 14.02-1.84 6.91-1.31 14.07-3.35 19.22-4.29 9.1-1.67 29.16-8.73 28.23 2.79-.93 11.51-31.57 25.07-70.76 25.81s-35.84-14.67-53.86-16.15c-18.01-1.49-36.4-4.27-27.12-5.94Zm197.6-3.9s13.56-5.57 23.96-6.68 23.59-.37 20.06 7.61-45.5 9.28-49.22 5.76c-3.71-3.53 5.2-6.68 5.2-6.68Z" style="fill:#66ab5c"/><path d="M366.62 750.8c-7.38.27-13.22.49-16.82.54h-.2c-3.11 0-6.27-.96-9.91-2.08-10.15-3.1-24.05-7.35-52.25 3.6-10.02 3.89-17.8.36-26.04-3.38-7.43-3.37-15.1-6.85-24.47-4.38l-.6.16c-16.53 4.37-37.1 9.81-50.9 11.28-14.69 1.56-32.52-2.54-45.55-5.53-5.24-1.2-9.77-2.24-12.86-2.61-5.79-.69-12.32 1.6-19.23 4.03-5.7 2-11.59 4.07-16.89 4.24-4.27.14-12.89-1.9-22.01-4.06-10.55-2.49-21.45-5.07-27.4-4.73-5.8.33-40.35 1.49-40.7 1.51H.76v1.19s.04.01.07.01c.35-.01 34.92-1.18 40.73-1.51 5.77-.32 16.59 2.23 27.06 4.7 9.21 2.17 17.9 4.23 22.33 4.09 5.49-.18 11.47-2.27 17.25-4.3 6.77-2.38 13.17-4.62 18.69-3.97 3.02.36 7.52 1.39 12.73 2.59 11.11 2.55 25.69 5.9 38.95 5.9 2.38 0 4.73-.11 7-.35 13.89-1.48 34.51-6.93 51.09-11.31l.6-.16c8.95-2.37 16.43 1.03 23.66 4.31 8.1 3.68 16.49 7.48 26.98 3.41 27.81-10.8 41.48-6.62 51.46-3.57 3.82 1.17 7.13 2.17 10.49 2.13 3.62-.05 9.46-.27 16.85-.54 16.45-.61 41.31-1.53 64.23-1.38v-1.21c-22.95-.15-47.81.77-64.28 1.38Z" style="fill:#368a31"/></svg>