<svg xmlns="http://www.w3.org/2000/svg" width="430" height="932" data-name="Шар_1" viewBox="0 0 430 932"><path d="M-.36 750.73s34.6-1.5 40.48-1.83c11.02-.62 41.78 4.74 51.02 5.84 26.99 3.22 70.79 17.81 91.61 15.6 14.01-1.49 36.27-19.82 52.91-24.23 19.19-5.08 100.79 6.42 112.71 6.25s48.53-2.16 81.69-1.91l.34 181.5-430.42.16z" style="fill:#579c4e"/><path d="M251.75 747.73c.38.23.59.39.59.39.02-.06.03-.11.04-.17-.21-.08-.42-.15-.63-.23Z" style="fill:#44ad3e"/><path d="M55.72 750.54c11.14 0 28.04 2.23 33.99 4.09s19.68 3.53 27.3 5.57c7.61 2.04 26.5 4.61 34.29 6.68 11.14 2.97 25.07 4.89 34.17 3.22s19.99-7.8 19.06 3.71-28.47 21.04-70.62 10.34C95.93 774.5 98.07 769.48 80.06 768s-32.85-17.45-24.33-17.45Zm181.31-3.28s14.45-2.46 24.84-1.26 27.32-.25 22.13 6.77-50.66 4.13-53.51-.13 6.54-5.38 6.54-5.38" style="fill:#66ab5c"/><path d="M374.3 751.1c-11.7.45-20.94.8-25.93.66-19.88-.56-39.61-2.65-57.01-4.49-23.94-2.53-44.61-4.72-55.87-1.74-7.91 2.09-17 7.35-25.8 12.43-10.01 5.79-19.47 11.25-26.76 12.02-9.18.97-29.34-3.31-52.69-8.27-29.65-6.3-63.21-13.43-89.1-13.43h-1.02c-2.53.02-10.2.38-18.32.75-4.15.19-8.43.39-12.09.55-5.7.24-10.06.28-10.1.28h-.05v1.19s.03.01.05.01 4.42-.03 10.14-.28c3.66-.16 7.95-.36 12.1-.55 8.11-.38 15.77-.73 18.27-.75 25.9-.19 59.88 7.03 89.86 13.4 21.15 4.49 39.7 8.43 50 8.43 1.12 0 2.14-.05 3.06-.14 7.55-.8 17.11-6.33 27.24-12.18 8.73-5.04 17.76-10.26 25.51-12.31 11.04-2.92 31.62-.74 55.44 1.78 17.43 1.84 37.18 3.93 57.11 4.49 5.02.14 14.28-.21 26.01-.66 16.22-.62 36.4-1.39 55.61-1.25v-1.21c-19.23-.14-39.43.63-55.66 1.25Z" style="fill:#368a31"/></svg>