<svg xmlns="http://www.w3.org/2000/svg" width="430" height="932" data-name="Шар_1" viewBox="0 0 430 932"><path d="M.1 750.41s4.51-.06 12.01-.91c20.83-2.35 66.21-6.59 113.32-.51 10.53 1.36 37.64 6.85 58.53 8.14s73.46-3.64 94.51-3.75 57.06-10.14 68.97-10.77c40.24-2.14 49.44 7.67 82.6 7.92l-.03 181.49H.09z" style="fill:#579c4e"/><path d="M83.02 776.38c30.95 2.23 69.94 0 93.96-2.23s58.43 1.73 81.95 1.98 67.59 10.65 100.77 10.15c31.97-.48 68.3-30.84 46.98-38.14-17.36-2.67-30.23-7.06-59.24-5.52-11.91.63-47.92 10.66-68.97 10.77s-73.61 5.04-94.51 3.75c-20.89-1.29-48-6.79-58.53-8.14-34.58-4.46-68.4-3.02-92.32-1.47-9.87 2.72-19.02 6.38-18.79 13.51.5 15.6 37.76 13.12 68.7 15.35Z" style="fill:#66ab5c"/><path d="M430.04 749.66H430c-14.55-.11-24.75-2.12-34.51-3.98-12.54-2.39-25.5-4.86-48.1-3.66-4.76.25-13.27 1.98-23.13 3.98-14.77 2.99-33.15 6.72-45.81 6.79-8.5.05-22.2.88-36.7 1.76-21.25 1.29-45.33 2.76-57.77 1.99-14.59-.9-32.23-3.86-45.12-6.02-5.47-.92-10.2-1.71-13.37-2.12-34.04-4.39-72.62-4.11-114.67.84-6.35.75-10.64.66-10.69.66-.02 0-.04.01-.07.01v1.19H.1c.04 0 4.41.09 10.86-.66 41.94-4.94 80.42-5.22 114.37-.84 3.15.41 7.87 1.2 13.33 2.11 12.91 2.16 30.59 5.13 45.24 6.04 2.41.15 5.25.21 8.41.21 13.28 0 32.32-1.16 49.5-2.21 14.48-.88 28.17-1.71 36.63-1.76 12.78-.07 31.22-3.81 46.04-6.81 9.81-1.99 18.29-3.71 22.96-3.96 22.44-1.19 35.34 1.26 47.8 3.64 9.81 1.87 20.07 3.89 34.72 4h.05v-1.2Z" style="fill:#368a31"/></svg>