<svg xmlns="http://www.w3.org/2000/svg" width="112" height="59" viewBox="0 0 112 59"><style>.s1{fill:#59d1fc}</style><path d="M1.67 1.04s9.6.87 23.37 1.78c5.35.35 13.19-.33 19.43-.1 6.24.22 11.01 1.58 17.47 1.53 2.92-.03 5.59.39 8.21.25 7.49-.38 13.98-1.58 19.86-1.86 11.72-.55 20.63-.99 20.63-.99l-2.7 5.04-3.2 6.87s-6.66 16.02-9.51 20.3c-1.78 2.67-4.53 8.4-9.05 13.73-5.22 6.15-12.93 11.69-26.3 10.3-21.45-2.23-40.54-18.6-47.76-24.19-7.22-5.58-9-21.67-9-21.67z" style="fill:#4cb3d8"/><path d="M70.16 4.5c-2.63.13-5.29-.28-8.21-.25-6.46.06-11.23-1.3-17.47-1.53-6.24-.22-14.08.46-19.43.1C11.28 1.91 1.68 1.04 1.68 1.04l.05.35c3.16.38 10.09 1.27 13.61 2.02 4.65.99 11.52 1.22 17.78.61s18.16.31 25.71 2.14 17.55 1.45 20.98-.31c3.43-1.75 14.42-2.82 19.76-1.91 3.72.64 7.7-.06 10.26-.74l.83-1.54s-8.91.44-20.63.99c-5.88.28-12.38 1.48-19.86 1.86z" class="s1"/><path d="M28.3 45.6s14.4 3.09 17.18 6.39 10.06-.57 17.94-.5c7.89.08 12.81-1.54 17.44-1.63s1.61 1.38 1.61 1.38-4.07 5.75-15.41 6.56c-15.46 1.11-23.41-3.92-29.2-6.66-4.96-2.35-9.56-5.54-9.56-5.54" style="fill:#3885a1"/><path d="M66.85 4.82c-4.18 0-8.27-.48-12.23-.95-3.3-.39-6.42-.75-9.49-.84-3.76-.11-7.29-.07-10.7-.03-3.89.04-7.56.08-10.96-.11-6.36-.37-8.95-.64-11.24-.89-2.52-.27-4.51-.48-10.57-.72-.17 0-.31-.15-.3-.32 0-.17.14-.3.31-.3h.01c6.08.24 8.08.45 10.61.72 2.28.24 4.87.52 11.21.88 3.38.2 7.04.16 10.92.11 3.42-.04 6.95-.08 10.73.03 3.1.09 6.23.46 9.54.85 3.99.47 8.11.93 12.3.94 3.87-.01 7.88-.51 11.77-.99 3.29-.41 6.69-.83 10.06-.97 2.42-.1 4.9-.17 7.3-.23 4.84-.12 9.85-.25 14.64-.71.19-.02.32.11.34.28s-.11.32-.28.34c-4.82.46-9.83.59-14.69.71-2.4.06-4.88.12-7.29.23-3.35.14-6.74.56-10.01.97-3.9.48-7.94.99-11.84 1h-.15z" style="fill:#468fc7"/><path d="M88.88 9.13C78.35 7.15 64.46 22.71 53.94 28.2c-10.53 5.49-18.46-6.41-27.01-9-5.81-1.77-15.94.57-21.81 2.24 1.31 4.35 3.38 9.16 6.57 11.9 3.68-2.55 8.88-4.88 15.7-4.67 14.95.46 13.89 12.97 26.4 12.51s22.43-14.5 31.28-14.04c4.05.21 8.96.74 13.1 1.25 3.03-6.27 6.59-14.83 6.59-14.83l1.65-3.53c-4.59.44-11.19.29-17.53-.9" style="fill:#39abd4"/><path d="M64.28 58.92c-20.58 0-42.58-16.14-51.55-23.5C4.04 28.28.94 6.52.84 1c0-.36.28-.66.64-.66.38 0 .66.28.66.64.1 5.17 3.19 26.68 11.41 33.44 9.54 7.84 34.05 25.76 55.4 22.9 16.51-2.21 26.53-24.3 34.57-42.06 2.38-5.26 4.64-10.23 6.76-13.93.18-.31.58-.42.89-.24s.42.58.24.89c-2.09 3.65-4.33 8.59-6.71 13.82-8.18 18.05-18.36 40.51-35.58 42.81q-2.4.32-4.85.32z" style="fill:#4f7013"/><path fill-rule="evenodd" d="M80.6 35.04c-.51 0-.92-.41-.92-.92s.41-.92.92-.92.92.41.92.92-.41.92-.92.92m5.89-9.51c-.48 0-.86-.38-.86-.86s.38-.86.86-.86.86.38.86.86-.38.86-.86.86m-68.72-.91c-.51 0-.92-.41-.92-.92s.41-.92.92-.92.92.41.92.92-.41.92-.92.92M39.05 37.9c-.51 0-.92-.41-.92-.92s.41-.92.92-.92.92.41.92.92-.41.92-.92.92m16.14-20.03c-.7 0-1.26-.56-1.26-1.26s.56-1.26 1.26-1.26 1.26.56 1.26 1.26-.56 1.26-1.26 1.26" class="s1"/></svg>