<svg xmlns="http://www.w3.org/2000/svg" id="_Шар_1" width="430" height="932" data-name="Шар_1" viewBox="0 0 430 932"><defs><style>.st1,.st2,.st4,.st5{fill:none;stroke-linecap:round;stroke-linejoin:round}.st1{stroke:#211b18;stroke-width:.29px}.st12{fill:#fff}.st2,.st4{stroke-width:.41px}.st2{stroke:#473726}.st16{fill:#cf8237}.st4,.st5{stroke:#602f1a}.st5{stroke-width:.45px}.st18{fill:#7d583d}.st21{fill:#211b18}</style></defs><path d="M-.36 750.73s34.6-1.5 40.48-1.83c11.02-.62 41.78 4.74 51.02 5.84 26.99 3.22 70.79 17.81 91.61 15.6 14.01-1.49 36.27-19.82 52.91-24.23 19.19-5.08 100.79 6.42 112.71 6.25s48.53-2.16 81.69-1.91l.34 181.5-430.42.16z" style="fill:#579c4e"/><path d="M251.75 747.73c.38.23.59.39.59.39.02-.06.03-.11.04-.17-.21-.08-.42-.15-.63-.23Z" style="fill:#44ad3e"/><path d="M55.72 750.54c11.14 0 28.04 2.23 33.99 4.09s19.68 3.53 27.3 5.57c7.61 2.04 26.5 4.61 34.29 6.68 11.14 2.97 25.07 4.89 34.17 3.22s19.99-7.8 19.06 3.71-28.47 21.04-70.62 10.34C95.93 774.5 98.07 769.48 80.06 768s-32.85-17.45-24.33-17.45Zm181.31-3.28s14.45-2.46 24.84-1.26 27.32-.25 22.13 6.77-50.66 4.13-53.51-.13 6.54-5.38 6.54-5.38" style="fill:#66ab5c"/><path d="M374.3 751.1c-11.7.45-20.94.8-25.93.66-19.88-.56-39.61-2.65-57.01-4.49-23.94-2.53-44.61-4.72-55.87-1.74-7.91 2.09-17 7.35-25.8 12.43-10.01 5.79-19.47 11.25-26.76 12.02-9.18.97-29.34-3.31-52.69-8.27-29.65-6.3-63.21-13.43-89.1-13.43h-1.02c-2.53.02-10.2.38-18.32.75-4.15.19-8.43.39-12.09.55-5.7.24-10.06.28-10.1.28h-.05v1.19s.03.01.05.01 4.42-.03 10.14-.28c3.66-.16 7.95-.36 12.1-.55 8.11-.38 15.77-.73 18.27-.75 25.9-.19 59.88 7.03 89.86 13.4 21.15 4.49 39.7 8.43 50 8.43 1.12 0 2.14-.05 3.06-.14 7.55-.8 17.11-6.33 27.24-12.18 8.73-5.04 17.76-10.26 25.51-12.31 11.04-2.92 31.62-.74 55.44 1.78 17.43 1.84 37.18 3.93 57.11 4.49 5.02.14 14.28-.21 26.01-.66 16.22-.62 36.4-1.39 55.61-1.25v-1.21c-19.23-.14-39.43.63-55.66 1.25Z" style="fill:#368a31"/><path d="M250.76 746.18s-1.19-.67-2.18-.44c0 0-.96-.41-1.5-.03 0 0-.96-.54-1.58-.1s-.54.34-.88.34-.78.26-.88.73c0 0-1.56-.91-2.05.29 0 0-.83.31-1.11.6s-.41.6.54.8 1.37.03 1.37.03-1.32.47-.75 1.09 2.98.65 3.03.91-.13.75.91 1.45 13.04.41 14.78.23 1.24-.34 1.14-1.06 1.43-.26 2.72-.41 2.07-.47 2.15-.86 3.09-.23 3.09-.08-.39.99.91 1.17 1.69-.54 1.35-.96 2.49.05 3.55-.18.08-.86.08-.86 1.97-.29 1.66-1.14-2.85-1.61-3.09-1.63-.34-.49-1.19-.7-2.2.31-2.2.31-.34-.44-1.81-.67-2.15.36-2.15.36-1.22-.39-1.92.39c0 0-.47-.21-.86-.05s-.44.03-1.04 0-1.14.1-1.14.1-2.07-.67-3.27-.08c0 0-1.5-.67-2.9.29 0 0-1.06-.26-1.37.05 0 0-.91-.49-1.56-.23s-1.84.36-1.84.36Z" class="st18"/><path d="M250.13 746.03s-.8-.62-1.59-.31c0 0-1.18-.41-1.52-.02 0 0-.54-.52-1.16-.33s-.67.64-.67.64m.12.68s.14-.64-.74-.74-.9.74-.9.74-1.52-.81-1.99.38m10.58-1.04c-.05-.03.97-.48 1.85.05 0 0 .6-.33 1.3-.02 0 0 1.45-.93 2.92-.35 0 0 2.09-.73 3.3.12 0 0 .97-.45 1.71 0" class="st2"/><path d="M263.18 746.14c0-.05.29-.69 1.49-.38 0 0 .64-.83 2.07-.36 0 0 2.39-1.28 3.8.24 0 0 1.9-1.21 3.32.45 0 0 2.7.38 3.28 1.59s-2.66 1.14-2.66 1.14" class="st2"/><path d="M243.14 747.96c0 .38-.66.48-1.41.48s-1.4-.16-1.4-.54.66-.83 1.4-.83 1.41.5 1.41.88Z" style="fill:none;stroke-linecap:round;stroke-linejoin:round;stroke:#473726;stroke-width:.39px"/><ellipse cx="264.62" cy="749.63" class="st2" rx="1.85" ry="1.02"/><path d="M264.63 748.46s.34-1.22 1.66-.47m-.41-.31s.18-.7 1.19-.49" class="st2"/><ellipse cx="270.75" cy="750.12" class="st2" rx="1.17" ry=".7"/><ellipse cx="251.62" cy="751.36" rx="5.62" ry="1.35" style="fill:#473726"/><path d="M267.67 732.98s1.09-.62 1.01-1.45-.34-1.3-.75-1.84-.36-1.06.65-.96 2.31.96 2.51 2.26-.65 2.51-.99 2.77-.49.34-.49.34.78 1.4.91 2.51-.54 2.72-.57 2.83l-.41 1.48s.41.52.57.73.62.44.47 1.01-.75 2.15-.96 2.49-.31.88-.31.88-.44.08-.73.05-.52.03-.83.03-.41-.05-.49-.08-.7-.05-.78-.29-.18-.54 0-.91.8-1.22.8-1.22.41-.29.08-.36-.99-.39-.99-.39-.18.23-.47.41-1.45.47-1.45.47-.13 1.14-.52 1.32-.7.13-.7.13-.62-.08-.8-.08-.29-.1-.29-.1-.49.1-.57-.03-.21-.39-.21-.39l-1.71.1s-.1.54.34.73.96.31.96.52-.47.54-.47.54-.03.21-.1.36-.26.52-.78.7-.52.39-1.06.31-1.11-.03-1.53-.62-.67-1.06-.67-1.43v-.8s-1.71.05-2.02 0-.65-.03-.65-.03-.54.91-.83 1.3-.6 1.17-.73 1.35-.13.47-.44.41-.44-.1-.49-.18-.6.05-.78-.08-.36-.03-.73-.31-.29-.6-.18-.96 1.79-1.87 1.81-2-.36-.29-.8-.52-1.24-.8-1.01-3.21 2.72-4.77 4.54-6.09 4.41-1.81 6.56-2.18 6.17.13 7.08.47Z" class="st16"/><path d="M266.46 742.87c-1.9 1.05-4.42 1.75-6.89 1.87m-8.31-.25s-2.44 1.87-1.74 2.9c.12.18.25.32.7.36" class="st4"/><path d="M250.44 746.49s-.28.23-.29.78.36.77.84.62" class="st4"/><path d="M251.3 746.62s-.77.94-.02 1.33.88-.46 1.05-.81c.43-.85 1.49-2.1 1.51-2.13m2.62-.55s-.52 1.44.51 2.66 2.37.48 2.37.48" class="st4"/><path d="M258.14 746.85s.72 1.11 1.78.54c.7-.38.29-.7.29-.7" class="st4"/><path d="M259.02 746.48s.53.53 1.39.14.38-1.15-.18-1.14-1.02-.97-.54-1.74m6.41-5.59s-1.11 1.24-.57 3.25 2.75 2.02 2.75 2.02m1.25-9.31s1.43 1.88.64 4.72-.97 1.88-.35 2.58.9.88.55 1.92-.93 1.87-1.05 2.47-1.45.67-1-.64" class="st4"/><path d="M267.73 743.39s-.81.6-1.19 1.57c-.47 1.19.74 1 .74 1" class="st4"/><path d="M267.4 745.22s-.55 1.3.81.92m-3.62-2.42c-.2.4-.23.75-.29 1.05-.12.6-1.58.78-1.13-.53m-1.87.32c.06.64.83.36.83.36" class="st4"/><path d="M262.31 744.4s-.62 1.08.75.7m4.72-12.15s1.49-.83.66-2.25-1.28-2.21.31-1.9 3.94 2.56.97 5.36" class="st4"/><path d="M256.23 744.98s-4.07.4-6.08-1.31c-1.83-1.56-.11-6.7 4.39-9.3 4.88-2.82 13.56-2.3 14.95-.26" class="st4"/><path d="M255.12 728.97s-2.05-.47-4.36.26-2.75 1.37-2.75 1.37-1.14-.26-2.75.23-2.75 2.36-2.72 3.84.91 2.7 1.87 3.06 1.37.03 1.37.03 1.17 1.89 2.07 2.44c0 0-.6 1.53-.1 2.75s1.66 1.79 4.33 1.89 7.49-1.19 9.26-3.66 1.56-4.51 1.24-5.96c0 0 .08-.23.29-.44s1.89-1.74 1.37-3.78-3.06-3.24-5.26-3.21-3.86 1.19-3.86 1.19Z" class="st16"/><path d="M253.38 744.7s-3.13.64-4.75-.67.47-3.2 1.59-3.8 4.58-.36 4.58-.36.99-.92 1.88-.83 1.02 1.54 1.02 1.54 1.78 2.11.73 2.82-5.05 1.31-5.05 1.31Z" style="fill:#ffb770"/><path d="M254.97 742.33s.4-.5.45-.69.4-.92.4-.92.66-.09 1.05.21.69.47.69 1.16-.16.99-.76 1.16-.99-.28-1.33-.45-.69-.4-.5-.47" style="fill:#f7553b"/><ellipse cx="254.16" cy="737.74" class="st12" rx="1.74" ry="1.65"/><ellipse cx="249.04" cy="738.96" class="st12" rx="1.52" ry="1.65"/><path d="M254.73 742.49s.59.17 1.13.55c.66.45 1.91.34 1.77-1.03s-1.71-1.28-1.71-1.28" style="fill:none;stroke-linecap:round;stroke-linejoin:round;stroke-width:.29px;stroke:#c62f17"/><path d="M255.45 741.46c.33.07.92.3.97.61-.26-.06-.5-.34-1-.32-.21 0-.18-.33.03-.29" style="fill:#c62f17"/><path d="M255.19 728.85c-1.21-.14-2.37-.09-3.74.21 0 0-5 .86-5.8 5.29-.8 4.42 2.18 5.46 2.13 6.15s-1.81 4.91 5.66 4.22c7.32-.68 10.33-4.97 9.07-9.58" class="st5"/><path d="M254.26 730.65c-.16-1.19.96-2.17 1.99-2.56 2.11-.87 4.66-.68 6.55.64 3.7 2.44 1.23 7.23-2.7 7.29-1.89.02-3.08-1.64-3.84-3.13-.28-.46-.55-.91-1.03-1.04-.08-.01-.13-.09-.11-.17.02-.06.07-.1.13-.1.67.02 1.12.6 1.41 1.05.77 1.34 1.73 2.92 3.44 2.9 3.46-.04 5.77-4.27 2.45-6.44-1.76-1.24-4.16-1.44-6.15-.63-.99.38-1.93 1.06-2.01 2.22-.02.1-.14.06-.13-.04Z" style="fill:#602f1a"/><path d="M247.95 730.57s-2.62-.75-4.62 1.92.25 6.23 2.57 5.29" class="st5"/><path d="M250.76 739.96s-1.53.44-1.09 1.53 1.82 1.06 2.15.94c.46-.17 1.54-1.22.98-2.11-.52-.82-2.03-.36-2.03-.36Z" class="st21"/><path d="M251.8 742.24s.16 1.14 2.28.52c1.57-.46 1.9-2.57 1.9-2.57" class="st1"/><path d="M249.69 743.37s.53.45 1.52.3c.51-.08 1.06-.21 1.47-.75" class="st1"/><path d="M255.48 740.18c.29-.26.72-.28 1.05-.12.07.03.04.15-.04.14-.33-.02-.66-.05-.95.08-.06.03-.12-.06-.06-.1" class="st21"/><circle cx="254.16" cy="737.73" r="1.71" style="stroke-width:.24px;fill:none;stroke-linecap:round;stroke-linejoin:round;stroke:#211b18" transform="rotate(-35.12 254.17 737.752)"/><ellipse cx="253.94" cy="738.31" class="st21" rx="1.21" ry="1.04"/><ellipse cx="248.99" cy="738.99" rx="1.49" ry="1.71" style="fill:none;stroke-linecap:round;stroke-linejoin:round;stroke:#211b18;stroke-width:.23px" transform="rotate(-16.84 248.9 738.845)"/><ellipse cx="249.11" cy="739.44" class="st21" rx="1.25" ry="1.21" transform="rotate(-16.57 249.189 739.615)"/><path d="M254.8 735.11c.08.04-1.11.23-1.78 1.23s-1.03 1.21-1.57.82-.21-1.09-.21-1.09.51.74 1.01.03c.58-.84 1.75-1.39 2.56-.99Zm-7.67 2.41s1.09-.57 1.84-.25 1.23.65 1.53.57.17-.83-.25-1.4c-.31-.41-.23.03-.23.03s-.07.39-.72.23-1.64-.2-2.17.81Z" class="st21"/><path d="M250.14 748.73s.1-.88-.65-1.04-1.06.09-1.14.44-.03.93-.03.93-.84.32-.66.93.69.73 1.15.52.88-.57.88-.57l3.01 1.18s.04.39.26.66 1.04.65 1.44.25.14-.87.14-.87l-.16-.26s1.1-.7.66-1.22-.87-.56-1.09-.52-.92.4-.92.4l-2.9-.84Z" style="fill:#fefefe"/><path d="m250.06 748.8 3.01.86s.54-.62 1.3-.52 1.3 1.4-.05 1.74c0 0 .83.75.1 1.19s-1.58-.08-1.56-.83 0-.1 0-.1l-3.27-1.14s-.54.7-1.37.62-.75-1.35.13-1.58c0 0-.29-.6.13-1.11s1.89-.29 1.58.88Z" style="fill:none;stroke-linecap:round;stroke-linejoin:round;stroke-width:.41px;stroke:#c7b39d"/><path d="M248.8 752.53s.38-1 1.87-.8c0 0 .86-1.18 2.35-.52 0 0 1.11-.83 2.18 0 0 0 1.07-.66 2.11.45 0 0 1.62-.76 2.83.28 0 0 2.8.38 2.8 1.04s-14.66.76-16.21.45 2.07-.9 2.07-.9" class="st18"/><path d="M248.8 752.53s.38-1 1.87-.8c0 0 .86-1.18 2.35-.52 0 0 1.11-.83 2.18 0 0 0 1.07-.66 2.11.45 0 0 1.62-.76 2.83.28 0 0 2.8.38 2.8 1.04s-14.66.76-16.21.45 2.07-.9 2.07-.9" class="st2"/></svg>