<svg xmlns="http://www.w3.org/2000/svg" width="430" height="932" viewBox="0 0 430 932"><defs><style>.st0{stroke-width:.69px}.st0,.st1,.st10,.st12,.st13,.st15,.st17,.st18,.st19,.st2,.st22,.st24,.st25,.st26,.st27,.st28,.st3,.st30,.st33,.st4,.st5,.st7,.st8,.st9{fill:none;stroke-linejoin:round}.st0,.st1,.st10,.st12,.st13,.st15,.st17,.st18,.st19,.st2,.st24,.st25,.st26,.st27,.st28,.st3,.st30,.st33,.st4,.st5,.st7,.st8,.st9{stroke-linecap:round}.st0,.st1,.st10,.st3,.st8{stroke:#494a5e}.st1{stroke-width:.57px}.st40{fill:#e0d1a4}.st2{stroke:#72a322}.st12,.st13,.st2,.st24,.st26{stroke-width:.32px}.st3{stroke-width:.53px}.st4{stroke:#ba8f3a}.st15,.st25,.st4{stroke-width:.35px}.st19,.st22,.st5{stroke-width:.27px}.st5{stroke:#8588ad}.st18{stroke:#657ccf}.st7{stroke:#bdac7b}.st10,.st28,.st33,.st7{stroke-width:.41px}.st8{stroke-width:.38px}.st9{mix-blend-mode:screen;stroke:#cddba7}.st17,.st9{stroke-width:.55px}.st44{fill:#fff}.st12{stroke:#8c661e}.st13{stroke:#99700a}.st47{fill:#b39848}.st15,.st24,.st30{stroke:#211b18}.st50{fill:#657ccf}.st57{fill:#2bcccc}.st17{stroke:#5f808f}.st18,.st27,.st30{stroke-width:.35px}.st61{fill:#93a0ac}.st19,.st33{stroke:#8e7939}.st22{stroke:#b39e1e}.st25{stroke:#2bcccc}.st62{fill:#e0b55e}.st63{fill:#5a5c75}.st26{stroke:#5a8da6}.st64{fill:#fcbd76}.st27{stroke:#65668a}.st28{stroke:#398e3b}.st66{fill:#211b18}.st67{fill:#fee12a}.st68{fill:#368a31}.st69{fill:#9597ad}</style></defs><g style="isolation:isolate"><g id="_Шар_1" data-name="Шар_1"><path d="M339.29 743.2c-44.07-6.56-88.14-24.63-111.78-27.23s-56.2-1.49-81.33 10.77C121.28 738.88 7.34 750.05.09 749.91L.06 932.03l429.85-.09.14-182.05c-.72 0-47.03-.19-90.76-6.7Z" style="fill:#579c4e"/><path d="M276.52 735.16c0 10.26-36.23 10.4-68.33 10.4s-64.25-2.74-64.25-13 31.59-17.83 63.69-17.83 68.89 10.17 68.89 20.43" style="fill:#66ab5c"/><path d="M430.05 749.29c-.46 0-47.12-.2-90.67-6.69-24.09-3.59-47.93-10.55-68.96-16.69-17.22-5.03-32.09-9.37-42.84-10.55-9.33-1.03-23.89-1.89-40.24-.19-15.91 1.66-29.84 5.37-41.43 11.01C121.34 738.16 7.4 749.43.1 749.29c-.02 0-.04 0-.07.01v1.19h.19c4.14 0 33.35-2.62 66.36-6.98 29.11-3.84 66.6-9.78 79.85-16.25 29.63-14.45 66.52-12.3 81-10.71 10.64 1.17 25.47 5.5 42.64 10.51 21.07 6.15 44.95 13.12 69.13 16.72 43.64 6.5 90.39 6.7 90.85 6.7s.04-1.21 0-1.21Z" class="st68"/><ellipse cx="179.95" cy="725.49" class="st68" rx="9.59" ry="3.89"/><ellipse cx="237.96" cy="726.56" class="st68" rx="9.59" ry="3.89"/><path d="M210.71 720.11c0 2.8-5.59 5.06-12.49 5.06s-13.09-4.11-13.09-6.91 6.19-3.22 13.09-3.22 12.49 2.27 12.49 5.06Z" class="st68"/><path d="M238.49 721.01c0 2.8-12.65 4.05-19.55 4.05s-13.09-4.11-13.09-6.91 6.19-3.22 13.09-3.22 19.55 3.28 19.55 6.08" class="st68"/><path d="M213.44 715.32s-1.05-.11-1.94.75-.83 2.62-.75 2.86.2 1.02.83 1.45 1.66.49 2.25.42 1.66-1.11 1.74-1.62.34-1.65.2-2.03-.3-.97-.83-1.28-1.51-.54-1.51-.54Z" class="st63"/><ellipse cx="213.88" cy="718.1" class="st0" rx="2.65" ry="1.8" transform="rotate(-79.88 213.847 718.073)"/><path d="M210.79 719.14c.15.93.76 1.52 2.63 1.59" class="st0"/><ellipse cx="213.88" cy="718.1" class="st61" rx="1.14" ry=".77" transform="rotate(-79.88 213.847 718.073)"/><path d="M208.61 715.68s-1.4.23-1.31 2.1 1.31 2.24 2.01 2.36 2.1-.3 2.34-1.07-.16-3.13-.75-3.5-2.29.12-2.29.12Z" class="st63"/><path d="M210.5 719.09c.06.06 1.11-.45 1.11-.45m-1.05-.22c.06.06 1.11-.45 1.11-.45" style="fill:none;stroke-linejoin:round;stroke-linecap:round;stroke:#8588ad;stroke-width:.23px"/><ellipse cx="209" cy="717.86" class="st1" rx="1.5" ry="2.21" transform="rotate(-10.12 209.13 718.191)"/><path d="M211.28 716.53c.11.26.26.64.31.91.21 1.2.09 2.52-2.2 2.61" class="st1"/><ellipse cx="209" cy="717.86" class="st61" rx=".64" ry=".95" transform="rotate(-10.12 209.13 718.191)"/><path d="m213.73 711.88 3.79-10.26" class="st17"/><path d="M218.84 719.28s.77-1.71 1.65-2 1.18.43 1.34 1.07-.82 1.55-.82 1.55l-2.17-.63Zm12.88-2.05s.32-1.75 1.2-2.04 1.63.48 1.79 1.12-.82 1.55-.82 1.55z" class="st63"/><path d="M220.41 718.25s-1.05-.11-1.94.75-.83 2.62-.75 2.86.2 1.02.83 1.45 1.66.49 2.25.42 1.66-1.11 1.74-1.62.34-1.65.2-2.03-.3-.97-.83-1.28-1.51-.54-1.51-.54Zm11.92-2.74s-.9.23-1.78 1.09-.83 2.62-.75 2.86.2 1.02.83 1.45 1.66.49 2.25.42 1.66-1.11 1.74-1.62.34-1.65.2-2.03-.3-.97-.83-1.28-1.66-.88-1.66-.88Z" class="st63"/><path d="m218.2 720.47 1.02.19" class="st5"/><path d="M233.95 714.03c-.42-.33-2.64-1.1-2.73-1.03s-13.62-1.17-13.62-1.17l-3.88-.44-.72-.19-1.14-.35-.7.84-1.03.54s-.35.05-.72.28c0 0-.84.47-.89.79-.05.33.89 3.53.89 3.53s-.61.51-.58.68.61 1.33.89 1.49 1.52.44 1.68.56 1.96 1.33 2.13 1.47 3.27.89 3.67.86c.4-.02 1.42-.4 1.35-.63s-.14-.96-.12-1.19 1.03-2.01 1.52-2.5 1.03-.63 1.35-.33c.09.09.17.45.26.93.21.18.44.35.62.57.24.28.4.65.53.99.19.53.19 1.06.11 1.59 1.34-.12 7.66-2.07 7.66-2.07s.09-2.62 1.21-3.48 2.78-.33 2.78-.33-.09-1.1-.51-1.42Z" class="st40"/><path d="M234.63 715.33s-.6-1.4-.77-1.4-6 1.73-6.26 2.06-.26 1.69-.75 2.01-3.4-.18-3.4-.18-1.47-4.2-1.7-4.06-2.22.28-2.24.46-2.26 2.21-2.26 2.21l-5.5-.77s-3.11-2.7-3.23-2.35.82 3.33.82 3.33-.46.67-.42.88.53 1.61.63 1.65 1.86.42 1.96.49 1.82 1.19 2.03 1.26 3.08 1.12 3.43 1.09 1.51-.7 1.4-1.02 1.05-3.12 1.54-3.5c0 0 .74-.42 1.09-.32s.91.88.91.88.88 1.02 1.02 1.4.28 1.65.28 1.65l6.97-1.58s.49-.32.39-.77.74-2.51 1.12-2.95 2.28-.72 2.94-.44Z" style="opacity:.32;mix-blend-mode:multiply;fill:#e0d1a4"/><path d="M202.11 718.44s.98 2.59 2.17 1.94.08-2.7-.48-2.66-1.69.72-1.69.72" class="st63"/><path d="M202.27 718.71s.28.42.32.44" class="st10"/><path d="m203.72 718.29.25 1.55s.01.48.49.43 3.39-1.06 3.39-1.06.41.01.39-.59-.26-2.69-.47-3-3.96 1-4.04 2.67Zm-6.65 2.21c-.07-.04-.94.07-.93-.29s.28-2.04.96-2.98 1.87-.68 2.41.12-.14 2.34-.14 2.34-2.06.96-2.29.82Z" class="st63"/><path d="M196.27 720.41s.89.09 1.54-.12" class="st28"/><path d="M234.09 714.1c-.77-.58-2.76-1.1-3.22-1" class="st7"/><path d="M221.35 711.55s1.73-8.79 1.73-8.9" class="st17"/><path d="m218.5 712.1 3.13 1.54.9.42s4.1 1.14 4.27 1.12 3.29-.75 3.56-.99.9-2.46.96-3.01-.22-1.14-.6-1.4-4.15-1.13-4.51-1.24-2.46-.56-3.06-.22-1.35 2.44-1.35 2.44-.84.09-1.6.33-1.59.76-1.71 1.02Z" class="st47"/><path d="M209.15 716.27c.04-.48-.18-.93-.37-1.36-.17-.38-.33-.76-.37-1.17-.03-.38.09-.76.3-1.08.03-.05.07-.11.11-.16-.08-.09-.16-.17-.22-.21-.58-.4-.75-.28-1-.21 0 0-.25.04-.54-.04-.3-.07-.82-.33-1-.42s-2.01-.79-2.98-.56c-.96.23-3.59 1.02-3.66.96-.07-.05-7.3-.79-7.3-.79s-4.36.93-4.57 1.47-.65 3.71-.61 3.89 1.17.98 1.63 1.26 2.7.46 2.8.53c.11.07 4.64 1.98 4.64 1.98s.1.02.25.04c-.02-.17-.04-.35-.03-.52 0-.25.06-.5.11-.75.04-.21.07-.42.11-.63.11-.55.31-1.14.76-1.51.45-.38 1.14-.45 1.67-.19.54.25.8.85 1.22 1.24a8 8 0 0 0 .72.61c.02-.01.03-.02.03-.02s2.79-.26 3.4-.4.77-.47.82-.77.26-.56.75-.86 1.63-.74 1.73-.65c.11.09.37.7.88.6.16-.03.43-.11.72-.21 0-.02-.01-.04-.01-.06Z" style="fill:#b8e092"/><path d="M197.05 713.3s5.35-1.71 6.56-1.82 2.1.4 2.1.4" class="st9"/><path d="M190.23 716.08s-.79-1.24-1.63-1.14-.96 2.1-.54 2.69 2.17-1.54 2.17-1.54Zm18.86 2.13c-.12-.28-.3-.7-.75-.63-.44.07-6.14 1.56-6.14 1.56s-.54.16-.7-.12c-.05-.09-.17-.29-.35-.52a.17.17 0 0 1-.14 0h-.05a.2.2 0 0 1-.1.05c-.29.03-.54-.18-.73-.37-.18-.19-.32-.4-.46-.62a.2.2 0 0 1-.02-.07 2 2 0 0 0-.5 0s-1.42-.33-2.15 1.42.3 3.99 1.87 4.23c1.56.23 2.5-.28 2.69-1s.13-1.58.67-1.79 6.5-1.83 6.5-1.83.49-.05.37-.33Z" class="st63"/><path d="M190.98 717.9c-.29-.38-.51-.85-.68-1.29-.16-.44-.26-.91-.68-1.18h-.03s-1.06-.24-1.6 1.06.23 2.97 1.39 3.14 1.86-.21 2-.75c.04-.15.09-.32.14-.48-.2-.14-.39-.3-.54-.5" class="st63"/><path d="M200.46 721.9c.07.07 1.33-.54 1.33-.54" class="st5"/><path d="M234.74 716.4s.14-1.31-1.65-1.23" class="st7"/><path d="M200.53 721.09c.07.07 1.33-.54 1.33-.54m-11.3-1.67c.07.07 1.05-.24 1.05-.24m8.8 1.4c.07.07 1.33-.54 1.33-.54m-1.65-.37c.07.07 1.33-.54 1.33-.54" class="st5"/><path d="M197.77 702.3c0 .3 1.17 8.08 1.17 8.08" class="st17"/><path d="M187.91 717.38s-.79-.42-.91-.74.45-4.15.65-4.2c.53-.14 3.77-.96 3.77-.96" class="st28"/><path d="M192.54 707.68s-2.8.18-2.86 1.38.79 3.75 1.35 3.99 2.56 1.02 2.91.96 1.7-.39 1.7-.39h.37s.98-.81 1.3-.95 4.15-1.26 4.15-1.26.05-.26-.46-.61-1.75-.72-1.75-.72-.44-.39-.44-.77.16-2.14-.61-2.31-5.66.67-5.66.67Z" class="st47"/><path d="m193.96 717.68 1.58-.49s.21-2.35.25-2.49.32-1.72 1.02-1.23 2.28 1.26 2.59 1.51 1.09.6 1.68.6 1.86-.46 2.28-.7 2.91-1.65 2.91-1.65 1.23-.91 1.37-1.02c0 0 .67-.28.98.07 0 0 .35.46.21.6s-.43.86-.14 1.48.53 1.67.53 1.67-.32.42-.75.51-.47-.26-.68-.37-.88-.32-1.4.11-.98.46-1.19.95-.07.7-.77.91-2.84.49-3.19.49-.6-.42-.88-.7-.63-.81-1.4-.91-1.47-.21-2 .42-.67 1.79-.67 2 .53.91-.81.67-3.71-1.51-3.71-1.51-.67-.63-.95-1.4-.88-2.1-1.68-2.21-1.16.28-1.16.28-.07 1.93-.53 1.68-.42-.84-.35-1.51.49-2.7.46-2.73 1.51.28 1.75.46 3.68 1.61 3.68 1.61.53.42.56.81.42 2.1.42 2.1Z" style="mix-blend-mode:multiply;fill:#b8e092"/><path d="M203.89 720.45s4.25-1.06 4.34-1.4c.15-.53-.3-2.51-.3-2.51" class="st10"/><path d="M197.03 706.96c.07.05.79.69.86 3.39 0 0 1.86.99 1.93 1.1s.05.43.05.43" class="st19"/><ellipse cx="198.66" cy="720.41" class="st0" rx="1.8" ry="2.65" transform="rotate(-10.12 198.774 720.746)"/><path d="M201.4 718.81c.14.31.31.77.37 1.1.26 1.44.11 3.03-2.64 3.13m-.85-5.25c.41-.15.78-.22 1.11-.23" class="st0"/><ellipse cx="198.66" cy="720.41" class="st61" rx=".77" ry="1.14" transform="rotate(-10.12 198.774 720.746)"/><ellipse cx="233.19" cy="718.56" class="st0" rx="2.65" ry="1.8" transform="rotate(-79.88 233.15 718.532)"/><path d="M230.08 719.64c.22.83.92 1.48 2.65 1.54m.84-5.25c-.57-.2-1.08-.26-1.49-.21" class="st0"/><ellipse cx="233.19" cy="718.56" class="st61" rx="1.14" ry=".77" transform="rotate(-79.88 233.15 718.532)"/><path d="M203.11 720.2s.64.48.89.18c.39-.48-.25-1.97-.25-1.97" class="st10"/><path d="m190.53 712.83-.75-2.76s-.3-1.87.4-1.99 1.07 1.1 1.21 1.92.35 1.63.63 1.87 1.61.7 1.63.82.3 1.47-.14 1.35-2.97-1.12-2.99-1.21Z" style="mix-blend-mode:multiply;fill:#b39848;opacity:.72"/><path d="M196.09 713.61s-2.08.51-2.34.49-2.94-1.05-3.08-1.19-1.03-3.62-1-3.62c0 0-.16-1.14.91-1.33s6.66-.98 6.66-.98 1.42-.26 1.59.75c.07.45.14 2.41.14 2.41s2.34.28 2.34 1.31" class="st33"/><path d="m204.81 713.37 1.65-1" class="st9"/><ellipse cx="199.54" cy="709.18" class="st8" rx="1.55" ry="1.36" transform="rotate(-60 199.542 709.183)"/><path d="M201.19 711.5c.12.07-1.55-2-1.55-2l.61-1.63m-.61 1.62-1.21.57m2.4-.54-1.07-.03" class="st8"/><ellipse cx="189.29" cy="717.65" class="st3" rx="1.38" ry="2.03" transform="rotate(-10.12 189.4 717.981)"/><path d="M193.87 707.45c.07.05.79.69.86 3.39 0 0 1.86.99 1.93 1.1s.05.84.05.84m-1.24-5.61c.07.05.79.69.86 3.39 0 0 1.86.99 1.93 1.1s.07.67.07.67" class="st19"/><path d="M191.64 718.56c-.19.6-.74 1.05-2 1.1" class="st3"/><ellipse cx="189.29" cy="717.65" class="st61" rx=".59" ry=".87" transform="rotate(-10.12 189.4 717.981)"/><path d="M209.07 716.33s-.28.07-.79.18-.58-.49-.72-.56-1.58.51-2.01.7-.47.96-.65 1.26-3.8 1.03-4.38.61-1.49-2.45-2.96-1.77-1.37 3.63-1.37 3.63l-4.96-2.08s-.94-2.96-2.12-3.31c-.93-.28-1.28.65-1.28.65" class="st28"/><path d="M188.53 712.9s4.64 1.8 4.78 1.87.63 2.79.75 2.89 1.47.51 1.47.51m.04.54s.04-4.94.89-5.55 4.48-1.63 6.52-2.03 3.03.42 3.33.72" class="st28"/><path d="M207.13 712.11c-.67-.42-1.47.14-1.47.14m.17 1.17s1.3-1.26 1.87-1.38 1.19.56 1.19.56m-4.16 1.63s-1.23.74-1.7.82m-6.67-1.75s2.28 1 3.03 1.68 2.45.67 3 .39m-9.03-.62s2.15-.47 2.55-.51" class="st28"/><path d="m218.1 722.41 1.01.19m-1.03-.94 1.01.19" class="st5"/><path d="M189.82 708.46c.58-.62 1.22.08 1.43.66.2.84.24 1.83.61 2.61 0 .03.17.09.25.13.19.1.72.34.92.43.5.26.66.31 1.22.12l5.24-1.32c.11-.03.22.04.25.15s-.04.23-.15.25l-5.33 1.2c-.24.03-.4.14-.71.11-.39-.15-.87-.42-1.24-.6-.21-.13-.45-.18-.63-.36-.6-1.09-.13-2.53-1.05-3.41-.24-.21-.54-.13-.75.08-.04.05-.12-.03-.07-.07Z" style="fill:#8e7939"/><path d="M196.42 716.03c-.05-.07.16-13.94.16-13.94m10.33 9.62-.86-3.43s-1.71-2.62-1.82-3.27-.3-3.62-.3-3.62" class="st17"/><path d="M189.37 702.32s6.73-.02 7.08.05 8.5-.49 8.48-.77-.54-1.15-3.71-1.63c-5.21-.79-12.12.79-11.84 2.36Z" style="fill:#cddba7"/><path d="M188.6 713.84c.07-.12 1.35-11.23 1.35-11.23" class="st17"/><path d="M226.73 714.62s.11-1.23.93-1.49 1.68-.37 1.75-.82.37-1.68.88-1.87 1.02-.3 1.02.33-.82 3.47-1.23 3.57-2.56.74-2.77.75-.74-.14-.58-.47" style="mix-blend-mode:multiply;fill:#b39848;opacity:.49"/><path d="M190.53 701.72s6.49-2.8 13.66-.56" class="st9"/><path d="M189.51 702.32s6.73-.02 7.08.05 8.5-.49 8.48-.77-.54-1.15-3.71-1.63c-5.21-.79-12.12.79-11.84 2.36Z" style="fill:none;stroke-linejoin:round;stroke-linecap:round;stroke-width:.41px;stroke:#a2ad84"/><path d="m208.44 718.62.57-.16m-6.95 1.97 1.41-.41m4.81-2.38.4-.11m-6.79 1.91 1.2-.32" class="st10"/><path d="M208.67 714.36c-.04-.15-.08-.31-.11-.46v-.04h-.07c-.45 0-.81.39-.81.88s.36.88.81.88c.2 0 .38-.08.52-.21-.13-.34-.24-.69-.34-1.04Z" class="st67"/><path d="m222.84 721.29 7.73-2.03s-.29-4.03 2.51-4.07" class="st7"/><path d="M208.56 713.9v-.04h-.07c-.45 0-.81.39-.81.88s.36.88.81.88c.2 0 .38-.08.52-.21" class="st22"/><path d="M221.81 713.9s4.52 1.19 4.97 1.26 3.15-.67 3.54-1.05 1.1-2.58.96-3.73-5.99-1.94-7.39-2.17c-1.83-.3-2.12 2.68-2.12 2.68s-2.82.19-3.05 1.16" class="st33"/><path d="M220.31 709.8c.05.12.44 1.12.44 1.12s-1.17 1.59-1.24 1.59" class="st8"/><path d="m211.86 711.22 1.1.45 4.53.53 2.75 1.38" class="st9"/><path d="M220.31 712.76s-.47-1.19 2.62-1.56c0 0 .4-2.83 1.99-2.85m-2.71 5.33s-.21-1.73 2.87-2.1c0 0 .07-2.83 1.66-2.85m-2.32 5.88s-.28-2.15 2.8-2.52c0 0 .07-2.83 1.66-2.85" class="st19"/><ellipse cx="220.89" cy="720.9" class="st0" rx="2.65" ry="1.8" transform="rotate(-79.88 220.845 720.876)"/><path d="m209.36 717.67 2.57.77s2.1 1.1 2.22 1.14 3.36.23 3.36.23" style="fill:none;stroke-linejoin:round;stroke-linecap:round;mix-blend-mode:screen;stroke:#cddba7;stroke-width:.55px;opacity:.51"/><path d="M217.8 721.94c.15.93.76 1.52 2.63 1.59m-.67-5.43c.45-.09.86-.05 1.51.18" class="st0"/><ellipse cx="220.89" cy="720.9" class="st61" rx="1.14" ry=".77" transform="rotate(-79.88 220.845 720.876)"/><path d="M211.09 711.8c.18-.65.74-.91.74-.91.3.04 1.14.39 1.14.39s4.34.44 4.82.58 3.68 1.59 3.98 1.91 1.7 3.84 2.17 5.66l2.95-.51s.55-2.73.72-2.92c.65-.72 6-2.25 6.49-1.89.31.22.55 1.7.55 1.7m-26.18-2.25c0 .25 1.07 3.38 1.07 3.38" class="st7"/><path d="M221.63 713.81s-2.03.26-2.12.4-2.51 2.31-2.51 2.31l-5.12-.81-3.5-2.43m-.01 0s.75-.91 1.38-.98 1.87.81 1.93.81m-1.52-.91s.68-.42 1.28-.44 2.66 1.21 2.66 1.21l2.08.16m-6.72 3.59s-.68.67-.65.82.44 1.3.72 1.45 1.75.49 1.86.56 1.68 1.26 2.01 1.42 3.35.89 3.56.89 1.52-.28 1.52-.67-.18-1.89-.53-1.87-2.77.04-2.96 0-2.07-.95-2.36-1.09-2.87-1.05-2.93-1.02" class="st7"/><ellipse cx="202.5" cy="716.89" class="st67" rx=".81" ry=".88"/><ellipse cx="215.82" cy="717.9" class="st67" rx=".81" ry=".88"/><ellipse cx="210.16" cy="716.08" class="st67" rx=".54" ry=".88" transform="rotate(-23.31 210.123 716.014)"/><path d="M218.47 719.98s.75-2.01 1.78-2.64 1.24.35 1.24.35m5.94-1.59-4.8-1.28" class="st7"/><path d="M233.02 714.48 232 703.74" class="st17"/><path d="M231.22 710.31s-1.27.02-1.44.56-.44 1.82-.44 1.82-2.01.43-2.23.64-.43 1.76-.43 1.76" class="st33"/><path d="M228.78 712.8s-5.93-1.96-6.95-1.9" class="st33"/><path d="m222.05 716.88 3.42-13.42" class="st17"/><path d="M216.9 701.57s8.71 2.16 9.11 2.2 4.01.23 5.41.25 2.51-.06 2.21-.4-2.78-2-4.29-2.51-9.12-1.48-9.54-1.42-1.61.42-2.07.64-1.78.96-.83 1.25Z" class="st40"/><path d="M219.17 700.18s8.99 1.14 10.56 1.59 2.8 1.52 2.8 1.52" class="st9"/><path d="M216.76 701.5c.12.04 8.41 2.1 10.37 2.31s6.41.21 6.45-.07-1.86-1.86-3.19-2.35-9.6-1.68-10.72-1.68-3.75 1.54-2.91 1.79" class="st7"/><path d="M203.56 719.96s-.12-.61-.44-.84" class="st10"/><path d="M192.19 707.8s.56.02.98 3.38c0 0 1.91.77 2.01 1.09s.07 1.31.07 1.31" class="st19"/><ellipse cx="202.5" cy="716.89" class="st22" rx=".81" ry=".88"/><ellipse cx="215.82" cy="717.9" class="st22" rx=".81" ry=".88"/><ellipse cx="210.16" cy="716.08" class="st22" rx=".54" ry=".88" transform="rotate(-23.31 210.123 716.014)"/><ellipse cx="220.76" cy="710.99" class="st8" rx="1.19" ry="1.38"/><path d="m221.95 711.41-1.1-.49" class="st8"/><path d="M180.92 724.74s-.47.26-.58 1.12-.3 1.44.46 1.58 3.5.05 3.7-.56-.49-1.58-1.31-1.87-2.26-.26-2.26-.26Zm-5.18-.38c-.07.04-1.09.6-1.35.88s-.53 1.38-.09 1.72 2.21.61 3.21.47 1.05-.61.77-1.21-2.1-2.12-2.54-1.86" style="fill:#88bfd9"/><path d="M174.93 720.1s-.3 4.06-.58 4.83c0 0 .37.14 1.05.28s1.56.11 1.68.11.47-.02.47-.02l.96-2.61.82-.16s.84 2.4 1.03 2.8 3.05-.18 3.01-.32-.89-3.82-1.1-4.13-.05-.37-.35-.58-7.01-.21-7.01-.21Z" style="fill:#8c78de"/><path d="M174.44 719.84s.37-2.91.39-2.86-.32.12-.61.04-.77-.61-.74-1.02.19-1.93.75-2.24 3.5-.58 3.5-.58 3.85.63 3.91.56 2.91.7 2.94.75.14.61.12 1.17-.23 1.24-.47 1.51-.58.32-.65.25-.4-.23-.4-.23l-.35 1.51-.04 1.82s-.98.98-3.22 1.09-5.13-1.77-5.13-1.77" style="fill:#f7d57e"/><path d="M184.97 714.37c-.02.05 1.7-.23 1.77-.33s.16-1.52.53-1.61.67.4.65.7-.11.86-.11.93.18.26.23.21.56.07 1.09-.07 1.28-.32 1.37-.16.09.16-.25.4-1.09.68-1.09.68.35.16.6.16 1.1.11.98.35-.4.35-.7.39-1.05.04-1.05.04l.81.63s.33.4-.05.44-1 0-1.14-.07-.33-.28-.33-.28.3.93.02.95-.53-.05-.58-.28-.21-.4-.21-.49-.19-.23-.4-.33-.33-.33-.33-.33l-2.12.26s.09-1.38.05-1.63l-.04-.25.32-.3Zm-10.16 0s-1.02-.18-1.4-.18-.56-.14-.56-.14l-.25-1.37s-.05-.28-.53-.14-.51.58-.47.74.14.84.14.84-.07.21-.12.18-1.07-.05-1.38-.16-.79-.18-1-.11-.18.32 0 .42 1.09.46 1.16.51.16.21-.12.25-1.07.07-1.17.11-.3.18-.18.42.51.39.82.35l.93-.12s-.53.37-.74.54-.35.44-.21.56.61.11.89.05.77-.35.77-.35-.35.95-.11.95.53-.21.61-.44.25-.39.28-.47.42-.14.56-.3.23-.21.23-.21 1.63.16 1.7.19.3.02.32-.19.32-1.51-.18-1.93Z" class="st64"/><path d="M174.41 725.09s-.4 1.35-.39 1.66 1.51 1.03 3.84.67c1.38-.22.07-1.96-.28-2.05" class="st26"/><path d="M180.44 725.51s-.25 1.28-.19 1.57 1.61.76 3.88.14c1.34-.37-.41-2.06-.77-2.1" style="fill:none;stroke-linejoin:round;stroke-linecap:round;stroke:#5a8da6;stroke-width:.31px"/><path d="M185.02 714.2c.54 0 1.12-.1 1.66-.22l-.12.12c.1-.47.19-.91.23-1.38.13-.79 1.26-.39 1.27.25.04.36-.02.67-.1 1v-.09c.08.24 0 1.08-.32.99a.06.06 0 0 1 0-.08c.14-.24.1-.56.02-.82.02-.31.15-.66.09-.96 0-.25-.26-.43-.47-.42-.26.04-.15.44-.22.64-.1.31-.04.87-.3 1.06-.28.07-.57.12-.86.16-.24 0-1 .24-1.05-.1 0-.09.08-.17.18-.16Z" class="st66"/><path d="M181.3 715.1s.11 1.23-.18 2.28" class="st13"/><path d="M178.04 713.51s1.05 2.47 1.16 2.59 2.05-.86 2.05-.86l1.14.95s.49-.6.58-.89" class="st13"/><path d="M184.72 716.48s1.35-.12 1.89-.23" class="st24"/><path d="M174.97 720.41s-.19 3.01-.63 4.64c0 0 1.98.53 3.24.25m.98-2.84s-.84 2.35-.95 2.84m.99-2.6s.89-.12 1.63-.53m2.15-1.08s.77 2.42 1.03 3.91m-4.08-2.37s.89 1.58 1.05 2.68c0 0 2.35.25 3-.26" style="fill:none;stroke-linejoin:round;stroke-linecap:round;stroke-width:.32px;stroke:#523ea3"/><path d="M186.64 715.88c.09.39.43.57.8.68.05.02.09.06.11.11.11.4.34.91.68.92.08-.02.05.02.07-.05 0-.3-.2-.62-.34-.89-.1-.16.15-.33.26-.18.37.42 1.05.67 1.58.51.15.06-.1-.26-.4-.38-.29-.19-.53-.4-.78-.63-.07-.06-.07-.16-.01-.23.05-.05.13-.07.19-.04.5.23 1.45.36 1.8-.07.03-.03-.04-.12-.19-.16-.52-.06-1.13.06-1.63-.28-.12-.06-.09-.26.04-.29.49-.13 1.16-.26 1.5-.63.06-.06 0-.16-.14-.18-.71.03-1.53.48-2.32.37-.21-.02-.17-.34.03-.32.82.1 1.47-.36 2.33-.37.25 0 .58.36.37.66-.44.53-1.09.6-1.7.78l.05-.29c.54.4 1.31-.03 1.85.41.46.61-.57.94-1.02.91-.39 0-.76-.09-1.12-.24l.18-.26c.37.46 1.19.67 1.32 1.2-.05.58-.95.42-1.31.32-.34-.12-.63-.31-.88-.58l.26-.18c1.12 1.78-.61 1.93-1 .26l.12.12a1.12 1.12 0 0 1-.64-.32c-.15-.12-.38-.68-.13-.74.03 0 .05.04.05.07Z" class="st66"/><path d="M184.72 714.73c-.02.09.23 1.75-.54 2.52-.61.61-1-.16-1-.16m-5.51-3.99s-1.9.21-3.43.67m8.98 2.07s-.05 1.72-.4 2.72v1.89s-.81 1.05-2.58 1.16-4.8-.79-5.83-1.73l.44-2.79m-1.13-2.84c.15-.28.36-.46.58-.46.46 0 .84.74.84 1.65s-.38 1.65-.84 1.65c-.28 0-.54-.28-.69-.7" class="st13"/><path d="M174.31 717.08s1.19-.21 1.84-.4" class="st13"/><path d="M176.12 716.51c.3-.07.62-.29.74-.62 0-.03.04-.04.07-.03.09.39-.35.8-.71.96-.08.04-.18 0-.21-.08-.04-.1.02-.21.12-.22Z" style="fill:#99700a"/><path d="M174.86 714.51c-.7.02-1.38-.06-2.05-.22-.06-.01-.1-.06-.11-.12l-.16-.94-.08-.46c-.08-.39-.65-.06-.63.24-.06.3.07.65.09.96-.09.26-.13.58.02.82.02.03 0 .07-.02.09-.38-.09-.36-.69-.31-1.01v.09c-.08-.32-.15-.64-.1-1 0-.65 1.15-1.04 1.27-.25.05.29.18 1.08.23 1.38l-.12-.12c.64.15 1.31.23 1.96.21.21 0 .22.32 0 .32Z" class="st66"/><path d="M174.85 716.48s-1.35-.12-1.89-.23" class="st24"/><path d="M174.31 713.79c.46 0 .84.74.84 1.65s-.38 1.65-.84 1.65" class="st13"/><path d="M173.06 715.86c.13.51-.4.95-.86 1.01l.12-.12c-.38 1.67-2.11 1.53-1-.26l.26.18c-.5.53-1.22.81-1.94.6-.58-.26.02-.81.35-.95.25-.16.5-.38.73-.59l.18.26c-.54.22-1.14.34-1.71.15-.55-.13-.85-.77-.13-.98.53-.1 1.08.07 1.54-.24l.05.29c-.61-.18-1.26-.25-1.7-.78-.21-.29.12-.67.37-.66.86 0 1.5.47 2.33.37.09-.01.17.05.18.14s-.06.17-.14.18c-.43.04-.84-.03-1.23-.14-.38-.09-.78-.25-1.09-.23-.39.12.05.36.26.46.34.16.73.27 1.1.35.53.38-.87.6-1.1.55-1.09-.09-.7.46.14.46.33 0 .69-.09.99-.22.16-.07.3.15.17.27-.25.22-.49.44-.78.63-.29.12-.54.43-.4.38.53.17 1.21-.09 1.58-.51.12-.15.36.02.26.18-.14.28-.33.59-.34.89.02.07-.02.04.07.05.33-.02.57-.53.68-.92.02-.05.06-.1.11-.11.38-.11.73-.3.81-.69.01-.07.12-.07.14 0" class="st66"/><path d="M174.14 726.5s1.26.61 4.25.26m1.84-.1s1.14.61 4.32-.12" class="st26"/><path d="M176.54 725.77s.68-.4 1.33-.19m-1.1.52s.68-.4 1.33-.19m4.17-.5s.68-.4 1.33-.19m-1.11.52s.68-.4 1.33-.19" style="fill:none;stroke-linejoin:round;stroke-linecap:round;stroke-width:.27px;stroke:#fff"/><path d="M185.41 702.07c.09.16.85 1.97.92 3.74s-.31 4.92-.54 6.13-1.03 3.64-2 3.97-3 .28-4.54-.23-2.77-1.72-3.23-2.36-1.15-2.28-1.15-2.28-1.46.41-2.49-.38-1.46-2.38-1.03-3.2 2-.46 2.13-.36.69-.41.72-.77.92-2.79.92-2.79 2-2.08 2.9-2.46 3.56-1.36 3.85-1.31 2.79 1.03 3.54 2.31Z" class="st64"/><ellipse cx="180.34" cy="706.71" class="st44" rx="1.62" ry="1.65"/><ellipse cx="184.99" cy="705.98" class="st44" rx="1.19" ry="1.42"/><path d="M179.45 712.77s.02-.6.25-.92.44-.65.44-.65.38.12.44.08 2.63-.1 2.63-.1.25.02.25-.15.29-.67.29-.67.75.63.79 1.31-.37 1.73-.54 1.75-.52.02-.52.02v-.96s-.33-.65-1.88-.29-2.12.96-2.12.96l-.04-.37Z" style="fill:#542121"/><path d="M180.13 711.06c.08.06.77.08 1.88.12s1.5-.08 1.5-.25.02-.73.02-.73-.4-.38-1.42-.25-1.98 1.12-1.98 1.12Zm3.25 2.07s.44-.96.04-1.06-2.23 0-2.73.25-1.31.42-1.19.81.62.79 1 .67 1.17-.65 1.71-.75 1.08.13 1.17.08" class="st44"/><ellipse cx="174.19" cy="699.06" class="st50" rx=".81" ry=".72" transform="rotate(-30 174.19 699.054)"/><path d="M172.2 706.47c.02-.06.29-.78.91-1.49s2.53-1.09 2.65-.24.18 1.37.31 1.64.18.22.13.51-.42.69-.37 1.37.01 1.08-.21 1.08-.71-.12-.91-.59-.38-.96-.79-1.19-1.12-.56-1.38-.55-.4-.38-.33-.54Z" style="fill:#acabab"/><path d="M172.62 706.76c.03-.05 1-1.12 1.31-1.5s.75-.65 1.12-.71 2.71-.79 3.46-1.48 2.29-2.13 3.17-2.42 2.33 0 2.92.54.87 1.4 1.37 1.17 1.63-1.38 1.6-2.25-.88-2.19-3.08-1.87c0 0-1.48.29-1.83.5s-.46.06-.94-.15-2.52-1.13-4.86-.63-4.6 2.67-4.98 3.77-.87 2.79-.6 3.63.71 2.38 1.35 1.4Z" style="fill:#879ded"/><path d="M184.83 701.42s1.23 1.12 1.46 4.08c.18 2.33-.26 7.46-1.6 9.65-.36.59-.91.88-1.38.95-6.3.95-8.33-4.68-8.45-5.26" class="st30"/><path d="M183.16 705.57c.04.55.03 1.48.69 1.63l1 .22c1.62.29 1.37 1.96-.06 2.32-.71.16-1.47.15-2.12-.35-.08-.06-.09-.17-.03-.25.07-.09.2-.08.28 0 .74.59 3.04.36 2.62-.96-.43-.6-1.69-.44-2.22-1.06-.29-.47-.26-1.03-.21-1.55 0-.05.08-.04.08 0Z" class="st66"/><path d="M182.77 709.42c-.28.03-.57.02-.82-.19-.42-.43-.2-1.35.44-1.29.2-.02.78.32.6.54-.04.02-.08 0-.1-.05-.16-.35-.84-.44-.88.05-.09.48.26.72.7.6.23-.05.3.32.06.35Z" class="st66"/><ellipse cx="180.4" cy="706.74" class="st30" rx="1.66" ry="1.67"/><ellipse cx="184.9" cy="706.12" class="st30" rx="1.21" ry="1.42"/><path d="M176.06 707.21s.35-.4.06-.81-.46-1.5-.37-2" class="st27"/><path d="M180.93 700.87s1.54-1.41 2.56-1.83 2.38-.22 3.12.21 1.13.99.77 1.68-1.59 1.73-1.97 1.29-.97-1.41-2.09-1.62-2.38.27-2.38.27Z" style="mix-blend-mode:multiply;opacity:.28;fill:#879ded"/><ellipse cx="181.48" cy="707.11" class="st66" rx=".6" ry=".63"/><ellipse cx="185.38" cy="706.57" class="st66" rx=".6" ry=".63"/><path d="M181.4 708.25c-.54.54-1.37.81-2.08.83.62-.28 1.48-.41 1.97-.93.06-.07.18.03.11.1m3.72-.73c.33.18.71.38 1.08.34.03 0 .06.01.06.04-.04.29-1.71-.33-1.14-.38m-6.97-3.54s.76-.59 1.54-.5 1.56 1.2 2.4 1.18.28-1.27-.17-1.65c0 0 .08.5-.32.4s-1.37-.91-2.1-.71-1.35 1.28-1.35 1.28m5.07.31s.26.27.26.59.32.59.77.19 1.17-1.78 1.88-1.2c0 0-.13-.85-.86-.76s-1.15 1.17-1.32 1.37-.46-.19-.73-.19" class="st66"/><path d="M182.57 709.94s-1.5-.04-2.55 1.28c-1.28 1.6-.33 3.08.75 2.4s2.08-.75 2.6-.31 1.22-.38 1.13-1.69c-.1-1.4-1.26-1.69-1.93-1.69Z" class="st30"/><path d="M179.54 713.01s.45-.47.96-.63 2.96-.45 3.09-.22-.1 1.06-.1 1.06m.19-2.98s-.05.71-.22.9-3.03.12-3.23-.04" class="st30"/><path d="M172.56 706.9s1.06-1.75 4.02-4.29 5.56-3.69 5.56-3.69-4.04-2.85-8.23.6-2.44 6.98-2.02 7.42" class="st18"/><path d="M174.21 704.67c1.19-.32 2.38-.74 3.46-1.32 2.16-1.19 3.51-3.72 6.01-4.44 1.19-.43 2.74-.23 3.52.84.02.03-.02.07-.05.04-.43-.44-1-.74-1.6-.83-3.37-.37-5.14 3.25-7.71 4.71-.3.24-4.55 2.02-3.63 1" class="st50"/><path d="M182.04 698.98s2.22-1.16 4.31-.58 1.44 3.4-.71 4.02" class="st18"/><path d="M180.84 700.92s3.08-1.44 4.67 1.4" class="st18"/><path d="M174.4 708.05s-.98-1.33-2.58-.94-.27 5.02 3.08 3.86" class="st30"/><path d="M174.52 709.9c.05.07-.01.29-.2.26-.34-.07-.66-.19-.9-.46-.33-.35.24-.65.28-.92-.04-.47-.84-.83-1.26-.68-.36.09-.51.51-.37.87.05.12-.14.19-.18.07-.42-1.19.98-1.54 1.74-.85.17.13.39.33.35.64-.04.28-.23.45-.34.6-.06.02.04.13.22.23.12.08.4.15.46.17-.11 0-.18.21-.12.24-.11-.2.22-.36.32-.16Z" class="st66"/><path d="M174.25 699.24s-.37 2.25 1.54 3.85m.19-4.79s2.81-1.12 4.73 1.4m-7.56.51s-2.25 2.73-.04 5.83" style="fill:none;stroke-linejoin:round;stroke-linecap:round;stroke-width:.3px;stroke:#657ccf"/><path d="M176.19 706.97s-.49.9-.36 1.95-1.29.15-1.4-1.12" class="st27"/><path d="M178.57 713.06c.16.71.6 1.38 1.38 1.41.05 0 .09.05.08.1-.57.38-1.64-.36-1.61-1.5 0-.09.13-.1.14-.01Zm3.63-4.9c-.88.7-1.69 1.54-2.39 2.39.38-1.07 1.34-1.92 2.29-2.53.09-.05.17.08.1.14" class="st66"/><path d="m236.07 724.62-1.37.75s-.7.68-.32.98 1.4.33 1.82.35 2.7-.58 2.7-.58-.23-1.45-.25-1.51-2.17-.37-2.59 0Zm4.94.16-1.37.75s-.7.68-.32.98 1.4.33 1.82.35 2.7-.58 2.7-.58-.23-1.45-.25-1.51-2.17-.37-2.59 0Z" style="fill:#77b8b8"/><path d="M235.82 720.43c-.06.06.02 2.1 0 2.91s.11 1.31.11 1.31l2.89.11.33-2.54.79.23.3 2.26s3.68.28 3.68.23-.42-4.73-.42-4.71-7.01-.46-7.67.21Z" style="fill:#c9a561"/><path d="m234.6 716.16 1.17.19-.02.67-.02 3.21s.95.18 3.71.25 4.15-.28 4.22-.26-.12-1.96-.12-1.96-.07-2.36-.04-2.38.7-.33.79-.28-.09-.93-.91-1.51-2.15-1.16-2.15-1.16-3.52.47-3.8.56-2.05 1.7-2.05 1.7l-.79.98Z" style="fill:#a7e346"/><path d="M236.07 724.67s-1.97.92-1.82 1.44c.35 1.19 4.33.16 4.52.11s-.02-1.51-.02-1.42m2.22.05s-1.97.92-1.82 1.44c.35 1.19 4.33.16 4.52.11s-.02-1.51-.02-1.42" style="fill:none;stroke-linejoin:round;stroke-linecap:round;stroke-width:.32px;stroke:#4a8080"/><path d="M235.91 720.33s-.39 1.68.05 4.35l2.89.14m.32-2.55s-.32 1.67-.28 2.51m-.84-3.24s.95.77 2.29.95" class="st12"/><path d="M239.89 722.5s.19 1.35.42 2.21l3.66.28c-.35-1.24-.47-4.69-.47-4.69" class="st12"/><path d="m235.75 716.44-.95-.25s-.79 1.31-.72 1.86.54 1.1 1.59 1.14 3.28-1.42 3.28-1.42l2.31 1.3s1.72.58 2.56.02.81-1.21.75-1.63-.47-1.68-.47-1.68l-2.05.28s-.12-.23-.3-.19-.51-.02-.6 0-.46-.05-.54-.07-.47.07-.56.09-.63.23-.63.23-1.54-.16-2.15.09-1.51.65-1.51.65l-.02-.4Z" class="st64"/><path d="M235.79 717.06c.07-1.09.13-1.97.4-2.33m7.6 4.39c0 .65-.01 1.09-.01 1.09s-5.17.61-8.04.05c0 0-.01-.44 0-1.08" class="st2"/><path d="M234.88 716.32c-.42.53-.81 1.19-.81 1.82 0 1.37 2.1 1.09 3.05.63s1.79-.91 1.79-.91" class="st24"/><path d="M235.85 717.09s2.08.11 3.66 1.02 3.4 1.96 4.66.7c.67-.67.53-1.86 0-2.97m-8.31 1.19s.63-.78 2.56-.91c.6-.04 1.12.01 1.56.1" class="st24"/><path d="M235.81 716.41c-.14-.05-1.2-.23-1.2-.23s.52-.91 1.47-1.45m5.24-1.8s1.65.63 2.28 1.38.79 1.26.79 1.26l-2.22.54s-.68-.93-.93-1" class="st2"/><path d="M239.62 716.12s.58-.61 1.19-.18.16 1.51-.25 1.16-.53-.79-.53-.79" class="st24"/><path d="M240.8 715.89s.68-.25 1.02.35c.26.46-.07 1.3-.75.75" class="st24"/><path d="M241.62 715.98s.49-.07.75.32.11 1.21-.61.82" class="st24"/><path d="M242.34 716.16s.49.11.61.74-.53.32-.53.32" class="st24"/><ellipse cx="243.71" cy="698.88" class="st57" rx=".85" ry="1.01" transform="rotate(-55.19 243.702 698.878)"/><path d="M242.55 710.65s-1.12 2.19-1.08 2.15.41.3 1.49.12 1.47-.95 1.41-1.21-1.59-1.41-1.83-1.05Z" class="st62"/><path d="M235.19 700.4s-3.12 1.08-4.05 3.39-.89 4.86-.46 6.91 1.95 3.81 4.06 4.39c2.65.72 5.17-.5 6.17-1.62s1.72-2.88 1.72-2.88.81 1.08 2.08.93 2.85-1.81 2.55-2.93-1.2-1.74-2.31-1.27-1.74-1.08-1.74-1.08l-.62-2.62s-4.36-4.09-7.41-3.2Z" class="st64"/><path d="M241.58 712.88s2.15.82 2.88-1.26" class="st4"/><path d="M235.35 700.42c.19.08-2.85.15-4.24 3.5s-.67 7.22.27 8.8c.89 1.48 2.17 2.27 3.73 2.52 6.33 1 7.84-5.12 7.84-5.12" class="st15"/><path d="M232.98 707.42q.195-.255.42-.48c.14-.15.27-.31.43-.45.11-.1.23-.21.37-.27-.08-.79-.81-1.42-1.71-1.42-.95 0-1.72.7-1.72 1.56s.77 1.56 1.72 1.56c.09 0 .18 0 .26-.02.03-.17.12-.34.23-.48" class="st44"/><path d="M242.33 704.07s.15 1.12-.15 1.97-.73 2.89.08 3.01 1.2-.62 1.31-1.16 2.08-.77 2.2-.77-.27-.69-.27-.69-2.51-2.93-2.43-2.82-.73.46-.73.46Z" class="st62"/><path d="M233.03 711.59s1.93-.96 4.21.66" class="st15"/><path d="M246.1 707.31s-2.22-3.01-2.49-3.23-.46-.32-.46-.32-2.11.1-3.92-.84-3.81-2.49-3.74-2.49-.53.08-1.56.49-1.93 1.43-1.97 1.41-1.83-.75-2.25-2.22.28-2.47 1.56-2.61 3.6.77 3.82.87.91.4.91.4 1.66-1.07 3.82-1.04 4.05 1.36 4.86 1.86 1.57 1.43 2.13 2.48.45 2.02.45 2.58-.6 2.17-.63 2.21-.19.41-.19.41l-.33.03Z" style="fill:#64e8e8"/><path d="M231.95 702.33s-2.87-2.01-1.37-3.51 4.75 1.52 4.89 1.61-1.61.5-2.04.71-1.49 1.2-1.49 1.2Z" style="mix-blend-mode:multiply;fill:#64e8e8"/><path d="M234.54 706.01s-1.52.93-2.11 2.42c-.46 1.16.22 1.54.76 1.47s1.66-.46 1.66-.46" class="st15"/><path d="M234.58 708.28c1.54-1.02 2.3 1.5.3 1.33-.23 0-.22-.36.01-.35 1.6.26.94-1.63-.25-.88-.06.04-.13-.05-.07-.09Z" class="st66"/><path d="M243.1 703.68s1.79 1.64 2.97 3.57" class="st25"/><ellipse cx="237.16" cy="706.77" class="st44" rx="1.66" ry="1.55"/><path d="M235.58 708.08c.78.32 1.28 1.1 1.5 1.87-.45-.66-.95-1.26-1.57-1.76-.06-.05 0-.15.07-.12Zm-2.36 1.95c-.33.28-.24.77-.34 1.1-.14-.34-.03-.92.25-1.21.03-.03.08-.03.11 0 .04.03.03.09-.01.12Z" class="st66"/><path d="M238.86 706.9c0 .95-.81 1.36-1.72 1.36s-1.59-.41-1.59-1.36.74-1.72 1.66-1.72 1.66.77 1.66 1.72Z" style="fill:none;stroke-linejoin:round;stroke-linecap:round;stroke:#211b18;stroke-width:.32px"/><path d="M235.87 698.76s2.14-1.68 5.21-.87 5.38 2.8 6.06 4.78-.73 4.75-.73 4.75" class="st25"/><ellipse cx="236.43" cy="707.02" class="st66" rx=".77" ry=".87"/><path d="M232.56 707.95c-.89 0-1.68-.56-1.68-1.51s.72-1.72 1.61-1.72c.83 0 1.51.66 1.6 1.52" style="fill:none;stroke-linejoin:round;stroke-linecap:round;stroke:#211b18;stroke-width:.31px"/><ellipse cx="231.76" cy="706.56" class="st66" rx=".77" ry=".87"/><path d="M231.2 704.63c.05 0 .89-.09 1.47.37s1.04.94 1.36.78.06-1.7-.01-1.75-.36.19-.36.19-.59-.44-1.21-.4-1.25.8-1.25.8Zm3.93.77c.21.54.89.54 1.23.31s1.72-.9 2.08-1.07.84-.09.84-.09-.5-.66-1.09-.71-2.44.63-2.44.63l-.1-.32s-.86.37-.51 1.25Zm.88 2.33c.52.63 1.48.77 2.2.94-.82.11-1.78-.15-2.45-.74-.06-.06-.07-.16 0-.22.07-.07.19-.06.25.02m-3.27.24c-.16.16-1.24.79-1.26.61.43-.17.81-.45 1.13-.76.1-.1.24.07.13.15m4.68 5.17c.97-.46.46-1.17.33-1.97-.02-.06.08-.1.11-.04.22.51.68 1.33.15 1.79-.16.13-.42.3-.6.25 0-.01 0-.03.02-.03Z" class="st66"/><path d="M243.47 708.11s1.12-1.08 2.44-.84 1.85 1.85.9 2.98-3.02 2.17-3.97.39" class="st15"/><path d="M243.76 710.05c.59-.36.87-.43.3-.76-.18-.07-.24-.4-.08-.53.61-.88 2.55-1.62 2.46.01-.01.07-.12.06-.12-.01 0-.19-.05-.4-.17-.52-.64-.51-1.54.28-1.9.76.87.57.32 1.03-.42 1.19-.08.03-.13-.09-.06-.13Z" class="st66"/><path d="M245.63 708.75c.98.3.24 1.56-.49 1.7-.18.07-.8.05-.8-.19.02-.04.06-.05.1-.04.79.3 1.97-.8 1.19-1.47" class="st66"/><path d="M243.1 703.68c-.52-.64-4.53-3.66-8.1-5.32-3.38-1.57-5.42-.75-5.52.98s2.55 3.01 2.55 3.01 1.62-1.79 3.43-1.89" class="st25"/><path d="M242.31 703.95s.27 1-.1 2.01-.56 2.8-.17 3.09c.63.47 1.5-.41 1.47-1.29" class="st4"/><path d="M230.22 699.5c0-1.56 2.26-1.25 3.2-.72 3.02 1.8 5.84 5.16 9.63 4.76.23-.09.37.27.11.34-2.64.46-4.9-1.21-6.91-2.63-1.66-1.12-3.34-3.21-5.53-2.44-.25.13-.44.39-.46.69 0 .02-.03.02-.03 0Z" class="st57"/><circle cx="211.44" cy="698.59" r="2.66" class="st69"/><circle cx="211.13" cy="691.72" r="2.66" class="st69"/><circle cx="210.5" cy="685.65" r="2.66" class="st69"/><circle cx="207.36" cy="680.92" r="1.53" class="st69"/><circle cx="209.3" cy="677.97" r="2.46" class="st69"/><circle cx="206.86" cy="689.59" r="3.62" class="st69"/><circle cx="207.62" cy="696.38" r="3.89" class="st69"/><circle cx="209.27" cy="701.6" r="2.03" class="st69"/><path d="M207.68 699.8s-2.1 2.94-.89 5.09 4.16 1.75 2.85 3.27c-1.05 1.21-.96 1.94-.61 2.66.31.64 0-1.75 1.21-2.01s2.52-1.87.14-2.57c-2.23-.66-1.21-2.1-.05-2.99s-.65-3.46-.65-3.46l-1.92.61m-3.57-5.83c0 .07.72-1.59-.2-2.78s1.35-1.51 1.78-1.4.81.25 1.3.95 1.16 1.02.84 1.72-3.71 1.52-3.71 1.52Zm9.12-1.33s-.48.79-1.32 1.17-.64 1.41-.07 1.56.08 1.02-.18 1.14-1.35.3-1.51.12-.5-.76-.5-.76l-.02-1.2s-.37.04.16-.85 1.06-1.39 1.52-1.37.89.04 1.04-.09.88.28.88.28" class="st69"/><path d="M205.83 699.85s1.28.67 1.03 1.42 1-.91 1-.91.7-.47 0-.72-2.03.21-2.03.21m5.36 2.33s.37-.83 1.1-1.09-.48-.92-.48-.92-1.21-.28-1.4-.14-.21.37-.28.86 1.07 1.28 1.07 1.28Zm1.53-12.61s-1.42-.9-.42-1.99c1.17-1.26-1.89-2.62-2.45-2.31s-1.19.79-1.4 1.45-.47 1.8-.16 2.29 1.1 1.05 1.66.96 1.1-.09 1.1-.09l1.68-.3Z" class="st69"/><path d="M206.25 686.02c.03-.06 1.24-.26 1.82-1.45s1.07 3.64.93 3.83-.47 1.24-.96 1.21-2.1-2.87-1.8-3.6Z" class="st69"/><path d="M222.97 726.86s-7.66 4.58-9.02 4.95-3.74-.37-3.32-1.63 2.52-1.49 3.18-.51c.39.59.51 1.21 1.12 1.03s7.15-3.92 7.57-4.06.65.09.47.23Zm-19.44 3.6s-8.91.56-10.28.27-3.15-2.04-2.2-2.97 2.93-.17 3.06 1c.08.7-.1 1.32.53 1.43s8.15-.22 8.59-.15.54.38.31.42Z" class="st68"/><path d="M199.99 728.41s-7.32 5.11-8.64 5.58-3.75-.11-3.42-1.39 2.41-1.67 3.13-.74c.43.56.6 1.17 1.19.95s6.85-4.42 7.26-4.59.66.05.48.2Z" class="st68"/><path d="M223 726.48s-7.66 4.58-9.02 4.95-3.74-.37-3.32-1.63 2.52-1.49 3.18-.51c.39.59.51 1.21 1.12 1.03s7.15-3.92 7.57-4.06.65.09.47.23Zm-19.44 3.59s-8.91.56-10.28.27-3.15-2.04-2.2-2.97 2.93-.17 3.06 1c.08.7-.1 1.32.53 1.43s8.15-.22 8.59-.15.54.38.31.42Z" class="st69"/><path d="M200.02 728.03s-7.32 5.11-8.64 5.58-3.75-.11-3.42-1.39 2.41-1.67 3.13-.74c.43.56.6 1.17 1.19.95s6.85-4.42 7.26-4.59.66.05.48.2Z" class="st69"/></g></g></svg>