<svg xmlns="http://www.w3.org/2000/svg" width="430" height="932" data-name="Шар_1" viewBox="0 0 430 932"><path d="M339.29 743.2c-44.07-6.56-88.14-24.63-111.78-27.23s-56.2-1.49-81.33 10.77C121.28 738.88 7.34 750.05.09 749.91L.06 932.03l429.85-.09.14-182.05c-.72 0-47.03-.19-90.76-6.7Z" style="fill:#579c4e"/><path d="M276.52 735.16c0 10.26-36.23 10.4-68.33 10.4s-64.25-2.74-64.25-13 31.59-17.83 63.69-17.83 68.89 10.17 68.89 20.43" style="fill:#66ab5c"/><path d="M430.05 749.29c-.46 0-47.12-.2-90.67-6.69-24.09-3.59-47.93-10.55-68.96-16.69-17.22-5.03-32.09-9.37-42.84-10.55-9.33-1.03-23.89-1.89-40.24-.19-15.91 1.66-29.84 5.37-41.43 11.01C121.34 738.16 7.4 749.43.1 749.29c-.02 0-.04 0-.07.01v1.19h.19c4.14 0 33.35-2.62 66.36-6.98 29.11-3.84 66.6-9.78 79.85-16.25 29.63-14.45 66.52-12.3 81-10.71 10.64 1.17 25.47 5.5 42.64 10.51 21.07 6.15 44.95 13.12 69.13 16.72 43.64 6.5 90.39 6.7 90.85 6.7s.04-1.21 0-1.21Z" style="fill:#368a31"/></svg>