<svg xmlns="http://www.w3.org/2000/svg" width="430" height="932" data-name="Шар_1" viewBox="0 0 430 932"><path d="M-.07 750.17s34.59-1.06 40.46-1.39c11-.62 38.93-.57 48.21-.87 11.62-.37 26.56.13 37.08 1.39 10.53 1.26 37.66 10.36 58.44 8.14 13.99-1.49 9.33-5.67 51.39-7.55 19.57-.87 29.58 3.94 50.6 3.83s50.14-1.32 62.05-1.49c11.91-.16 48.8-2.29 81.91-2.04l-.11 181.86L0 932.01l-.08-181.84Z" style="fill:#579c4e"/><path d="M190.37 774.58c12.61 5.94 46.72 8.17 65.76 3.96 19.03-4.21 41.78-9.9 62.3-4.95s72.68-12.87 62.3-21.04c-.6-.47-1.16-.93-1.69-1.38-13.5.49-24.49.99-30.04 1.07-11.91.16-41.03 1.37-62.05 1.49-21.02.11-31.02-4.7-50.6-3.83-35.9 1.6-37.77 4.88-46.24 6.74-5.46 5.52-9.86 13.18.27 17.96Z" style="fill:#66ab5c"/><path d="M430.06 749.5c-22.78-.16-47.66.87-63.91 1.53-7.54.31-13.5.55-17.18.6-4.54.06-11.56.28-19.69.52-13.07.4-29.34.89-42.35.96-10.03.05-17.55-1.02-24.82-2.06-8-1.14-15.55-2.23-25.8-1.77-28.03 1.25-35.38 3.53-41.29 5.35-2.95.91-5.5 1.7-10.14 2.2-14.66 1.56-32.47-2.54-45.47-5.53-5.23-1.2-9.75-2.24-12.84-2.61-10.19-1.22-25.13-1.78-37.17-1.39-3.59.11-9.87.18-17.13.25-11.41.11-24.34.24-31.09.62-5.69.32-39.74 1.36-41.26 1.41v1.34c.93-.03 35.58-1.22 41.33-1.54 6.72-.38 19.63-.51 31.03-.62 7.27-.07 13.55-.13 17.16-.25 11.99-.38 26.85.17 36.99 1.39 3.02.36 7.51 1.39 12.71 2.59 11.09 2.55 25.65 5.9 38.88 5.9 2.38 0 4.72-.11 6.98-.35 4.75-.51 7.35-1.31 10.37-2.24 5.85-1.81 13.12-4.06 40.99-5.3 10.13-.45 17.63.62 25.57 1.76 7.31 1.05 14.87 2.13 25 2.07 13.03-.07 29.3-.57 42.38-.96 8.13-.25 15.14-.46 19.67-.52 3.7-.05 9.66-.29 17.22-.6 16.23-.66 41.1-1.69 63.86-1.53v-1.21Z" style="fill:#368a31"/></svg>