<svg xmlns="http://www.w3.org/2000/svg" id="_Шар_1" width="430" height="932" data-name="Шар_1" viewBox="0 0 430 932"><defs><style>.st0{fill:#2a4f62}</style></defs><path d="M419.06 746.73c-8.7-.48-33.3-7.23-49.59-6.09-47.38 3.3-63.21-3.84-98.12-4.95-30.59-.98-49.5-26.91-88.9-21.79-36.05 4.68-89.69 18.3-115.14 24.99-25.44 6.68-67.53 8.6-67.53 8.6L0 932.03l239.06-.05 191.03.04-.2-184.51z" style="fill:#4a5c84"/><path d="M209.52 761.55c0-2.26-1.8-4.28-4.61-5.59.79-2.18.37-4.79-2.18-7.82-7.8-9.25-16.56-4.05-16.56-4.05s1.01-8.92-9.03-12.06-12.99 3.71-12.99 3.71-1.57-2.76-5-3.18c-3.43-.43-5.46 3.48-5.46 3.48s-5.57-4.98-9.42-4.08-5.57 5.38-5.57 5.38c-3.49-3.36-6.79.47-6.79.47s-1.63-3.59-5.48-2.69c-1.91.45-3.01 1.63-3.64 2.71-1.33-.61-2.82-.96-4.39-.96-5.54 0-10.03 4.25-10.03 9.49 0 1.06.19 2.08.53 3.04-1.91 1.24-3.22 3.1-3.54 5.23-3.66 1.14-6.25 3.91-6.25 7.15 0 4.26 6.01 9.06 11.51 9.06.24 0 .48-.01.71-.03 16.7 2.26 65.99 0 83.07-1.47 2.84-.25 5.07-.59 6.8-1.01 4.83-.96 8.31-3.63 8.31-6.78Z" class="st0"/><path d="M135.79 764.38c-2.28-4.71-7.4-4.44-11.4-4.14 0 0 3.68-7.58-5.72-7.55.46-5.22-4.24-3.32-4.24-3.32.65-4.6-4.02-4.76-4.02-4.76.72-6.27-5.15-6.27-5.15-6.27s3.89-7.33-3.91-10.28-9.04 2.24-9.04 2.24-2.96-3.94-6.51-1.43c-3.54 2.52-.68 5.94-.68 5.94-3.81-1.55-5.02 3.48-5.02 3.48-2.89-4.44-6.83-.3-6.83-.3s-3.15-6.15-9.07-3.47-4.83 8.04-4.83 8.04c-2.49-1.36-3.9.29-3.9.29-4.91-4.39-9.91.1-9.91.1-4.89-3.38-7.61.43-7.61.43-1.48-3.73-5.47-1.62-5.47-1.62-6.23-4.57-7.96 1.72-7.96 1.72-3.26-.89-3.99 2.15-4.14 3.14-10.92-1-13.58 10.06-7.74 14.65 0 0-6.52.23-6.05 5.56 1.53 17.38 116.61 8.2 116.61 8.2s16.87-1.78 12.58-10.66Z" class="st0"/><path d="M22.26 773.33c-.25-.74-11.64 1.49-10.65 7.92 0 0-7.92 7.43-3.22 15.1 0 0-5.45 3.71-2.97 11.64 0 0-5.94 8.91-.99 17.08L4.4 932.03l227.88-.02s8.88-74.01 1.94-82.43c0 0 2.72-16.09-3.96-18.57 0 0 1.24-12.38-4.95-15.6s-10.9-2.97-10.9-2.97 11.39-6.19 5.94-11.39-8.17-4.7-8.17-4.7 9.91-11.14 4.95-14.86c-4.95-3.71-9.16-3.96-9.16-3.96s6.74-18.64-3.07-21.57c-9.81-2.94-182.65 17.36-182.65 17.36Z" class="st0"/></svg>