<svg xmlns="http://www.w3.org/2000/svg" width="430" height="932" viewBox="0 0 430 932"><defs><style>.st0{fill:#84737d}.st1,.st2{opacity:.31;mix-blend-mode:multiply}.st2{opacity:.25}.st3{fill:#726370}.st5{mix-blend-mode:screen}.st6{fill:#45374a}.st7{fill:#4b465e}</style></defs><g style="isolation:isolate"><g id="_Шар_1" data-name="Шар_1"><path d="m88.5 54.04-.47-2.55s-1.04-1.41-1.93-1.84-1.92-1.23-2.63-1.23-3.78.94-4.68 1.46-3.35.9-4.34.75-2.63-.57-3.95 0-3.41 1.04-4.3 3.25-2.78 5-2.07 6.41 4.01 7.07 5.04 7.73 8.15 4.43 9.43 4.1 9-2.64 10.89-4.29 5.19-6.98 5.28-7.87-1.46-2.73-2.5-3.49-3.77-2.45-3.77-2.45Z" class="st0"/><g class="st2"><path d="M72.98 53.19q.03.255-.12.42c-.3.36-.63.7-1.02.96-.45.25-.98.36-1.48.46-.19 0-.38.02-.56.02-.05-.15-.11-.29-.16-.44.45-.62 1.02-1.09 1.75-1.34.49-.16 1.11-.31 1.6-.09Z" class="st3"/></g><g class="st5"><path d="M65.24 60.48c1.11 1.67 2.21 3.35 3.38 4.98.28.38.58.81.9 1.13-.02-.01.01 0 .03.02 1.82 1.09 3.66 2.16 5.58 3.06.69.3 1.59.73 2.24.75-.03 0-.07.02-.1.03.03-.02.09-.07.15-.12 1.41-1.38 2.8-3.12 4.14-4.57l.02-.02.03-.03.02-.02s.05-.03.07-.05c.04-.02.02-.01.03-.01s.02-.01.02-.01l.18-.12c2.4-1.53 4.8-3.07 7.23-4.54.46-.27.91.39.46.71-2.44 1.66-4.9 3.26-7.39 4.84-.92 1.01-2.37 2.68-3.44 3.78-.34.33-.65.7-1.07.97-.13.08-.3.09-.44.08-.93-.09-1.72-.51-2.54-.89-1.93-.96-3.76-2.09-5.58-3.23-.21-.13-.39-.38-.52-.55-.61-.82-1.16-1.67-1.71-2.51-.73-1.13-1.45-2.26-2.15-3.41-.17-.29.25-.58.45-.29Z" class="st0"/></g><g class="st5"><path d="M92.6 56.59c.68.89 1.36 1.75 1.92 2.72.04.08.08.17.09.26.01.08 0 .17-.03.23-.11.31-.27.58-.42.85-.72 1.28-1.51 2.51-2.32 3.73-.27.41-.55.81-.83 1.21-.4.54-.76 1.12-1.27 1.59-.73.48-1.54.77-2.32 1.12-2.69 1.13-5.41 2.17-8.17 3.12-.29.09-.48-.32-.18-.46 2.55-1.14 5.44-2.36 7.99-3.49.69-.31 1.41-.61 2.06-.99.11-.08.18-.18.28-.29 1.18-1.5 2.24-3.13 3.3-4.72.38-.6.86-1.32 1.15-1.88v.11c-.04-.11-.11-.23-.17-.35-.47-.82-1.02-1.63-1.54-2.44-.18-.29.23-.59.45-.32Z" class="st0"/></g><g class="st2"><path d="M92.05 56.29s-5.47.75-5.61 1.2-1.13 2.36-1.37 2.57-3.72 2.22-4.22 2.17-3.89-.61-3.89-.61-2.92-3.28-3.51-3.25-6.81 1.11-7.26 1.2-2.43-.78-2.43-.78.09.87.49 1.7 3.77 6.41 4.88 7.24 7.68 4.31 10.11 4.05 9.83-3.63 10.49-4.29 4.78-6.98 4.97-7.66-.16-1.56-.8-2.12-1.86-1.41-1.86-1.41Z" class="st3"/></g><g class="st1"><path d="m63.76 59.55 2.76 1.24 4.42 4.67 11.24 1.63 7.64-5.34s2.69-5.47 2.72-5.42 2.58 2.66 2.51 3.3-4.95 7.6-5.62 8.06-9.65 3.75-10.43 3.92-3.25-.49-4.42-.99-6.55-3.52-6.61-3.61c-1.41-1.94-4.7-7.95-4.21-7.46" class="st7"/></g><g class="st2"><path d="M72 58.08s-1.77.58-1.96.81-.32 1.11-.21 1.36 1.18 2.58 1.52 2.81 2.85.78 3.25.74 2.4-1.71 2.28-2.16-1.57-2.97-1.93-3.29-1.2-.58-1.54-.51-1.41.23-1.41.23Z" class="st3"/></g><g class="st2"><path d="M80.59 53.01s-1.13-.18-1.84.21-2.44.46-2.55 1.2.88 1.06 2.09.85 3.04-.85 3.08-1.45-.78-.81-.78-.81" class="st3"/></g><g class="st2"><path d="M89.04 66.02s1.17-1.06 1.03-1.52-1.24.11-1.7.64-.21 1.38.67.88" class="st3"/></g><path d="M82.47 57.6s-1.27 1.03-1.41 1.73 1.31.49 1.56.25.6-1.98-.14-1.98Z" class="st3"/><g class="st5"><path d="M64.08 58.72c.83-1.95 1.73-3.86 2.66-5.76.28-.42.74-.68 1.13-.91.57-.33 1.17-.58 1.78-.81 1.23-.43 2.54-.79 3.86-.67.66.07 1.26.21 1.85.24q.885.045 1.74-.21c2.09-.75 4.19-1.5 6.41-1.78.26-.02.54-.05.81 0 .78.17 1.41.65 2.01 1.13.38.32.74.66 1.05 1.05.13.16.3.39.37.64l.03.12c.13.55.19 1.11.17 1.67 0 .11-.1.2-.21.19-.08 0-.15-.05-.18-.12-.19-.44-.32-.88-.45-1.33l-.11-.39c-.28-.46-.75-.88-1.17-1.23-.44-.35-.95-.73-1.47-.91-.13-.04-.21-.06-.34-.06-.44 0-.88.08-1.32.15-1.66.32-3.32.81-4.92 1.4-.78.29-1.62.44-2.45.39-.99-.04-1.82-.35-2.76-.24-.9.09-1.77.39-2.6.74-.56.24-1.11.52-1.62.82-.29.18-.59.36-.8.59-.09.16-.2.39-.29.55-.86 1.68-1.76 3.34-2.71 4.97-.15.27-.6.08-.47-.24Z" class="st0"/></g><g class="st5"><path d="m83.29 55.76 4.98-1.58c.09-.03.18-.02.26.02l2.99 1.3c.21.09.31.34.22.55s-.34.31-.55.22l-2.99-1.3.26.02-5.15.87s-.05-.01-.06-.04c0-.02.01-.05.03-.06Z" class="st0"/></g><path d="M77.86 72.32c-.09 0-.16 0-.23-.01-1.83-.25-7.56-3.23-9.04-4.33-1.47-1.09-4.71-6.99-5.2-7.89-.21-.25-.46-.81.89-3.81.68-1.51 1.58-3.19 2.05-3.83 1.45-1.97 5.54-3.2 7.19-2.82l.1.02c1.34.3 2.5.57 6.64-1.04 4.29-1.66 6.22.18 7.26 1.16.09.09.18.17.27.25 1 .9 1.01 2.09 1.02 2.88 0 .23 0 .54.04.65 1.69.85 3.77 1.96 4.12 2.51.14.21.57.75.99 1.26.58.71 1.13 1.38 1.33 1.72.13.22.4.69-1.88 4.34-1.06 1.7-2.53 3.78-3.47 4.53-1.65 1.32-9.83 4.4-12.06 4.41ZM64.19 59.54l.02.04c1 1.84 3.83 6.78 4.95 7.62 1.5 1.11 7.05 3.94 8.59 4.15h.16c1.83 0 9.78-2.9 11.4-4.2 1.47-1.18 4.87-6.7 5.06-7.71-.21-.32-.75-.98-1.18-1.51-.48-.59-.89-1.1-1.06-1.36-.21-.27-1.83-1.21-3.77-2.18-.53-.27-.54-.89-.54-1.49 0-.73-.01-1.55-.69-2.17-.09-.08-.18-.17-.29-.27-1-.96-2.52-2.4-6.24-.96-4.42 1.71-5.71 1.42-7.21 1.08l-.1-.02c-1.32-.3-5.01.85-6.2 2.45-.87 1.18-3.02 5.71-2.91 6.52Zm30.2-.16" class="st6"/><path d="m88.54 54.38-5.33 1.39c-.2.05-.29-.24-.1-.31l5.13-2c.64-.22.95.72.3.92m-11.2 17.11c1.51-1.57 3-3.15 4.55-4.68.14-.12.28-.3.46-.38.01 0 .02-.01.09-.03.04-.01.14-.01.09-.01s-.16.03-.18.05c1.37-.92 2.7-1.93 4.04-2.91l3.23-2.37-.15.19c.8-1.12 1.44-2.34 1.94-3.61.16-.43.3-.87.37-1.34a.5.5 0 0 1 .57-.43c.39.04.58.56.31.84-.31.35-.56.74-.79 1.14a18.2 18.2 0 0 0-1.54 3.84l-.14.16c-1.91 1.4-4.57 3.37-6.47 4.73-.29.2-.62.45-.93.63-.04.02-.15.06-.22.06-.06 0 .04 0 .08-.01.06-.02.07-.02.08-.03.02 0 .07-.03.07-.04-.16.13-.44.42-.59.57-1.41 1.41-2.79 2.86-4.17 4.31-.45.45-1.13-.19-.7-.67Z" class="st6"/><path d="M60.51 65.09s-1.38 1.41-1.34 1.7.18.78.71 1.03 1.41.67 1.63.49 1.87-1.45 1.94-1.84.04-.92-.21-1.06-2.19-.71-2.72-.32Z" class="st0"/><g class="st1"><path d="M59.45 66.75s1.34.11 1.8-.04 1.94-1.2 1.94-1.2.74.67.35 1.1-1.66 1.7-2.05 1.7-1.73-.46-1.91-.64-.32-.81-.14-.92Z" class="st7"/></g><path d="M61.35 68.83c-.39 0-.92-.23-1.62-.55l-.06-.03c-.54-.25-.9-.77-.98-1.4-.02-.19-.06-.51 1.48-2.1.02-.02.04-.04.06-.05.8-.59 3.02.16 3.25.29.49.28.55 1.02.45 1.57-.06.34-.39.75-1.97 2.01q-.105.075-.15.12a.68.68 0 0 1-.46.16Zm-1.69-2.01c.04.2.15.43.42.55l.06.03c.25.12.88.41 1.14.46.02-.02.04-.03.07-.05 1.26-1 1.55-1.35 1.62-1.46.04-.24.01-.45-.02-.53-.4-.17-1.8-.49-2.14-.34-.48.49-1.01 1.1-1.15 1.35Zm3.33-.5" class="st6"/></g></g></svg>