<svg xmlns="http://www.w3.org/2000/svg" id="_Шар_1" width="430" height="932" data-name="Шар_1" viewBox="0 0 430 932"><defs><style>.st0{fill:#2a4f62}</style></defs><path d="M418.03 746.73c-8.7-.48-33.29-7.23-49.58-6.09-47.37 3.3-54.88-15.52-83.18-8.44-29.68 7.42-75.29 13.72-113.82 4.06-64.54-16.18-79.67-4.06-105.11 2.62s-67.47 8.65-67.47 8.65l.16 184.49h429.96V747.53l-10.97-.8Z" style="fill:#4a5c84"/><path d="M293.88 760.88c0-1.84-1.47-3.49-3.75-4.55.64-1.77.3-3.91-1.78-6.37-6.36-7.53-13.49-3.3-13.49-3.3s.82-7.27-7.35-9.83c-8.18-2.56-10.58 3.02-10.58 3.02s-1.28-2.25-4.07-2.59c-2.8-.35-4.45 2.83-4.45 2.83s-4.54-4.06-7.67-3.33c-3.13.74-4.54 4.39-4.54 4.39-2.84-2.74-5.53.38-5.53.38s-1.33-2.92-4.46-2.19a4.5 4.5 0 0 0-2.96 2.21c-1.08-.5-2.29-.78-3.58-.78-4.51 0-8.17 3.46-8.17 7.73 0 .87.15 1.7.43 2.47-1.55 1.01-2.63 2.53-2.88 4.26-2.98.93-5.09 3.19-5.09 5.83 0 3.47 4.89 7.38 9.38 7.38.2 0 .39-.01.58-.03 13.61 1.84 53.76 0 67.67-1.2 2.31-.2 4.13-.48 5.54-.83 3.94-.78 6.77-2.96 6.77-5.52Z" class="st0"/><path d="M377.28 762.31c3.59-1.69 5.58-3.73 5.2-6.16-2.1-13.5-14.9-8.61-14.9-8.61-5.12-12.34-17.23-2.1-17.23-2.1.93-3.96-4.42-12.8-11.64-12.34-7.22.47-9.78 9.08-9.78 9.08-6.29-5.12-11.87 2.1-11.87 2.1-4.42-6.75-10.71-2.56-10.71-2.56-6.05-13.27-13.97-.47-13.97-.47-11.17-2.79-11.64 6.05-11.64 6.05s-.17 1.06-.12 2.73c-2.59-.26-6.23.3-8.97 4.37-2.55 3.78-.36 7.24 4.6 9.84-1.53 1.8-3.65 5.72-.69 11.77 5.64 11.5 69.03 6.57 89.22 6.1 11.07-.26 14.16-4.04 12.65-7.72 1.1-.29 2.19-.67 3.22-1.18 5.42-2.65 2.37-7.87-3.38-10.91Z" class="st0"/><path d="M213.26 766.66s-9.41-1.61-10.27 3.96c0 0-6.07.5-5.32 6.93s2.85 9.78 2.85 9.78-5.82-1.86-6.68 3.22c-.87 5.08 1.86 8.54 1.86 8.54s-8.05-1.98-11.88 7.8 1.11 18.94 1.11 18.94-6.93-2.97-9.78 1.36 2.23 11.88 2.23 11.88-4.58-.62-5.32 2.35.12 7.8.12 7.8-4.46-6.07-9.78.87c-5.32 6.93 1.72 82.01 1.72 82.01l244.6-.04s8.45-77.02 6.59-82.47-9.04-4.21-9.04-4.21 8.05-11.88 4.46-16.22c-3.59-4.33-7.18-1.49-7.18-1.49s9.41-12.26 3.84-17.83-14.11-3.71-14.11-3.71 4.33-8.67-1.24-9.41-7.43 1.36-7.43 1.36 5.94-6.07 3.47-8.42-7.8-1.11-7.8-1.11 1.24-11.02-3.09-14.73-31.07-6.93-31.07-6.93l-132.83-.25Z" class="st0"/></svg>