<svg xmlns="http://www.w3.org/2000/svg" id="_Шар_1" width="430" height="932" data-name="Шар_1" viewBox="0 0 430 932"><defs><style>.st0{fill:#2a4f62}</style></defs><path d="M419.23 747.26c-8.7-.48-33.29-7.23-49.58-6.09-47.37 3.3-66.33 2.5-101.24 1.38-30.58-.98-41.1-5.57-86.41-6.68-36.34-.89-89.02-3.14-114.46 3.55-25.44 6.68-60.93 7.7-64.97 7.78a.8.8 0 0 0-.33.07H0l.09 184.68 429.96.17-.08-184.85h-10.73Z" style="fill:#4a5c84"/><path d="M227.14 761.35c0-2.26-1.8-4.28-4.6-5.59.79-2.18.37-4.79-2.18-7.82-7.8-9.25-16.56-4.05-16.56-4.05s1.01-8.92-9.03-12.06c-10.03-3.14-12.99 3.71-12.99 3.71s-1.57-2.76-5-3.18c-3.43-.43-5.46 3.48-5.46 3.48s-5.57-4.98-9.42-4.08-5.57 5.38-5.57 5.38c-3.49-3.36-6.79.47-6.79.47s-1.63-3.59-5.48-2.69c-1.91.45-3.01 1.63-3.64 2.71-1.33-.61-2.82-.96-4.39-.96-5.54 0-10.03 4.25-10.03 9.49 0 1.06.19 2.08.53 3.04-1.91 1.24-3.22 3.1-3.54 5.23-3.66 1.14-6.25 3.91-6.25 7.15 0 4.26 6 9.06 11.51 9.06.24 0 .48-.01.71-.03 16.7 2.26 65.98 0 83.06-1.47 2.84-.25 5.07-.59 6.8-1.01 4.83-.96 8.31-3.63 8.31-6.78Z" class="st0"/><path d="M250.11 789.75c0-3.05-2.43-5.77-6.21-7.54 1.06-2.94.5-6.47-2.94-10.55-10.52-12.47-22.33-5.46-22.33-5.46s1.36-12.03-12.18-16.27-17.52 5.01-17.52 5.01-2.11-3.72-6.74-4.3c-4.63-.57-7.37 4.69-7.37 4.69s-7.51-6.72-12.7-5.51c-5.19 1.22-7.52 7.26-7.52 7.26-4.7-4.53-9.16.63-9.16.63s-2.2-4.84-7.39-3.62c-2.58.61-4.07 2.2-4.91 3.65-1.79-.83-3.8-1.29-5.92-1.29-7.47 0-13.52 5.73-13.52 12.8 0 1.43.25 2.81.71 4.1-2.57 1.68-4.35 4.19-4.77 7.06-4.94 1.54-8.42 5.28-8.42 9.65 0 5.75 8.1 12.22 15.53 12.22.33 0 .65-.02.96-.04 22.53 3.05 89.01 0 112.04-1.99 3.83-.33 6.84-.8 9.17-1.37 6.52-1.29 11.21-4.9 11.21-9.14Z" class="st0"/><path d="M119.38 796.65s-14.11-5.57-20.43 3.71c-6.31 9.28.74 20.05.74 20.05S73.76 908.9 80.07 931.93l192.6.09s2.31-29.63-11.06-36.32c0 0 4.83-6.68.74-8.54s-7.43-67.49-7.43-67.49 6.31-1.86 2.97-8.17-8.54-4.46-8.54-4.46 3.34-12.63-7.06-14.86-15.6-3.71-15.6-3.71l-107.33 8.17Z" class="st0"/></svg>