<svg xmlns="http://www.w3.org/2000/svg" id="_Шар_1" width="430" height="932" data-name="Шар_1" viewBox="0 0 430 932"><defs><style>.st0{fill:#2a4f62}</style></defs><path d="M419.26 747.18c-8.7-.48-34.43-2.4-49.39-8.96-18.2-7.98-54.22-14.86-83.37-5.57s-74.83 4.83-113.27-5.2-79.57 8.49-105.66 11.88c-28.66 3.73-67.53 8.2-67.53 8.2L.06 932h429.87l.1-184.47z" style="fill:#4a5c84"/><path d="M426.01 754.94c0-1.86-1.48-3.52-3.79-4.6.65-1.79.31-3.94-1.79-6.43-6.41-7.6-13.61-3.33-13.61-3.33s.83-7.33-7.42-9.91-10.68 3.05-10.68 3.05-1.29-2.27-4.11-2.62-4.49 2.86-4.49 2.86-4.58-4.1-7.74-3.36-4.58 4.43-4.58 4.43c-2.87-2.76-5.58.38-5.58.38s-1.34-2.95-4.5-2.21c-1.57.37-2.48 1.34-2.99 2.23-1.09-.5-2.32-.79-3.61-.79-4.55 0-8.24 3.49-8.24 7.8 0 .87.15 1.71.43 2.5-1.57 1.02-2.65 2.55-2.91 4.3-3.01.94-5.13 3.22-5.13 5.88 0 3.5 4.94 7.45 9.46 7.45.2 0 .39-.01.59-.03 13.73 1.86 54.25 0 68.28-1.21 2.33-.2 4.17-.49 5.59-.83 3.97-.79 6.83-2.98 6.83-5.57Zm-295.62-4.46c0-1.86-1.48-3.52-3.79-4.6.65-1.79.31-3.94-1.79-6.43-6.41-7.6-13.61-3.33-13.61-3.33s.83-7.33-7.42-9.91-10.68 3.05-10.68 3.05-1.29-2.27-4.11-2.62-4.49 2.86-4.49 2.86-4.58-4.1-7.74-3.36-4.58 4.43-4.58 4.43c-2.87-2.76-5.58.38-5.58.38s-1.34-2.95-4.5-2.21c-1.57.37-2.48 1.34-2.99 2.23-1.09-.5-2.32-.79-3.61-.79-4.55 0-8.24 3.49-8.24 7.8 0 .87.15 1.71.43 2.5-1.57 1.02-2.65 2.55-2.91 4.3-3.01.94-5.13 3.22-5.13 5.88 0 3.5 4.94 7.45 9.46 7.45.2 0 .39-.01.59-.03 13.73 1.86 54.25 0 68.28-1.21 2.33-.2 4.17-.49 5.59-.83 3.97-.79 6.83-2.98 6.83-5.57Z" class="st0"/><path d="M412.3 759.58s9.78-1.36 10.65 3.71c.87 5.08-1.36 7.55-1.36 7.55s3.09.25 3.71 3.71c.62 3.47-1.98 6.68-1.98 6.68s2.6-2.23 2.97 7.18-3.59 12.87-3.59 12.87 3.84.74 3.96 4.95-2.72 7.92-2.72 7.92 1.86 2.1 2.97 8.42c1.11 6.31-2.85 79.49-2.85 79.49s3.96 1.36 3.34 7.68-4.21 8.79-4.21 8.79 1.61.37 1.86 4.33-3.88 9.14-3.88 9.14l-118.7-.04s-4.43-5.51-.84-10.34 7.55-3.84 7.55-3.84-5.32-3.84-4.58-8.67 3.84-3.96 3.84-3.96-5.08-73.55-3.34-78.87c1.73-5.32 7.43-3.34 7.43-3.34s-3.59-5.69-1.36-11.27c2.23-5.57 10.03-5.08 10.03-5.08s-3.22-4.7-1.36-8.29 6.31-3.59 6.31-3.59-2.35-2.48-.74-7.06 5.32-3.96 5.32-3.96-3.34-2.85-2.6-6.19 6.56-5.2 6.56-5.2-1.86-1.49.12-4.33 5.2-2.72 5.2-2.72-4.83-7.3-4.33-10.15 50.76 5.32 51.5 3.47 25.13.99 25.13.99Zm-364.76-2.42s-5.26-1.18-6.87.8 1.86 5.88 1.86 5.88-4.15-1.49-4.83 1.36 1.86 5.82 1.86 5.82-6.99.25-7.61 7.37 4.15 12.44 4.39 12.44-5.14.8-5.51 4.58 1.67 6.44 1.79 6.62-4.27-1.55-4.52 5.51 1.86 10.15 1.86 10.15-3.84 1.05-4.89 6.56 2.41 10.96 2.41 10.96-1.73-1.98-4.39-.43.74 71.01.74 71.01-4.7-.93-5.82 4.64c-1.11 5.57 3.9 11.88 3.9 11.88s-1.18-2.6-4.64-1.24c-3.47 1.36 1.9 10.92 1.9 10.92l93.88-.42 52.42.44s4.61-.44 5.43-7.78-7.18-9.82-7.18-9.82 6.52-73.18 4.54-79.37-10.81-7.59-11.06-7.43 3.47-7.51 1.4-15.02c-2.06-7.51-8.5-3.8-8.5-3.8s7.76-8.34 4.37-11.8-6.19-.83-6.19-.83 3.05-7.76-.41-10.23c-3.47-2.48-7.26-1.24-7.26-1.24s3.8-6.77 2.23-9.33-6.85-3.38-6.85-3.38 4.79-7.26 2.72-10.65c-2.06-3.38-7.35-2.81-7.35-2.81s1.44-10.63-4.77-12.66-26.92 4.66-26.92 4.66l-52.14 6.62Z" class="st0"/></svg>