<svg xmlns="http://www.w3.org/2000/svg" width="430" height="932" viewBox="0 0 430 932"><defs><style>.st0{fill:#84737d}.st1{mix-blend-mode:multiply;opacity:.31}.st4{fill:#45374a}.st5{fill:#4b465e}</style></defs><g style="isolation:isolate"><g id="_Шар_1" data-name="Шар_1"><path d="M62.63 84.14s-7.71 5.94-8.2 6.15-4.67.99-5.09 1.84-4.1 6.15-2.97 8.13 2.69 4.17 3.39 4.67 10.11 4.81 10.11 4.81 7.68 2.19 8.23 2.19 6.62-3.39 6.62-3.39 5.3-.49 6.01-.99 4.81-4.17 5.06-4.7 2.44-7.53 2.51-8.45-.8-3.68-.97-4.67-.73-1.41-1.79-1.77-1.98-.71-2.69-1.91-.64-3.54-3.18-3.89-4.53-.71-6.08-.49-10.61 1.98-10.96 2.47" class="st0"/><g class="st1"><path d="M46.41 100.67c0-.19-.66-1.98.57-1.37s2.97 1.27 3.35 1.74 1.41 1.89 1.41 1.89 11.17 4.71 11.64 4.53 2.45-1.7 2.83-1.89 4.2-1.32 4.86-1.32 4.2-.05 4.67-.24 9.99-10.04 10.32-10.89 1.27-3.39 1.27-3.39 1.04 4.05.9 5.19-1.93 7.35-2.36 8.06-4.34 4.81-5.19 4.81-5.99.71-6.36.94-5.09 3.16-6.22 3.21-6.83-2.07-7.73-2.26-6.5-2.59-6.5-2.59-4.95-2.31-5.28-2.97-2.17-3.44-2.17-3.44Z" class="st5"/></g><g class="st1"><path d="M45.9 98.6s3.99-1.45 4.24-1.31 2.58 2.26 2.9 2.33 6.5 1.66 7.67 1.56 7.28-2.47 7.28-2.47 5.48-3.99 5.66-4.56.81-3.82 1.45-4.63 6.15-7.25 6.33-6.61 1.7 3.92 2.3 4.35 3.33 1.87 3.59 2.47 1 4.63.97 5.06-2.33 7.6-2.51 8.06-4.45 4.53-5.41 4.74-5.44.78-6.19 1.1-5.27 2.9-6.19 2.9-7.81-1.66-8.45-2.05-6.58-2.58-7.04-2.97-3.78-2.33-3.99-2.72-2.58-4.28-2.62-5.23Z" class="st5"/></g><path d="M68.32 111.51s-.07 0-.11-.01l-8.17-2.02s-.05-.02-.08-.03c-2.4-1.06-6.08-2.68-6.38-2.77-.22-.06-.91-.47-3.82-2.34l-.45-.29c-.11-.06-.27-.16-2.84-4.07-.14-.22-.08-.5.13-.65s.5-.08.65.13c1.09 1.65 2.34 3.51 2.59 3.81.08.05.23.14.42.27 2.16 1.39 3.37 2.14 3.6 2.23.45.15 5.35 2.31 6.44 2.79l7.95 1.96c6-3.31 6.23-3.34 6.33-3.36.07-.01.37-.04 1.04-.11 1.21-.12 4-.41 4.47-.5.6-.41 4.24-3.53 4.57-4.16.08-.46.64-2.31 1.68-5.71.27-.88.53-1.72.6-1.96-.06-.45-.42-2.88-.66-4.49a.47.47 0 0 1 .39-.53c.25-.04.49.14.53.39.68 4.52.68 4.62.68 4.66q0 .11-.65 2.2c-.56 1.82-1.61 5.22-1.66 5.59-.02.21-.07.57-2.51 2.73-.6.53-2.33 2.02-2.61 2.14-.18.08-.87.17-4.74.57-.44.04-.83.08-.96.1-.48.2-4.03 2.14-6.21 3.35-.07.04-.15.06-.23.06Zm-14.47-5.72" class="st0"/><path d="M46.96 98.93c-.08 0-.15-.02-.23-.06a.453.453 0 0 1-.18-.63l3.29-5.94c.06-.11.17-.2.3-.23l3.89-.93c3.49-2.5 8.7-6.25 9.14-6.63.14-.16.54-.31 5.52-1.39 2.06-.45 5.27-1.13 5.62-1.16.53-.05 4.28.52 5.42.7.25.04.43.28.39.53a.47.47 0 0 1-.53.39c-2.3-.36-4.87-.71-5.19-.69-.52.05-9.82 2.04-10.64 2.34-.38.31-1.99 1.51-9.26 6.72-.05.04-.1.06-.16.07l-3.78.91-3.19 5.76c-.09.15-.24.24-.41.24m16.93-13.82s-.03.04-.11.1a.5.5 0 0 0 .11-.1m-.73-.58-.01.01z" class="st0" style="mix-blend-mode:screen"/><path d="M68.21 112.42c-1.75 0-8.7-2-9.25-2.55-.35-.33-3.69-1.77-4.96-2.14-.95-.28-2.9-1.53-4.18-2.35-.42-.27-.78-.5-.93-.59-.81-.45-2.99-4.11-3.4-5.12-.36-.91.56-2.62 2.01-5.13.39-.68.76-1.32.97-1.76.79-1.65 3.65-2.23 5.02-2.51.16-.03.3-.06.4-.08.6-.18 4.93-3.36 8.7-6.26.19-.18.78-.59 6.08-1.72 2.37-.5 5.47-1.09 5.91-1.09.41 0 6.09.52 6.92 1.07.48.32.94 1.31 1.64 2.91.29.67.57 1.31.77 1.62.3.48 1.57 1.04 2.34 1.38.59.26.91.4 1.1.56.3.25.64 1.3 1 3.11.13.63.52 2.75.36 3.51-.08.39-.38 1.31-.77 2.47-.54 1.63-1.34 4.1-1.34 4.64 0 1.4-4.78 5.18-5.38 5.57-.77.5-2.78.7-4.95.88-.52.04-.96.08-1.18.11-.35.05-1.85.93-2.94 1.57-1.83 1.07-3.07 1.78-3.69 1.89-.06.01-.14.02-.23.02Zm-8.59-3.26c.77.5 7.76 2.45 8.64 2.29.5-.09 2.1-1.03 3.38-1.78 1.7-1 2.77-1.61 3.28-1.69.25-.04.69-.07 1.25-.12 1.35-.11 3.87-.32 4.5-.73 1.23-.79 4.84-4.03 4.94-4.76 0-.64.58-2.45 1.39-4.93.34-1.04.67-2.03.74-2.37.17-.81-.69-5.08-1.06-5.7-.13-.08-.52-.26-.84-.4-1.03-.45-2.32-1.01-2.77-1.76-.23-.37-.51-1.01-.83-1.74-.38-.86-1-2.29-1.29-2.49-.57-.33-5.62-.91-6.38-.91-.83.02-10.52 1.95-11.33 2.55-.01.01-.02.02-.04.03-1.89 1.46-8.15 6.23-9.1 6.45-.11.03-.26.06-.43.09-1.12.23-3.75.76-4.34 1.98-.23.48-.61 1.13-1.01 1.83-.7 1.22-2.16 3.74-1.95 4.29.46 1.15 2.51 4.36 2.97 4.64.18.1.52.32.99.62 1.17.75 3.12 2 3.93 2.24 1.04.31 4.73 1.8 5.35 2.36Zm.01.01.01.01zm3.28-24.88" class="st4"/><path d="M81.23 82.83c-1.52 1.86-4.2 5-5.64 6.85-.04.05-.06.09-.09.13 0 0 .01-.02.01-.03v-.02c-.03.11-.1.36-.12.48-.29 1.16-.57 2.34-.95 3.49-.08.24-.19.51-.3.75-.11.22-.28.41-.46.57-1.56 1.38-3.29 2.55-5.04 3.67-.28.17-.57-.21-.32-.43 1.56-1.4 3.23-2.65 4.73-4.08l.07-.08c.03-.03.09-.14.1-.18.12-.27.21-.56.3-.85.35-1.16.61-2.42.92-3.61.06-.22.22-.41.34-.58 1.27-1.63 2.63-3.19 3.98-4.75.57-.65 1.14-1.3 1.72-1.95.43-.45 1.12.14.73.63ZM46.29 99.66c.49 0 .7-.63.32-.93-.02 0-.04-.03-.05-.03.06.05.23.13.3.17.25.13.93.47 1.2.6l1.62.78c.18.09.08.37-.12.32-.81-.21-2.26-.57-3.06-.8-.15-.05-.35-.09-.49-.17-.32-.19-.35-.68-.02-.89.34-.24.83.02.82.44 0 .29-.24.53-.53.53Zm41.12-10.28-5.69 5.92c-.26.27-.68-.1-.44-.4l5.34-6.24c.48-.53 1.26.17.78.71Z" class="st4"/><g class="st1"><path d="M53.86 100.81c.03-.17.09-2.55 1.23-3.82s3.16-1.7 3.96-1.6 2.17 1.37 2.4 2.59-2.55 2.55-3.02 3.02-1.13 1.98-1.65 2.12-3.16-1.13-2.92-2.31" class="st5"/></g><g class="st1"><path d="M62.39 104.06s.47-1.13 1.18-1.23 1.46.47 1.08.85-2.4.9-2.26.38" class="st5"/></g><g class="st1"><path d="M65.08 88.08s1.56-1.46 2.88-1.32 2.59.05 2.83.61-2.64 1.79-4.2 2.26-3.3.09-2.55-.38 1.04-1.18 1.04-1.18Z" class="st5"/></g><g class="st1"><path d="M77.57 92.18s.05-2.31 1.41-3.58 2.26-.94 2.26-.75 0 2.07-.85 3.44-2.83 1.18-2.83.9Z" class="st5"/></g><g class="st1"><path d="M78.09 102.93s-.38-2.88.14-4.29 2.22-2.4 2.73-2.07 1.13 2.26.99 3.25-3.68 4.53-3.87 3.11Z" class="st5"/></g><g class="st1"><path d="M63.95 93.64s1.41-1.04 2.17-1.13 2.17-.33 1.89.24-2.97 1.74-3.77 1.7-.8-.24-.28-.8Z" class="st5"/></g></g></g></svg>