<svg xmlns="http://www.w3.org/2000/svg" id="_Шар_1" width="430" height="932" data-name="Шар_1" viewBox="0 0 430 932"><defs><style>.st0{fill:#572d14}.st11,.st12,.st13,.st5,.st6,.st7,.st8{fill:none;stroke-linecap:round;stroke-linejoin:round}.st13{stroke:#c42727}.st14{fill:#e34242}.st17{fill:#8c290b}.st5{stroke:#823203}.st13,.st5{stroke-width:.32px}.st21{fill:#b63af0}.st22{fill:#14253f}.st6{stroke:#572d14;stroke-width:.36px}.st7{stroke:#211b18}.st11,.st12,.st7,.st8{stroke-width:.27px}.st8{stroke:#20bce0}.st11{stroke:#c42790}.st25{fill:#823203}.st26{fill:#c42727}.st27{fill:#fcbd76}.st12{stroke:#9315ce}.st30{fill:#211b18}.st31{fill:#368a31}</style></defs><path d="M.1 750.41s4.51-.06 12.01-.91c20.83-2.35 66.21-6.59 113.32-.51 10.53 1.36 37.64 6.85 58.53 8.14s73.46-3.64 94.51-3.75 57.06-10.14 68.97-10.77c40.24-2.14 49.44 7.67 82.6 7.92l-.03 181.49H.09z" style="fill:#579c4e"/><path d="M83.02 776.38c30.95 2.23 69.94 0 93.96-2.23s58.43 1.73 81.95 1.98 67.59 10.65 100.77 10.15c31.97-.48 68.3-30.84 46.98-38.14-17.36-2.67-30.23-7.06-59.24-5.52-11.91.63-47.92 10.66-68.97 10.77s-73.61 5.04-94.51 3.75c-20.89-1.29-48-6.79-58.53-8.14-34.58-4.46-68.4-3.02-92.32-1.47-9.87 2.72-19.02 6.38-18.79 13.51.5 15.6 37.76 13.12 68.7 15.35Z" style="fill:#66ab5c"/><path d="M430.04 749.66H430c-14.55-.11-24.75-2.12-34.51-3.98-12.54-2.39-25.5-4.86-48.1-3.66-4.76.25-13.27 1.98-23.13 3.98-14.77 2.99-33.15 6.72-45.81 6.79-8.5.05-22.2.88-36.7 1.76-21.25 1.29-45.33 2.76-57.77 1.99-14.59-.9-32.23-3.86-45.12-6.02-5.47-.92-10.2-1.71-13.37-2.12-34.04-4.39-72.62-4.11-114.67.84-6.35.75-10.64.66-10.69.66-.02 0-.04.01-.07.01v1.19H.1c.04 0 4.41.09 10.86-.66 41.94-4.94 80.42-5.22 114.37-.84 3.15.41 7.87 1.2 13.33 2.11 12.91 2.16 30.59 5.13 45.24 6.04 2.41.15 5.25.21 8.41.21 13.28 0 32.32-1.16 49.5-2.21 14.48-.88 28.17-1.71 36.63-1.76 12.78-.07 31.22-3.81 46.04-6.81 9.81-1.99 18.29-3.71 22.96-3.96 22.44-1.19 35.34 1.26 47.8 3.64 9.81 1.87 20.07 3.89 34.72 4h.05v-1.2Z" class="st31"/><path d="m324.68 746.74-4.85.38s2.94 3.45 5.23 4.6 4.98 2.04 7.66 4.21 10.98 5.36 12.77 6 5.74-3.19 7.79-3.45 3.83.26 5.36 1.79 11.49 6.77 13.02 6.51 18.89-10.6 21.57-11.74 4.6-1.91 4.47-3.19-7.15-5.49-8.94-5.62-11.74 2.43-15.83 4.47-15.57 3.7-17.36 3.32-5.36-1.79-3.7-2.68 7.53-1.4 6.26-4.72-18.64-1.28-22.98-.51-10.47.64-10.47.64Z" class="st31"/><path d="M329.12 734.76s-.32.43-.64.24-.35-.32-.24-1.18 1.15-4.24 3.14-6.68 5.5-4.59 6.04-4.64 2.84-.48 6.63-.35 6.47 1.82 6.97 2.01 1.26.78 1.56 1.13.51.32.24.59-1.31.43-1.39.48-22.29 8.4-22.29 8.4Z" style="fill:#ffccab"/><path d="M333.33 732.91s.86-.59.94-.89.21-1.07.21-1.07.27.64 1.15.48 2.66-.51 3.46-.99 2.25-1.18 2.47-1.31.38-1.13.38-1.13.4.54 1.45.48 3.22-.99 3.89-1.23 1.15-.24 1.15-.24l1.56 1.29s-.05.56-.05.72-.62.94-1.48 1.5-1.93.97-2.31.97-.8-.35-.8-.35l-6.22 2.17-.56.3s-.21.11-.19.21.05.8-1.05 1.15-4.1 1.26-4.1 0 .11-2.07.11-2.07Z" style="fill:#eda372"/><path d="m348.06 727.17 1.74 1.26s.72.38 1.34.19 1.34-1.15 1.42-1.5-.13-.97-.13-.97l-2.6.56s-.91 0-1.02-.11-.43-.38-.43-.38.11.75-.32.94Zm-9.9 3.73.24 2.58s.21.8 1.34.7 5.23-1.42 5.45-2.09.03-.99-.08-1.18-.86-2.39-.86-2.39-.64.03-1.23.03-1.26-.46-1.26-.46.48.27-.19.83-2.47 1.53-2.47 1.53l-.94.46Zm-9.15 4.48.4-.86.21-.54 1.66-.86 2.44-1.21-.27 1.48s.48 1.93-.72 2.39-3.57.27-3.73-.4Z" style="fill:#b33a20"/><path d="M334.3 730.5s-.16-1.13.67-3.57 2.39-4.27 2.39-4.27-1.23.43-2.68 1.45-3.92 4.18-4.43 5.88-.89 3.14-.83 3.33.13 1.02.8 1.02 3.03-1.26 3.54-1.69.56-1.69.54-2.15m3.46-7.78s2.25 1.74 3.14 3.25 1.02 2.2 1.66 2.41 1.13.27 2.09-.19 2.92-.75 3.41-1.31.35-.89.08-1.18-3.46-2.25-6.22-2.68-4.61-.7-4.16-.3" style="fill:#f5502c"/><path d="M328.13 734.22h-.03a.154.154 0 0 1-.12-.19c.91-4.33 3.38-7.25 5.29-8.94 2.07-1.83 3.95-2.65 3.97-2.66.08-.03.17 0 .21.08.03.08 0 .17-.08.21-.02 0-1.86.81-3.9 2.61-1.87 1.66-4.29 4.52-5.19 8.76-.02.07-.08.13-.15.13" class="st17"/><path d="M329.42 733.55h-.03a.163.163 0 0 1-.13-.18c.85-4.58 3.05-7.32 4.74-8.81 1.84-1.62 3.45-2.15 3.52-2.17.08-.03.17.02.2.1s-.02.17-.1.2c-.02 0-1.63.54-3.42 2.12-1.65 1.46-3.79 4.14-4.63 8.62a.15.15 0 0 1-.15.13Z" class="st17"/><path d="M334.27 730.65c-.09 0-.16-.08-.15-.16 0-.05.2-4.87 3.34-8.07.06-.06.16-.06.22 0s.06.16 0 .22c-3.06 3.11-3.25 7.82-3.25 7.86 0 .09-.07.15-.16.15" class="st17"/><path d="M341.59 727.68a.15.15 0 0 1-.15-.11c0-.02-.78-2.5-3.97-4.85-.07-.05-.08-.15-.03-.22a.15.15 0 0 1 .22-.03c3.28 2.42 4.05 4.91 4.08 5.02.02.08-.02.17-.11.2h-.05Z" class="st17"/><path d="M348.17 725.88s-.08-.01-.11-.04-3.38-3.02-10.6-3.18c-.09 0-.16-.07-.15-.16 0-.09.07-.15.16-.15 7.35.16 10.77 3.23 10.81 3.26.06.06.07.16 0 .22-.03.03-.07.05-.12.05Z" class="st17"/><path d="M352.54 725.31s-.07-.01-.1-.04c-.01-.01-1.29-1.11-3.75-1.98-2.27-.8-6.03-1.56-11.09-.64a.146.146 0 0 1-.18-.13c-.02-.09.04-.17.13-.18 5.13-.93 8.96-.16 11.27.66 2.51.89 3.78 1.99 3.83 2.03.07.06.07.16.02.22-.03.04-.07.05-.12.05Z" class="st17"/><path d="M328.1 734.36a.17.17 0 0 1-.13-.07c-.05-.07-.02-.17.05-.22l1.1-.7 4.97-2.85h.02l7.32-3.06h.02l6.47-1.85c.11-.03 2.79-.76 4.65-.51.09.01.15.09.14.18a.16.16 0 0 1-.18.14c-1.8-.23-4.5.5-4.53.51l-6.45 1.85-7.31 3.05-4.95 2.84-1.09.69s-.06.02-.08.02Z" class="st17"/><path d="M328.73 735.27h-.06a.8.8 0 0 1-.53-.28c-.26-.33-.19-.83-.19-.85.01-.09.09-.15.18-.13.09.01.15.09.13.18s-.05.39.13.61c.07.09.17.15.31.16.06 0 .12-.01.17-.06.31-.26.43-1.2.44-1.54 0-.09.08-.15.17-.15s.15.08.15.17c0 .14-.08 1.36-.55 1.76-.1.09-.22.13-.35.13" class="st17"/><path d="M330.34 734.46c-.86 0-1.02-.58-1.04-.7-.02-.13.01-.21.1-.24.07-.02.16 0 .19.08.01.03.02.06.02.09 0 .04.03.17.15.28.14.13.36.19.65.18.93-.04 3.37-1.51 3.6-1.95.33-.65.19-1.5.19-1.51-.02-.09.04-.17.13-.18.09-.02.17.04.18.13 0 .04.17.96-.22 1.71-.3.58-2.89 2.08-3.86 2.12h-.09Z" class="st17"/><path d="M335.54 731.7c-1-.01-1.26-.72-1.27-.75a.155.155 0 0 1 .29-.11c0 .02.21.53.98.54.87 0 5.25-1.83 5.88-2.38.54-.46.19-1.17.18-1.2-.04-.08 0-.17.07-.21.08-.04.17 0 .21.07.17.33.33 1.09-.25 1.59-.69.59-5.16 2.45-6.09 2.45" class="st17"/><path d="M343.15 728.71h-.07c-1.08-.07-1.38-.79-1.4-.82a.162.162 0 0 1 .3-.12c.01.03.25.57 1.13.63.99.07 4.83-1.44 5.06-1.7.18-.21-.03-.71-.11-.87a.16.16 0 0 1 .06-.21c.08-.04.17-.01.21.06.05.08.43.82.07 1.23-.33.38-4.12 1.81-5.25 1.81Z" class="st17"/><path d="M349.36 726.93c-.46 0-.87-.29-1.22-.87-.01-.02-.02-.03-.02-.04-.05-.07-.04-.17.03-.22s.17-.04.22.03c0 .01.02.03.05.07.11.18.45.75.99.72.75-.04 3.05-.55 3.3-.77.03-.03.03-.04.03-.06 0-.11-.18-.29-.29-.38-.07-.05-.08-.15-.03-.22s.15-.08.22-.03.41.32.42.62c0 .12-.04.23-.14.31-.35.3-2.77.8-3.49.84h-.06Zm-18.17 9.36c-.6 0-1.18-.09-1.57-.21-.37-.11-.62-.28-.74-.51a.66.66 0 0 1-.05-.5.17.17 0 0 1 .2-.1c.08.03.12.12.1.2 0 0-.04.13.03.26.08.15.27.27.54.35.61.17 2.13.38 2.94-.11.27-.16.42-.38.48-.66.28-1.38.28-2.04.28-2.04 0-.09.07-.16.16-.16s.16.07.16.16c0 .03 0 .69-.29 2.11-.07.37-.29.66-.62.87-.43.26-1.02.35-1.61.35Z" class="st17"/><path d="M329.09 735.16c-.09 0-.16-.07-.16-.15 0-.09.07-.16.15-.16l4.13-.11c.09 0 .16.07.16.15 0 .09-.07.16-.15.16z" class="st17"/><path d="M334.29 735.8c-.09 0-.18 0-.24-.01-.33-.04-.56-.16-.69-.37-.2-.32-.07-.71-.07-.73.03-.08.12-.13.2-.1s.13.12.1.2c0 0-.09.27.04.46.08.12.23.2.46.23.94.11 3.83-.49 4.07-1.18.22-.64-.1-2.66-.24-3.39-.02-.09.04-.17.12-.18.09-.02.17.04.19.12.02.11.52 2.7.23 3.55-.3.87-3.07 1.4-4.16 1.4Z" class="st17"/><path d="M333.73 734.91a.16.16 0 0 1-.15-.12.16.16 0 0 1 .11-.19l4.6-1.18c.08-.02.17.03.19.11a.16.16 0 0 1-.11.19l-4.6 1.18h-.04Z" class="st17"/><path d="M339.62 734.41c-.81 0-1.22-.64-1.24-.67-.05-.07-.02-.17.05-.22s.17-.02.22.05c.02.03.41.62 1.18.5.9-.14 4.31-1.29 4.93-1.82.5-.43.42-.7.36-.97l-.03-.14c-.02-.09.04-.17.13-.18.09-.02.17.04.18.13 0 .04.02.07.03.11.08.29.19.73-.45 1.29-.72.62-4.22 1.76-5.09 1.9-.09.01-.18.02-.26.02Z" class="st17"/><path d="M338.55 733.75c-.06 0-.12-.04-.15-.1-.03-.08.01-.17.09-.2.06-.02 5.91-2.15 6.59-2.58.07-.05.17-.03.22.05.05.07.03.17-.05.22-.7.45-6.41 2.52-6.65 2.61z" class="st17"/><path d="M346.08 731.67h-.02c-1.21-.02-1.93-2.68-2.01-2.98a.16.16 0 0 1 .11-.19c.08-.02.17.03.19.11.2.76.88 2.73 1.71 2.74h.02c1.1 0 3.47-1.57 3.68-2.05.2-.45-.24-.82-.26-.83l-1.61-1.23c-.07-.05-.08-.15-.03-.22s.15-.08.22-.03l1.61 1.23c.23.18.59.67.35 1.21-.28.64-2.81 2.24-3.97 2.24Z" class="st17"/><path d="M350.56 728.82c-.38 0-.68-.1-.7-.11-.08-.03-.13-.12-.1-.2s.12-.13.2-.1.78.26 1.35-.11c.54-.35 1.42-1.31 1.01-1.98-.05-.07-.02-.17.05-.22s.17-.02.22.05c.52.84-.35 1.94-1.1 2.42-.3.19-.63.25-.92.25Z" class="st17"/><path d="M349.86 728.63s-.08-.02-.11-.05a.157.157 0 0 1 0-.22l2.06-2.06c.06-.06.16-.06.22 0s.06.16 0 .22l-2.06 2.06s-.07.05-.11.05" class="st17"/><path d="M345.37 731.15a.17.17 0 0 1-.13-.07.16.16 0 0 1 .04-.22c.01 0 .05-.03.33-.19.88-.51 3.56-2.05 3.91-2.34.07-.06.17-.05.22.02.06.07.05.17-.02.22-.33.27-2.41 1.48-3.95 2.37-.18.11-.3.17-.32.18-.03.02-.05.02-.08.02Zm-.31 14.79c-.17-.54-3.16-11.71-4.38-16.27-.09.05-.19.09-.29.13-.2.07-.41.11-.61.15 4.36 16.28 4.39 16.34 4.45 16.43.09.14.24.21.39.21.09 0 .18-.03.26-.08.19-.12.26-.36.18-.56Zm-.05-.09" class="st17"/><path d="M357.3 758.1s3.71 2.25 6.72 3.43 6.54 3.31 7.35 3.43 14.14-7.04 16.97-8.75 6.24-4.49 8.08-4.98-11.74-5.66-11.74-5.66-16.83 7.58-21.89 9.79-6.39 2.21-5.49 2.74" style="fill:#5ea9ff"/><path d="M357.3 758.1s3.71 2.25 6.72 3.43 6.54 3.31 7.35 3.43 14.14-7.04 16.97-8.75 6.24-4.49 8.08-4.98-11.74-5.66-11.74-5.66-16.83 7.58-21.89 9.79-6.39 2.21-5.49 2.74" style="fill:none;stroke-linecap:round;stroke-linejoin:round;stroke:#3a539c;stroke-width:.42px"/><path d="M321.64 747.42s3.54 2.9 5.53 3.54 3.33.91 4.08 1.93 2.36 2.2 6.28 4.08 7.51 3.97 8.1 3.86 8.48-3.92 9.55-4.35 4.72-2.15 4.99-2.58-14.86-4.08-16.69-4.78-8.64-3.22-10.19-3.86-12.34 1.39-11.64 2.15Z" style="fill:#ffabc2"/><path d="M321.64 747.42s3.54 2.9 5.53 3.54 3.33.91 4.08 1.93 2.36 2.2 6.28 4.08 7.51 3.97 8.1 3.86 8.48-3.92 9.55-4.35 4.72-2.15 4.99-2.58-14.86-4.08-16.69-4.78-8.64-3.22-10.19-3.86-12.34 1.39-11.64 2.15Z" style="fill:none;stroke-linecap:round;stroke-linejoin:round;stroke-width:.42px;stroke:#b83e60"/><path d="M374.76 752.56s.51-.52 1.04-1.36.96-1.59.95-1.77-.24-2.77-.18-3.17.18-.84 1.06-1.04 1.86-.1 2.06 0 9.99 4.42 10.24 4.78.48 1.03.47 1.48-.04 1.35-1.96 1.52-5.3.28-5.44.35-3.45 1.4-4.07 1.82-4.56-2.42-4.17-2.59Z" class="st27"/><path d="M373.05 753.58s.14-.31.73-.74 1.49-.07 1.49-.07 2.45 1.38 2.97 1.89.3.31.5.8c.21.52-.24 1.97-.38 2.29-.02.05-.75.52-.71.18s-.08-1.86-.08-1.86-.44-.92-1.61-1.43-1.79-.75-2.1-.82-.94-.1-.8-.25Z" class="st21"/><path d="M378.25 757.87s.38-1.79-1.14-2.77-2.12-1.09-2.83-1.27-1.21-.14-1.21-.14l.06-.35c.03-.05-.88.23-1.56.54s-1.46.79-1.97 1.06c-.59.32-2.27 1.45-2.27 1.45l-.98.76s-.14-.49-.11-.81.06-.55-.13-.6-.43.08-.43.08-.33.02-.4.1-.17.14-.17.14-.17-.06-.23.06-.13.27-.13.27-.32-.03-.25.25.37 1.07.45 1.33.16 1.45.86 1.38 1.18-.28 1.54-.49 2.15-.84 2.19-.88 1.51-.53 1.51-.53-.16.84-.3 1.04-.6.65-.88.72-.76.47-.66.68.41.39.41.39l.41.31.47.23s1.6-.18 1.91-.55.74-1.23.89-1.75.43-.91.43-.91 1.3.97 1.95 1.23 2.28.21 2.57-.96Z" class="st27"/><path d="M369.98 759.8s-.69.51-.06.68m.44-.46s-.67.54-.05.68" class="st7"/><path d="M383.97 751.26s-1.19.46-1.62.6-1.06.76-1.06.76-.13.97-.39 1.55-1.18.53-1.59.28-1.81-1.84-1.81-1.84l-.28-.22s-1.13-.18-1.32-.25-.49-.17-.61-.62.21-1.12.37-1.46.68-.63.87-.63.73.08.73.08h.49s.5-.01.58-.02 1.06.18 1.06.18l.42-.06.35.4s-1.27-.1-1.45-.11-.98.08-.98.08-.05.63-.08.98-.23.9-.23.9.07.17.22.06 1.54-.72 2.31-.59 1.15.65 1.15.65 1.2-.62 1.39-.71.3-.17.3-.17 1.22.09 1.18.15Z" class="st21"/><path d="M377.42 749.56c.38-.03.84-.08 1.88.02" class="st12"/><path d="M373.17 753.3c-1.08-.07-4.62 2.12-6.79 3.77m9.01-5.18s-.4.58-.75.74m5.27 2.06c-.54.27-.92.52-1.09.73m11.43-4.89s.59 1.5-.68 2.23c-1.09.63-6.64.64-6.64.64s-1.03.38-2.07.84" class="st7"/><path d="M380.12 750.1s-1.82-.29-2.34-.06m3.29 1.96s.62-.51 1.91-.88m-1.7 1.44s1.36-1.08 2.8-1.38" class="st12"/><path d="M380.44 750.21c-.13.07-.44.39-.57.28-.02-.07.3-.31.38-.46.12-.17.36.06.19.19Z" class="st30"/><path d="M379.13 745.22s-2.3-.4-2.53.74.24 3.41.27 3.46" class="st7"/><path d="M377.45 751.87s.47-1.5.2-2.01-1.31-.68-1.84-.04-.7 1.71-.35 2.04 1.67.37 1.77.45 1.26 1.56 1.92 2.06 1.3.26 1.63-.05.75-1.46.26-2.27c-.36-.6-1.16-.93-2.11-.63s-1.55.84-1.47.45Zm-4.25 1.39c.36-.37 1.37-.61 1.37-.61s1.74.14 4.19 2.71c0 0 .29 1.5-.61 2.71" class="st12"/><path d="M374.02 756.89s-.63 1.56-.95 2.34c-.4 1.01-1.04 1.29-2.02 1.53s-.6-.3-.35-.44m.31-2.89s-3.43 1.14-4.25 1.67c-.26.17-.74.39-1.34.11s-.39-1.48-.79-2.13-.02-.77.19-.69" class="st7"/><path d="M366.61 757.8s-.18-.45-.33-1.03.11-1-.22-1.06-.47.27-.38.61m-.03-.5s-.62-.04-.44.43" class="st7"/><path d="M365.2 755.99s-.65.05-.31.55" class="st7"/><path d="M373.2 753.26c.04.11.06.1.07.28" class="st12"/><path d="M379.8 749.62s-2.05-.2-2.65-1.06-.38-1.48.14-1.69 1.01-.26 1.26-.61.35-.46.41-.48 1.46-3.23 1.56-3.73.79-1.66 2.04-1.97 2.68.39 2.68.39 1.29.52 1.44.54 1.36.5 2.26 1.22 1.29 1.97 1.38 2.23.06.51.06.51.67.63 1.03 1.74.11 2.09-.09 2.44-.74 1.06-1.39 1.77-1.01.87-1.12 1.22-.6 1.65-1.12 2.13-1.77.58-2.66 0-1.15-1.57-.99-2.07.11-.54.2-.8-4.44-1.76-4.44-1.76Z" style="fill:#7a3f1c"/><path d="M387.16 746.41s-.04-.96.07-1.31.29-.83.29-.83-1.16-1.78-2.94-2.1-3.02.24-3.24.4-1.46 1.41-1.93 2.3-1.18 2.32-.41 3.59 1.92 2.28 3.32 2.58 2.81-.16 2.9-.16.35.2.44.3.94.48 1.59.35 1.55-.67 1.45-1.23-.21-.66-.68-.88-.85-.27-.85-.27c-.23-.02-.43-.03-.8-.12s-.96-.32-.62-.31 1.09-.42 1.15-.66.3-1.51.26-1.64Z" class="st27"/><path d="M388.07 749.23s-.72-2.35-1.04-2.81-1.23-1-1.47-1.16-1.05-.59-1.35-.68-.43.07-.57.02-.6-.16-.74-.38-.23-.93-.95-1.35-1.39-.71-1.56-.64-.32.26-.33.4-.52.94-.52 1.39.24 1 .53 1.18.54.3.54.3-.06-.44.28-.45.93.1.98.13.39-.27.52-.33.22-.09.34.02.17-.04.12.3-.65 1.34.12 2.01 1.25.81 1.71.91 1.1-.08 1.26-.27.61-.57.61-.57l.97 1.88.56.1Z" style="fill:#24d6ff"/><path d="M386.88 748.14s-.21.45-.96.61.84.49 1.47.3" class="st6"/><path d="M390.25 744.9c0-.07 1.55 1.07 1.22 3.45-.3 2.15-2.5 2.92-2.89 4.17s-.65 2.43-2.73 2.09-2.03-2.78-1.37-3.46" class="st6"/><path d="M387.68 744.36c-.28.79-.52 1.7-.27 2.5.02.06 0 .12-.07.14-.05.02-.11-.01-.13-.06-.33-.89-.12-1.83.13-2.7.03-.1.13-.15.23-.12s.15.14.11.24" class="st0"/><path d="M381.56 742.53s.56-.03 1.03.15.56.41.53.53-.28.28-.61.08-.95-.77-.95-.77Z" class="st30"/><path d="M380.34 742.12c.78-3.45 5.65-2.53 7.17-.11.1.13-.11.28-.2.15-1.51-2.02-5.79-3.05-6.61.02-.04.23-.4.16-.35-.06Z" class="st0"/><path d="M390.15 744.85c-.25-2.16-2.38-3.51-4.33-4.03-.15-.04-.09-.27.06-.23 2.11.53 4.32 1.9 4.63 4.25.03.25-.37.27-.36.01" class="st0"/><path d="M387.45 744.29s-.93-1.39-2.34-1.93-3.3-.14-3.52.13" class="st6"/><path d="M379.01 745.75c-.29.52-.78.91-1.35 1.06-.5.12-.74.68-.59 1.15.32 1.04 1.56 1.41 2.56 1.44.24 0 .23.38-.01.36-1.12-.07-2.48-.51-2.83-1.73-.18-.6.16-1.34.8-1.48.52-.12.96-.47 1.23-.92.07-.12.26-.01.19.11Z" class="st0"/><path d="M379.5 744.61s-2.27 3.19.79 5.43c2.57 1.89 5.04.78 5.04.78" class="st7"/><path d="M383.56 745s-.59.78-.49 1.43.95 1.32 1.8 1.28 1.57-1.15 1.36-1.4c-.55-.63-2.31-1.71-2.66-1.31Zm-3.16-2.03s-.48.62-.52 1.09.79 1.01.79 1.01.31-.19.61-.08.37.09.37.09.7-.61.74-.89c.04-.35-.57-.93-1.1-1.22-.61-.34-.89 0-.89 0" class="st22"/><path d="m381.96 745.2.54-.41s.18 0 .41.27c0 0-.76 1.24-.03 2.04s1.42 1.05 2.17 1.02 1.5-.85 1.5-.85l.96 1.89" class="st8"/><path d="M388.09 749.33s-.71-2.62-1.23-3.11-2.37-1.93-3.3-1.6c0 0-.53-.4-.76-.45 0 0-.25-.99-1.06-1.43s-1.64-.8-1.67-.03c0 0-.78.84-.55 1.66s.97 1.1.97 1.1" class="st8"/><path d="M380.37 747.08c.03-.13.21-.13.25-.05a2.94 2.94 0 0 0 2.41 1.1c.09 0 .1.14 0 .15-.98.08-1.98-.33-2.62-1.08.01.03.13.07.19 0 .03-.04.03-.06.03-.07-.02.17-.3.13-.27-.04Zm6.01-1.74s-.18-.39-.74-.67c-.67-.33-1.09-.33-1.09-.47s.3-.46.54-.43.93.53 1.16.8c.38.44.27.86.12.77Zm-.24 4.83c.11.03.22.07.32.07.11-.01.06 0 .09-.14-.04-.34.35-.44.61-.43.51-.09 1.33.37.8.93-.09.07-.19-.06-.11-.13.36-.55-.63-.69-1-.55-.17.06-.04.27-.17.42-.2.17-.43.01-.59-.11-.03-.03 0-.08.04-.07Zm-5.48-3.99c-.62-1.59.33-1.54 1.46-.96.1.02.07.17-.02.16-.98-.2-1.65-.75-1.29.75.03.09-.11.14-.15.05" class="st30"/><path d="M385.4 750.54s-.37.87 1.5 1.01 2.82-2.35.03-2.36m-13.11 8.32c.06.08 3.3 2.94 4.31.57.72-1.7-.76-2.81-.76-2.81s-2.44-1.72-4.2-1.64-2.22 4.44-2.22 4.44-.03.3-.22.6-1.43.62-1.54 1.09.38.46.38.46" class="st7"/><path d="M348.68 751.45s.36.48.38.86" class="st13"/><path d="M343.58 743.74s.91-.59 2.04-.45 2.54.98 2.84 1.73 1.48 2.77 1.5 2.88.3.11.5.46.39.93.39 1.13.14.34.04.61-.38 1.06-.43 1.18-.06.41-.02.52c.06.15.96 1.97.97 2.39 0 .61-.42.97-1.07.78-.52-.15-.79-.09-1-.21s-.36-.3-.38-.36-.05-.27-.05-.27-.11-.16-.2-.14-1.47.27-1.47.27.68.29.84.45.09.3.09.3.05.23 0 .34-.16.39-.27.45-.7-.18-.7-.18-.59.16-1.38.23c0 0-2.2.98-3.88.5 0 0-1.16-.46-1.47-2.24 0 0-1.45-.7-3.04-1.09s-3.34-.72-4.99-1.39-2.9-1.57-2.9-1.57-1.81-.21-1.65-.55.63-.5 1.07-.89.82-.75 1.18-.7.57.3.57.3.38-.27.54-.39.84-.79 1.36-.89.91.23.91.23 2.11.32 3.61.23 1.82.16 1.82.16-.07 1.06-.52 1.81-.95 1.38-1.06 1.81.13 1.2.84 1.5 1.16.18 1.16.18.57.89 1.48.82 1.34-.3 1.48-.63.36-.84.36-.84.57.54.88.32.34-.61.34-.61-1.07-.48-1.45-1.07c0 0-1.29.34-2.09-.14s-.73-1.09-.61-1.59.82-.48.82-.48l1.02.36s.21-.11.29-.41.09-1.23.05-1.66.14-.7.34-1.29.14-.64.2-.89.97-.8 1.06-.98Z" class="st27"/><path d="M344.08 752.28s-.03.72-.25 1.03-.42.51-.3.64.78.08.78.08.23-.04.35-.44.3-1.09.3-1.09-.15-.35-.44-.48-.43-.12-.43.25Zm-4.69-4.54s-.44-.46-1.35-.34-1.34.36-1.34.36-1.61.15-1.96 1.42.56 2.92.9 3.18.45.4.45.4l1.28.26.2-.21s.54-1.85.68-2.17 1.14-2.9 1.14-2.9" class="st14"/><path d="M352.74 748.89c-.18-.5-.72-.86-1.04-1.09s-1.22-.86-1.41-1.38c-.2-.52-.52-1.27-.54-1.81s.07-2.41-1.86-3.33-3.7-.23-3.7-.23l-.57.18s-1.5.21-2.07.97c0 0-1.38.55-1.29 1.63 0 0-1.02.64-1.11 1.84s-.05 2.68-.3 3.13-1.25 1.48-1.39 2.32.14 1.14.43 1.34 1.25.5 1.31.5.7.38 1.22.57 1.21.21 1.53-.13.76-1.08.81-1.08.64.2.89.09.34-.54.34-.55c-.34-.1-.79-.27-1-.5-.36-.39-.41-.57-.7-.5s-1.79.27-2.38-.66.02-1.45.43-1.5.79-.05 1.06.07.57.09.63-.14c.05-.23-.18-1.82 0-2.24.18-.41.41-1.32.43-1.43s.11-.64.32-.63c.21.02.86-.7 1.11-.95s-.14.2.34.02 1.14-.3 2.25.02 1.88 1.23 2.09 1.65c0 0 .98 1.7 1.14 2.07.16.38.39.86.64 1s.7 1.54.5 2.15c-.02.06-.06.12-.11.2.22 0 .47 0 .74-.05.79-.14 1.45-1.04 1.27-1.54Z" style="fill:#f6b025"/><path d="M348.64 751.53s-.74.26-.68.44.52 1 .35 1.17-1.57.55-1.65.59-1.62.2-1.34.31 1.44.09 1.58.13 1.13.17 1.44.09.55-.5.63-.99.09-1.08.09-1.13-.2-.64-.41-.61Z" class="st14"/><path d="M347.99 751.79c1.94 2.06-1.76 2.16-3.09 2.31-.1 0-.11-.15 0-.16.82-.07 1.63-.23 2.4-.49.35-.14.87-.26.92-.5.06-.29-.2-.67-.45-.94-.16-.15.09-.39.23-.22Z" class="st26"/><path d="M347.17 754.27s1.48.39 1.76-.77" style="stroke-width:.21px;fill:none;stroke-linecap:round;stroke-linejoin:round;stroke:#c42727"/><path d="M337.59 753.13s1.48.18 2.86.98" class="st7"/><path d="M343.94 751.88c.34.34.14 1.66-.43 1.79" class="st13"/><path d="M344.96 752.1c.04.69-.05 1.32-.4 1.92-.03.04-.08.05-.12.03s-.05-.08-.03-.12c.26-.49.3-1.18.25-1.72-.09-.22.24-.35.3-.11" class="st26"/><path d="M340.5 753.74s0 2.07 1.63 2.63 3.65-.57 3.65-.57.89 0 1.43-.18c0 0 .66.27.86.02s-.64-.45-.64-.45" class="st7"/><path d="M343.28 754.02c1.65-.05 3.64-.41 5.03.67.1.14.07.34 0 .46a.14.14 0 0 1-.19.04.144.144 0 0 1-.05-.18c.16-.34-.57-.46-.81-.57-1.29-.41-2.65-.23-3.98-.31-.07 0-.08-.11 0-.12Z" class="st30"/><path d="M343.35 752.54s0 .96.14 1.44m-7.5-1.24s-4-.85-6.49-2.78" class="st7"/><path d="M334.89 748.53s-3.09.02-4.11-.29c0 0-.5-.53-1.13-.23s-.95.86-1.56 1.18.25.87 1.39.8" class="st7"/><path d="M337.69 747.45s-3.09.02-4.11-.29c0 0-.5-.53-1.13-.23s-1.05.93-1.65 1.25" class="st7"/><path d="M337.66 752.4c-.12.42-.07.73-.07.73l-1.5-.36s-1.77-1.15-1.5-3.15c.23-1.77 2.06-1.82 2.06-1.82s.84-.42 1.59-.45c.32-.01.59.05.8.15" class="st13"/><path d="M350.19 745.99c.17.52.15.75 1.84 2.01s.08 2.47-1.11 2.59" class="st5"/><path d="M340.63 748.43s.98-1.48 1.18-1.61 1.48-.39 2.13-.71 1.73.15 1.73.15.91-.27.97-.27.9-.74 1.99-.99 1.6-.05 1.6-.05l.11.59s-.17.19-.13.34.52 1.6-.6 2.05-1.6.13-1.6.13.12-.27-.17-.4-.74-.16-.74-.16-.21-.64-.44-.75-.52-.08-.56.15.01 1.92-1.15 2.29-1.54.13-1.82-.04-.89-.71-.89-.71l-.25-.63-.75.75s-.54.16-.58-.12Z" style="fill:#fa48bf"/><path d="M341.76 748.93s.46-.42.15-1.15" class="st5"/><path d="M348.3 744.95c-.97-1.52-3.02-1.98-4.62-1.21-.09.05-.16-.1-.06-.14 1.69-.87 3.86-.42 4.95 1.18.13.18-.16.36-.27.17m-8.98 7.46c.73 1.39 2.79 1.4 3.22-.21.02-.09.11-.15.2-.12.39.26 1.01.54.96-.19-.04-.21.28-.26.31-.05.05.36-.12.79-.53.84-.38 0-.63-.16-.89-.32 0 0 .26-.11.25-.09-.2 1.41-1.89 2.08-3.04 1.28-.37-.24-.64-.65-.63-1.1 0-.08.11-.1.14-.03Z" class="st25"/><path d="M348.68 751.5s.27.25.38.56" class="st13"/><path d="M343.26 741.65c2.35-2.46 7.23-.35 6.62 3.18-.02.21-.35.16-.31-.05.39-3.32-3.78-4.87-6.2-3.04-.06.06-.17-.03-.11-.1Z" class="st25"/><path d="M343.33 743.87c1.66-2.53 4.73-1.88 5.56.95.07.19-.23.3-.3.11-.92-2.63-3.32-3.04-5.12-.96-.06.09-.21 0-.15-.09Z" class="st25"/><path d="M349.95 747.74c.04.17.06.37.06.67m-7.58 2.38s1.39 1.9 4.72 1.27c1.73-.32 2.45-1.43 2.72-2.47" class="st7"/><path d="M342.57 744.45c.03.86-.24 1.7-.62 2.46-.04.08-.13.11-.21.07a.153.153 0 0 1-.07-.21c.4-.69.58-1.67.9-2.31Z" class="st25"/><path d="M347.13 747.47a4 4 0 0 1-.35-.54s-.16-.3-.52-.2-.2.36-.23.8-.31 1.7-1.79 1.86-1.9-.86-2.31-1.68l-.7.8" class="st11"/><path d="M340.54 748.59c0-.07 1.16-1.65 1.16-1.65s1.66-1.29 3.93-.7c0 0 .66-.25.97-.2 0 0 .91-1.32 3.58-1.18l.14.63-.16.25s.77 1.73-.79 2.25c-.58.19-1.04.19-1.4.08" class="st11"/><path d="M345.5 749.54c.82.18 1.72.16 2.45-.31.03-.02.06 0 .08.02-.48.81-1.8.89-2.62.55-.15-.06-.07-.3.09-.25Zm-2.69-3.54s.45-.24 1-.31 1.02.11 1.07-.05-.12-.5-.59-.5c-.8 0-1.41.49-1.48.87Zm5.86-1.28s-.43.02-.97.16-.91.48-1.02.35-.07-.51.36-.69c.75-.3 1.42-.15 1.62.17Z" class="st30"/><path d="M341.9 749.12s-.77-.86-1.79-.39-.18 2.99 2.31 2.06" class="st7"/><path d="M343.96 746.47s-1.32.17-1.38.71.29 1.71 1.25 1.86 1.79-.91 1.84-1.65-.55-1.1-1.71-.91Zm4.33-1.13s1.27-.4 1.55.07.45 1.67-.36 2.21-2-.08-2.36-.74.04-1.23 1.18-1.54Z" class="st22"/><path d="M346.66 747.24c.39.17.67.09 1.12.17.52.21.27 1.01-.18 1.17-.11.04-.18-.12-.08-.18.17-.12.37-.59.14-.71-.09-.04-.34-.04-.53-.08-.34-.03-.84-.38-.47-.37m-4.76 2.9c-.24.12-.68.06-.72-.27.01-.23-.04-.4-.17-.54-.28-.32-.81.02-.63.43.02.05-.06.09-.09.04-.12-.2-.1-.53.14-.69.48-.38 1.06.25 1.01.73-.01.06.22.11.42.13.09 0 .12.14.03.17Z" class="st30"/><path d="M341.85 743.68c-1.04-.14-2.09.48-2.44 1.43-.37.98-.06 2.06-.24 3.18-.71 1.96-3.43 3.96.25 4.53.21 0 .19.34-.02.31-1.11-.05-2.62-.77-2.1-2.12.35-1.1 1.3-1.83 1.57-2.79.18-.99-.12-2.14.28-3.22.38-1.07 1.64-1.8 2.74-1.43.06.02.04.11-.03.1Z" class="st25"/><path d="M340.21 743.79s0-1.27 1.38-1.58c0 0 .62-.94 2.29-.94" class="st5"/><path d="M349.68 748.84c-.06-.05-.11-.43.38-.39s.8.79.78 1.14" class="st7"/><path d="M349.42 750.89c-.26.42-.09.62-.14.79-.24-.18-.18-.63-.1-.91.02-.07.1-.11.17-.09.09.03.12.13.07.21" class="st30"/><path d="M349.99 748.04s.73.05.75 1.08m-1.62 2.17c.02.72-.22 1.91-.21 2.77 0 .62.63.77 1.07.84 1.65.28 1.51-.96 1.51-.96-.09-.61-1.18-2.58-1.15-2.56 0 0 .38-.66.56-1.23s-1.15-1.74-1.39-1.09c-.11.29.5.46.64.73m-2.69 5s.99.23.67.61" class="st7"/></svg>