<svg xmlns="http://www.w3.org/2000/svg" width="163" height="40" viewBox="0 0 163 40"><style>.s0{fill:#a1c34a}.s2{fill:#e3ca62}</style><path d="M80.87 36.02c-1.74-.35-15.01-3.74-19.34-6.78-4.3-3.03-10.81-2.94-19.3-3.96-8.39-1.01-15.3-4.08-18.86-7.37-3.55-3.28-5.13-7.6-5.94-10.77-.5-1.96-1.67-3.45-3.15-4.21q-1.25.46-2.58.72-.36.11-.74.2c3.04.96 3.69 2.81 4.07 4.97.53 3.02 3.68 10.9 11.2 15.24 7.59 4.38 22.26 3.16 28.96 4.88C61.95 30.67 73.16 37.3 83.15 39c10.13 1.72 13.35-1.65 13.35-1.91-6.45.71-13.88-.72-15.63-1.07" class="s0"/><path d="M5.54 2.58s8.98 1.71 58.65.75c13.58-.63 40.68.59 50.46.54 27.36-.13 47.74-2.24 47.74-2.24s-5.57 7.43-7.89 13.71c-2.3 6.25-15.72 10.38-18.96 12.82s-6.86 2.53-9.6 2.54-12.37-.04-16.23 1.64-13.75 4.47-20.43 4-12.76-1.31-24.42-5.91c-11.49-4.53-15.93-5.37-23.15-5.57-7.14-.2-12.73-2.47-15.9-4.62-3.16-2.14-16.94-5.5-20.27-17.66" style="fill:#ffe785"/><path d="M124.42 29.94c-1.01.35-.35.14 1.23-.03q-.74-.13-1.23.03M156.55 5.2q-.36-.15-.73-.3c-1.05 2.03-2.19 4.31-3.52 6.87-5.32 10.23-7.34 12.06-11 15.16-3.63 3.09-5.98 3.43-10.58 2.94-2.02-.21-3.83-.1-5.08.03 2.31.36 6.37 2.38 10.41 2.2 4.93-.21 15.1-4.87 19.91-15.54 1.8-4 3.02-7.09 4.18-9.61-1.19-.61-2.37-1.23-3.59-1.75" class="s0"/><path d="M162.26 1.88s-8.96-.06-15.47 1.3c.39 1.02 4.3 5.31-.12 12.52-5.59 9.13-13.26 12.31-19.57 10.32-6.26-1.98-17.34.94-22.53 4.17-5.14 3.2-21.03 5.98-27.69.44-6.61-5.5-16.05-4.89-23.8-5.84-7.67-.94-18.92-2.62-24.86-7.41-5.21-4.2-19.16-7.64-18.38-14.09-5.14-.54-8.81-1.03-8.81-1.03.11 13.7 18.66 14.69 21.83 16.83 3.17 2.15 11.8 5.76 18.94 5.96 7.22.2 11.66 1.04 23.15 5.57 11.66 4.59 17.81 5.43 24.42 5.91 6.67.48 16.59-2.32 20.43-4s13.5-1.63 16.23-1.64c2.74 0 11.49.32 14.71-2.11 4.1-1.89 12.87-7.91 15.17-14.16 3.29-5.25 6.35-12.74 6.35-12.74" class="s2"/><path d="M113.16 4.71c-11.54 0-23.32-.24-34.51-.46-15.07-.3-29.31-.59-39.25-.15-16.69.61-38.01-1.25-38.22-1.27a.606.606 0 0 1-.55-.66.6.6 0 0 1 .66-.55c.21.02 21.47 1.87 38.07 1.26 9.97-.44 24.23-.15 39.32.15 28.43.58 60.66 1.23 83.04-2.15.32-.06.64.18.69.51s-.18.64-.51.69c-13.65 2.06-30.91 2.63-48.74 2.63" style="fill:#d4ae57"/><path d="M90.13 37.15c-7.9 0-16.38-2.2-27.33-6.85-8.35-3.55-13.73-4-18.93-4.43s-10.12-.83-17.29-4.37c-3.94-1.94-7.7-3.22-11.02-4.35C7.08 14.27.95 12.18.39 2.23A.65.65 0 0 1 1 1.54c.33-.03.67.25.69.61.51 9.08 5.99 10.94 14.29 13.76 3.35 1.14 7.16 2.43 11.17 4.41 6.95 3.42 11.74 3.82 16.82 4.24 5.31.44 10.79.89 19.34 4.52 15.99 6.8 26.6 8.27 37.84 5.25 2.73-.73 4.63-1.36 6.3-1.91 4.94-1.63 7.19-2.38 19.93-2.18h.59c15.45 0 26.2-9.34 33.81-29.36.13-.34.5-.5.84-.38.33.13.5.5.38.84-7.82 20.58-18.96 30.19-35.01 30.2h-.62c-12.51-.19-14.71.53-19.5 2.12-1.6.53-3.6 1.19-6.37 1.94-3.79 1.02-7.51 1.54-11.36 1.54z" style="fill:#4f7013"/><path d="M73.31 26.36c.01 1.47-1.64 2.59-3.68 2.49s-3.69-1.36-3.7-2.82 1.62-2.58 3.66-2.49 3.71 1.36 3.72 2.82m15.42.97c0 .47-.48.83-1.09.8s-1.09-.43-1.09-.9.48-.83 1.08-.8 1.09.43 1.1.9m38.35-5.36c0 .82-.67 1.46-1.49 1.43s-1.48-.73-1.47-1.55.67-1.46 1.48-1.43 1.48.73 1.48 1.55m-97.42-4.96c.01.7-.66 1.24-1.5 1.2s-1.53-.63-1.55-1.32.66-1.24 1.5-1.2 1.54.63 1.55 1.32m107.82 3.61c0 .38-.35.67-.78.65s-.78-.34-.77-.71.35-.67.78-.65.78.34.77.71" class="s2"/></svg>