<svg xmlns="http://www.w3.org/2000/svg" width="182" height="24" viewBox="0 0 182 24"><style>.s0{fill:#a1c34a}.s3{fill:#e3ca62}</style><path d="M179.5 2.64s-11.16 2.34-18.29 8-20.61 9.89-33.7 11.63c-13.08 1.74-35.4-2-38.18-1.55 0 0 18.18.87 28.37.05 10.19-.83 11.01-1.17 17.48-2.87 6.96-1.82 16.41-5.77 24.99-9.45 6.86-2.95 18.78-5.92 19.33-5.81" class="s0"/><path d="M-1.15 1.29h.01z" style="fill:#a7d42f"/><path d="M76.48 21.46c-9.41-.02-22.8.6-35.94-.52C28.2 19.89 21.45 17.72 15.71 14c-2.09-1.35-3.49-2.61-4.57-3.76q-.35.93-.66 1.87c2.19 2.81 5.09 5.53 10.4 7.23 8.1 2.6 15.85 3.76 29.41 3.99 9.8.17 17.83-.99 26.63-1.86h-.45z" class="s0"/><path d="M180.98 2.27c-22.74 6.03-35.92 19.38-70.17 18.52-30.06-.75-38.51 1.94-64.8.73-23.38-1.07-31.23-7.57-35.58-12.22C5.88 4.44 1.5 1.61 1.5 1.61c-.62.53 10.81-1.05 23.31.31C38.09 3.37 65.07 4 82.67 4.75c19.1.82 39.33 1.91 57.3-.35 19.19-2.42 41.01-2.15 41.01-2.15z" style="fill:#ffe785"/><path d="m1.65 1.72-.15-.1q-.08.07.15.1m169.67.39c-4.47 4.84-28.3 12.81-48.01 15.28-19.29 2.42-26.28-1.36-45.2-2.1-17.46-.68-25.6 4.56-40.56 3.01C23.65 16.86 16.6 12 12.49 6.84 9.82 3.49 6.87 2.13 5.24 1.6c-1.87.09-3.15.17-3.59.12.8.54 1.17 2.63 5.23 6.96 4.35 4.65 15.75 11.77 39.13 12.84 26.29 1.21 34.74-1.49 64.8-.73 34.26.86 59.66-7.42 70.52-18.38 0 0-3.16-.37-10.01-.3" class="s3"/><path d="M121.24 6.23c-5 0-11.03-.19-19.3-.46l-5-.16c-3.39-.11-7.39-.22-11.77-.35-21.14-.61-50.1-1.44-60.44-2.76-11.47-1.47-23.6-.28-23.72-.27a.58.58 0 0 1-.63-.52c-.03-.32.2-.6.52-.63.12-.01 12.37-1.22 23.98.27C35.16 2.67 64.08 3.5 85.2 4.1c4.38.13 8.38.24 11.77.35l5 .16c17.81.57 25.18.81 34.21-.5 9.33-1.36 41.41-3.84 45.23-2.38.3.11.45.45.33.74-.11.3-.44.45-.74.33-3.4-1.3-34.48.96-44.65 2.44-4.9.71-9.31.97-15.11.97z" style="fill:#d4ae57"/><path d="M59.18 22.49c-3.95 0-8.27-.09-13.21-.31C20.79 21.03 5.68 10.74.4 2.28c-.19-.3-.1-.71.21-.9s.71-.1.9.21c5.12 8.19 19.86 18.16 44.53 19.29 13.51.62 22.37.2 31.74-.24 9.06-.43 18.43-.87 33.04-.5 34.25.87 62.93-8.77 69.87-18.19.21-.29.62-.35.91-.14s.35.62.14.91c-7.29 9.89-35.81 19.59-70.95 18.72-14.56-.36-23.91.07-32.95.5-5.98.28-11.76.55-18.66.55" style="fill:#4f7013"/><path d="M54.69 17c-.16.8-1.62 1.4-3.24 1.32s-2.78-.77-2.61-1.57 1.59-1.38 3.2-1.32 2.81.76 2.65 1.56zm8.86-7c-.04.22-.59.38-1.22.37s-1.11-.21-1.07-.42.59-.38 1.22-.36 1.11.2 1.07.41m-30.54 4.16c-.05.21-.38.36-.74.35s-.62-.19-.57-.4.38-.36.74-.35.62.19.57.4m-11.36-.61c-.07.31-.53.54-1.02.52s-.82-.28-.75-.59.53-.54 1.01-.52.83.28.76.59m78.63 4.07c-.07.48-.74.85-1.49.82s-1.29-.44-1.22-.92.74-.84 1.49-.81 1.3.44 1.23.92zm21.4-2.85c-.03.21-.46.37-.98.35s-.9-.2-.87-.41.46-.37.97-.35.9.2.88.41m9.91-4.31c-.02.19-.34.34-.71.33s-.65-.17-.63-.36.34-.34.71-.33.65.17.63.36m2 5.22c-.05.39-1 .68-2.12.64s-1.98-.39-1.93-.78.99-.68 2.1-.64 2 .38 1.95.78m-44.39.52c-.03.18-.29.32-.58.31s-.5-.17-.47-.34.29-.32.58-.31.5.16.47.34m58.57-6.97c-.02.16-.33.28-.69.28s-.65-.14-.63-.3.32-.28.69-.28.65.14.63.3M15.7 9.28c-.12.48-.77.85-1.46.83s-1.15-.42-1.03-.9.77-.85 1.46-.83 1.16.42 1.04.89zm-5.26-4.95c-.03.1-.18.18-.35.18s-.28-.09-.26-.19.18-.18.35-.18.28.09.26.19" class="s3"/></svg>