<svg xmlns="http://www.w3.org/2000/svg" width="110" height="61" viewBox="0 0 110 61"><style>.s2{fill:#59d1fc}</style><path d="M1.45 3.52C3.33 8.12 13.28 54.09 32.8 57.2c20.86 3.33 36.84 4.68 47.92-5.42C87.1 45.97 106.43 8.14 108.57.95L79.52 2.93l-13.99 1.4-18.32-.75-24.12.91-10.69-.56-10.94-.42z" style="fill:#4cb3d8"/><path d="M102.46 14.71c-7.17.86-19.72 4.46-28.01 7.28C62.7 26 56.76 20.97 45.01 16.41c-7.79-3.03-25.31 4.61-36.24 10.11 1.74 4.64 3.8 9.43 6.17 13.81 6.86-3.51 16.33-7.9 22.66-9.02 10.94-1.93 14.27 10 26.83 12.15 6.8 1.16 15.83.32 22.84-.75 4.84-7.87 10.79-19.03 15.19-28" style="fill:#39abd4"/><path d="m79.52 2.94-13.99 1.4-18.32-.75-24.12.91-10.69-.56-10.94-.42q.09.21.2.54c2.65.1 6.44.37 10.13 1.18 6.46 1.41 12.92 2.74 18.64 1.51s16.1-1.18 27.01.06c10.92 1.24 18.17-.36 23.63-1.85 5.46-1.48 16.09-1.44 20.81-1.28 1.9.07 4.08-.33 6.01-.83q.45-1.16.68-1.9L79.52 2.93z" class="s2"/><path d="M24.23 53.73s9.77 2.79 16.54 2.3c6.8-.49 10.15-.43 13.5-.43s6.07-2.89 9.69-3.11 12.24 1.33 14.84.65c0 0-2.43 4.45-18.34 6.36-4.23.51-13.04-.76-16.53-.93-13.02-.65-19.7-4.84-19.7-4.84" style="fill:#3885a1"/><path d="M23.6 4.89h-.57c-7.08-.07-9.58-.38-12.22-.71-2.12-.27-4.31-.54-9.1-.69-.19 0-.35-.17-.34-.36 0-.19.17-.33.36-.34 4.82.15 7.03.43 9.16.69 2.62.33 5.1.64 12.14.71 3.12.02 6.49-.2 10.07-.45 3.61-.25 7.34-.5 11.26-.53 3.09-.03 6.23.15 9.54.33 3.85.21 7.82.43 11.8.33 3.9-.1 7.88-.55 11.73-.98 3.13-.35 6.37-.71 9.54-.88l3.77-.2c6.03-.32 12.26-.65 17.81-1.22.21-.02.37.12.38.31.02.19-.12.36-.31.38-5.57.57-11.81.9-17.85 1.22L87 2.7c-3.14.17-6.37.53-9.5.88-3.87.43-7.87.88-11.79.98-4.01.11-8-.11-11.86-.33-3.3-.18-6.39-.35-9.49-.33-3.89.03-7.62.28-11.22.53-3.38.23-6.58.45-9.56.45z" style="fill:#468fc7"/><path d="M56.49 60.32c-7.18 0-15.14-1.09-23.8-2.47C15.65 55.13 5.81 20.77 2.1 7.83c-.63-2.2-1.09-3.8-1.35-4.44-.14-.33.02-.71.36-.85.33-.14.71.02.85.36.29.71.73 2.25 1.4 4.58C7 20.2 16.68 53.99 32.9 56.57c20.06 3.2 36.29 4.84 47.38-5.26C86.54 45.6 105.8 8 107.95.78c.1-.34.47-.54.81-.44s.54.46.44.81c-2.17 7.29-21.68 45.33-28.04 51.12-6.62 6.04-14.92 8.06-24.66 8.06z" style="fill:#4f7013"/><path fill-rule="evenodd" d="M32.22 38.53c-.78 0-1.41-.63-1.41-1.41s.63-1.41 1.41-1.41 1.41.63 1.41 1.41-.63 1.41-1.41 1.41m13.99 7.95c-.67 0-1.22-.55-1.22-1.22s.55-1.22 1.22-1.22 1.22.55 1.22 1.22-.55 1.22-1.22 1.22m8.82-18.7c-.78 0-1.41-.63-1.41-1.41s.63-1.41 1.41-1.41 1.41.63 1.41 1.41-.63 1.41-1.41 1.41" class="s2"/></svg>