<svg xmlns="http://www.w3.org/2000/svg" width="85" height="68" viewBox="0 0 85 68"><style>.s1{fill:#59d1fc}</style><path d="M1.22 4.55S3.48 18.8 5.97 26.27c2.61 7.83 9.92 27.26 21.66 33.28 11.74 6.03 21.12 11.28 34.29 1.96 9.5-6.72 15.72-22.05 17.67-28.21 2.28-7.2 3.03-18.74 3.32-22.15.45-5.28.79-8.68-.11-8.82-2.08-.32-7.51-1-16.55-.67-4.71.17-10.36 1.12-17.17 1.13-5.88 0-11.17-1.12-16.33-.93-18.02.69-31.92.09-31.92.09s.04.87.39 2.6" style="fill:#4cb3d8"/><path d="M83.2 4.16c.08-1.14 0-1.76-.4-1.82-2.08-.32-7.51-1-16.55-.67-4.71.17-10.36 1.12-17.17 1.13-5.88 0-11.17-1.12-16.33-.93-18.02.69-31.92.09-31.92.09l.01.18q.06.12.12.25s8.02 2.07 17.52 1.84c9.51-.23 14.76-1.16 20.51-.05 5.75 1.1 13.56 1.88 19.78-.02 6.21-1.9 17.03-.01 20.2.37 2.26.27 3.62-.12 4.21-.37z" class="s1"/><path d="M50.13 3.28c-3.21 0-6.24-.29-9.17-.57-2.49-.24-4.85-.46-7.1-.49-3.28-.03-6.27.18-9.16.38-2.64.19-5.13.36-7.38.3-7.79-.23-13.01-.5-15.24-.62q-.93-.05-1.19-.06-.07.01-.14 0c-.22-.04-.4-.24-.38-.47.03-.26.04-.36.51-.36h.07q.36 0 1.17.05c2.23.12 7.44.39 15.22.62 2.21.07 4.68-.11 7.3-.3 2.77-.2 5.91-.42 9.23-.39 2.29.02 4.66.25 7.17.49 2.99.29 6.1.58 9.33.57 2.57-.01 5.2-.28 7.99-.57 2.74-.28 5.58-.58 8.51-.63 2.48-.05 4.96.12 7.6.3 2.9.19 5.89.39 8.93.3h.01c.23 0 .41.18.42.41 0 .23-.17.43-.41.43-3.09.1-6.1-.1-9.01-.3-2.62-.18-5.09-.34-7.53-.29-2.9.05-5.71.35-8.44.63-2.81.29-5.46.57-8.07.58h-.25z" style="fill:#468fc7"/><path d="M2.69 9.25s11.67-4.63 14.05 1.07 5.44 8.58 15.69 4.06c10.24-4.52 8.46 4.23 14.5 6.49s11.67-4.76 19.28-4.8 16.1 1.74 16.1 1.74-1.17 11.72-2.5 15.06-2.53 6.42-10.08 1.68c-7.55-4.73-9.15-.88-18.97.68s-7.01-6.92-14.47-8.95c-7.46-2.02-8.92 1.7-14.21 1.38-5.28-.32-7.78-7.7-11.13-7.74s-5.57 1.87-5.57 1.87S1.79 9.49 2.69 9.25" style="fill:#39abd4"/><path d="M25.16 58.17s6.88-.07 8.97.54 9.14 1.75 11.43 2.07 7.87-2.44 10.34-1.45 6.21-.09 7.27-.54 1.76.1 1.76.1-7.09 7.51-14.54 7.95c-7.46.45-12.64-1.32-17.28-3.78s-7.94-4.88-7.94-4.88z" style="fill:#3885a1"/><path d="M47.21 67.74q-7.04 0-14.96-3.89C20.88 58.26 6.1 43.14.32 2.89Q.2 2.06.13 1.59C.07 1.24.31.9.67.85s.69.19.74.54q.08.49.2 1.32c5.7 39.69 20.12 54.52 31.21 59.98 7.97 3.92 15.26 4.77 21.69 2.55 11.75-4.07 18.18-17.47 21.63-24.68l.68-1.41c4.83-9.93 5.68-27.06 6.19-37.3h.65l.65.06c-.51 10.34-1.37 27.63-6.32 37.8l-.68 1.41c-3.54 7.37-10.12 21.1-22.38 25.34q-3.7 1.28-7.72 1.28" style="fill:#4f7013"/><path fill-rule="evenodd" d="M22.96 36.57c-.75 0-1.35-.6-1.35-1.35s.6-1.35 1.35-1.35 1.35.6 1.35 1.35-.6 1.35-1.35 1.35m11.82-12.1c-.71 0-1.29-.58-1.29-1.29s.58-1.29 1.29-1.29 1.29.58 1.29 1.29-.58 1.29-1.29 1.29m15.38 7.14c-.43 0-.77-.34-.77-.77s.34-.77.77-.77.77.34.77.77-.34.77-.77.77m9.15 22.69c-.43 0-.77-.34-.77-.77s.34-.77.77-.77.77.34.77.77-.34.77-.77.77m11.33-41.28c-.43 0-.77-.34-.77-.77s.34-.77.77-.77.77.34.77.77-.34.77-.77.77" class="s1"/></svg>