<svg xmlns="http://www.w3.org/2000/svg" id="_Шар_1" width="430" height="932" data-name="Шар_1" viewBox="0 0 430 932"><defs><style>.st0{fill:#2a4f62}</style></defs><path d="M418.76 747.72c-8.7-.48-33.29-7.23-49.58-6.09-47.37 3.3-67.32-21.64-102.23-22.76-30.58-.98-40.11 18.57-85.42 17.45-36.34-.89-89.02-3.14-114.46 3.55-25.44 6.68-67.03 7.89-67.03 7.89L0 932.03l430.01-.02.02-184.48-11.26.19Z" style="fill:#4a5c84"/><path d="M178.86 750.24c0-1.84-1.47-3.49-3.75-4.55.64-1.77.3-3.91-1.78-6.37-6.36-7.53-13.49-3.3-13.49-3.3s.82-7.27-7.35-9.83c-8.18-2.56-10.58 3.02-10.58 3.02s-1.28-2.25-4.07-2.59c-2.8-.35-4.45 2.83-4.45 2.83s-4.54-4.06-7.67-3.33c-3.13.74-4.54 4.39-4.54 4.39-2.84-2.74-5.53.38-5.53.38s-1.33-2.92-4.46-2.19a4.5 4.5 0 0 0-2.96 2.21c-1.08-.5-2.29-.78-3.58-.78-4.51 0-8.17 3.46-8.17 7.73 0 .87.15 1.7.43 2.47-1.55 1.01-2.63 2.53-2.88 4.26-2.98.93-5.09 3.19-5.09 5.83 0 3.47 4.89 7.38 9.38 7.38.2 0 .39-.01.58-.03 13.61 1.84 53.76 0 67.67-1.2 2.31-.2 4.13-.48 5.54-.83 3.94-.78 6.77-2.96 6.77-5.52Z" class="st0"/><path d="M96.64 756.26s-8.67-1.49-9.66 2.23c0 0-8.42-1.73-9.41 5.2s2.23 13.12 2.23 13.12-11.39-2.97-12.38 4.46 3.22 11.88 3.22 11.88-10.4 1.98-9.16 6.93 3.96 6.93 3.96 6.93-8.91-2.72-12.13.99-2.72 6.93-2.72 6.93-7.18-2.72-9.9 2.48 1.73 8.42 1.73 8.42-7.68 5.69-6.68 11.14c0 0-8.42-1.49-9.66 8.17s4.21 13.62 4.21 13.62l-4.46 73.43h169.1l42.34-.5s1.73-78.63-4.21-79.62c0 0 1.49-10.15-3.71-11.39s-7.18.99-7.18.99 7.18-10.89 3.22-14.11-11.14-.99-11.14-.99 6.68-13.62 3.96-14.86-7.68-1.24-7.68-1.24 3.71-6.93.5-9.16-5.45-.25-5.45-.25 7.18-10.89 2.72-14.36-10.4-3.47-10.4-3.47 2.48-9.9-1.73-12.38-10.4-1.24-10.4-1.24 3.96-5.69 1.73-7.68c-2.23-1.98-6.93-1.49-6.93-1.49s.96-13.48-5.46-14.79-18.55 3.15-18.55 3.15l-59.92 7.43Z" class="st0"/></svg>