<svg xmlns="http://www.w3.org/2000/svg" width="106" height="65" viewBox="0 0 106 65"><style>.s0{fill:#4cb3d8}.s2{fill:#59d1fc}</style><path d="M64.44 4.3 22.16 2.86 1.15 1.48c2.19 3.61 12.12 18.04 13.24 24.17 1.11 6.11 1.99 23.03 6.61 29.32 7.36 10.02 22.49 9.5 29.95 7.53 8.73-2.31 15.55-5.77 19.01-12.32 5.24-7.54 10.64-7.24 16.11-10.19 5.44-2.93 9.44-12.99 11.76-21.27 2.33-8.28 4.87-14.41 7.7-16.16L64.45 4.31z" class="s0"/><path d="M97.04 21.35q-2.29.98-4.77 2.6c-10.09 6.68-16.65 9.81-23.54 3.25-6.89-6.57-26.92 4.41-31.38 2.89s3.96-12.74-4.61-12.24c-5.31.31-13.21 4.32-18.45 7.32q.06.24.1.47c.55 3 1.03 8.59 1.94 14.26 3.78-1.22 5.49-.86 10.6.6 7.05 2.02 4.93 7.02 16.68 4.88s14.36-2.09 15.31 4.91c.43 3.21 3.43 4.73 6.6 5.39 1.81-1.55 3.31-3.37 4.45-5.52 5.24-7.54 10.64-7.24 16.11-10.19 4.87-2.62 8.59-10.97 10.98-18.63z" style="fill:#39abd4"/><path d="M73.78 6.28c9.43-1.48 16.39-1.13 22.68-.91 2.42.09 4.89-.29 7.03-.79q.99-1.39 2.02-2.04L64.43 4.29 22.15 2.85 1.14 1.47c.33.55.84 1.34 1.47 2.31 2.82.19 7.91.47 13.01 1.18 7.6 1.07 20.1.3 26.6.77s22.13 2.02 31.55.54z" class="s2"/><path d="M64.6 4.66h-.99c-4.08-.04-8.17-.31-12.13-.57-3-.2-5.83-.39-8.66-.48-3.55-.12-6.99-.12-10.31-.12-3.73 0-7.26 0-10.51-.17-7.08-.37-9.41-.67-12.12-1.01-2.04-.26-4.16-.53-8.62-.87a.37.37 0 0 1-.34-.4c.01-.2.17-.36.4-.34 4.48.34 6.6.61 8.66.87 2.69.34 5.01.64 12.06 1 3.23.17 6.75.17 10.47.17 3.33 0 6.77 0 10.33.12 2.84.09 5.68.28 8.69.48 3.95.26 8.03.53 12.09.57 4.37.04 8.77-.19 13.04-.42 2.56-.14 5.2-.28 7.75-.35l3.08-.09c6.4-.17 12.45-.34 17.77-.92.22-.02.39.13.41.33s-.12.39-.33.41c-5.35.58-11.41.74-17.83.92l-3.08.09c-2.53.07-5.18.21-7.73.35-3.95.21-8.03.43-12.09.43z" style="fill:#468fc7"/><path d="M51.7 61.16c-2.92.36-9.74-2.55-11.69-2.67s-3.72.67-6.38 0c-2.67-.69-5.01-2.6-6.96-3.17-1.42-.42-4.36-.19-5.85-.03 2.39 2.99 8.7 7.01 15.2 7.87 6.85.91 14.79-.75 20.76-2.39 1.46-.4 7.12-3.67 8.35-4.28-1.28-.55-5.17.06-6.82-.3-2.63-.57-3.7 4.62-6.61 4.98z" style="fill:#439ebf"/><path d="M41.47 64.28c-7.32 0-15.9-1.99-21.01-8.94-3.63-4.94-4.96-15.82-5.92-23.77-.29-2.36-.54-4.39-.8-5.82-.91-4.99-8.06-16.22-11.5-21.62C1.53 3.01.95 2.11.59 1.51A.64.64 0 0 1 .81.62a.64.64 0 0 1 .89.22c.36.59.93 1.49 1.64 2.6 3.75 5.89 10.73 16.84 11.68 22.08.27 1.46.52 3.51.81 5.89.9 7.36 2.26 18.49 5.68 23.16 7.31 9.96 22.34 9.12 29.26 7.28 9.86-2.61 15.6-6.31 18.61-11.99 3.88-5.59 7.87-7.06 11.73-8.48 1.53-.56 3.1-1.14 4.64-1.97 5.72-3.08 9.63-14.4 11.45-20.87 2.39-8.5 5.93-14.52 7.72-16.5a.65.65 0 0 1 .92-.04c.27.24.29.65.04.92-1.71 1.88-5.1 7.69-7.43 15.97-1.88 6.67-5.94 18.36-12.08 21.67-1.62.87-3.24 1.47-4.81 2.05-3.84 1.41-7.46 2.75-11.07 7.94-3.15 5.96-9.14 9.86-19.38 12.57-2.45.65-5.87 1.17-9.63 1.17z" style="fill:#4f7013"/><path d="M-6.78-.96h.02z" class="s0"/><path fill-rule="evenodd" d="M42.59 17.13c-.03.5-.44.88-.92.85s-.84-.46-.81-.96.44-.88.92-.85c.48.02.84.45.81.96M26.18 44.91c-.03.51-.44.89-.92.86s-.84-.46-.81-.96.44-.89.92-.86.84.46.81.96m28.64-13.9c-.03.5-.45.88-.93.85s-.84-.46-.81-.96.44-.88.92-.85c.48.02.85.45.82.96" class="s2"/></svg>