<svg xmlns="http://www.w3.org/2000/svg" xmlns:xlink="http://www.w3.org/1999/xlink" viewBox="0 0 430 932"><defs><linearGradient id="_Градієнт_без_назви_72" x1="335.08" x2="289.69" y1="661.27" y2="662.99" data-name="Градієнт без назви 72" gradientUnits="userSpaceOnUse"><stop offset="0" stop-color="#ffd182"/><stop offset="1" stop-color="#ffd182" stop-opacity="0"/></linearGradient><linearGradient id="_Градієнт_без_назви_69" x1="231.74" x2="284.51" y1="662.7" y2="663.05" data-name="Градієнт без назви 69" gradientUnits="userSpaceOnUse"><stop offset="0" stop-color="#fff982"/><stop offset="1" stop-color="#fff982" stop-opacity="0"/></linearGradient><linearGradient id="_Градієнт_без_назви_14" x1="287.03" x2="286.68" y1="1216.98" y2="1191.68" data-name="Градієнт без назви 14" gradientTransform="rotate(-5.78 -5024.148 1688.993)" gradientUnits="userSpaceOnUse"><stop offset="0" stop-color="#ffd9a3"/><stop offset="1" stop-color="#ffd9a3" stop-opacity="0"/></linearGradient><linearGradient id="_Градієнт_без_назви_22" x1="283.18" x2="282.57" y1="1239.07" y2="1194.67" data-name="Градієнт без назви 22" gradientTransform="rotate(-5.78 -5024.148 1688.993)" gradientUnits="userSpaceOnUse"><stop offset="0" stop-color="#ede43d"/><stop offset="1" stop-color="#ede43d" stop-opacity="0"/></linearGradient><linearGradient xlink:href="#_Градієнт_без_назви_14" id="_Градієнт_без_назви_141" x1="273.94" x2="273.5" y1="1236.99" y2="1205.32" data-name="Градієнт без назви 14"/><linearGradient xlink:href="#_Градієнт_без_назви_14" id="_Градієнт_без_назви_142" x1="282.64" x2="282.28" y1="1218.16" y2="1191.89" data-name="Градієнт без назви 14"/><linearGradient id="_Градієнт_без_назви_48" x1="251.23" x2="250.93" y1="1221.31" y2="1192.42" data-name="Градієнт без назви 48" gradientTransform="rotate(-5.78 -5024.148 1688.993)" gradientUnits="userSpaceOnUse"><stop offset="0" stop-color="#fff875"/><stop offset=".35" stop-color="#fff875" stop-opacity="0"/></linearGradient><linearGradient xlink:href="#_Градієнт_без_назви_14" id="_Градієнт_без_назви_143" x1="249.62" x2="252.02" y1="1218.94" y2="1196.8" data-name="Градієнт без назви 14"/><linearGradient id="_Градієнт_без_назви_54" x1="251.04" x2="251.54" y1="1218.51" y2="1200.82" data-name="Градієнт без назви 54" gradientTransform="rotate(-5.78 -5024.148 1688.993)" gradientUnits="userSpaceOnUse"><stop offset="0" stop-color="#edb83d"/><stop offset="1" stop-color="#edb83d" stop-opacity="0"/></linearGradient><linearGradient id="_Новий_зразок_градієнта_1" x1="288.39" x2="289.21" y1="855.48" y2="832.14" data-name="Новий зразок градієнта 1" gradientUnits="userSpaceOnUse"><stop offset="0" stop-color="#2fed6b"/><stop offset="1" stop-color="#2fed6b" stop-opacity="0"/></linearGradient><style>.st6{fill:#fed61c}.st10,.st8{font-family:Octosale,Octosale}.st12{stroke:#29221d}.st12,.st14,.st15,.st19,.st21,.st23,.st24{fill:none;stroke-linecap:round;stroke-linejoin:round}.st12,.st14,.st24{stroke-width:.99px}.st26{fill:#665e55}.st14{stroke:#99590a}.st31{fill:#2d2d2d}.st10,.st32{fill:#fff}.st33{fill:#a15504}.st36{fill:#fc9f38}.st15{stroke:#99700a}.st15,.st19{stroke-width:1.48px}.st37{fill:#fdf9ed}.st19{stroke:#665e55}.st39{fill:#ffe4a1}.st21{stroke-width:1.18px}.st8{font-size:5.58px}.st47{fill:#362d26}.st48{fill:#fdc484}.st8{fill:#828282}.st50{fill:#131517}.st10{font-size:13.69px}.st21{stroke:#ffd878}.st51{fill:#cc812d}.st53{fill:#b32e00}.st54{fill:#fda23a}.st55{fill:#dac1a6}.st58{fill:#7d786d}.st59{fill:#edb426}.st23,.st24{stroke:#211b18}.st60{fill:#42372f}.st23{stroke-width:.59px}.st61{fill:#211b18}.st62{fill:#874703}</style></defs><g style="isolation:isolate"><g id="_Шар_1" data-name="Шар_1"><path d="M-.77 643.9h430.86v289.23H-.77z" style="fill:#2b2b2b"/><path d="M-.85 641.34h430.86v3.03H-.85z" style="fill:#424242"/><rect width="178.18" height="15.73" x="236.12" y="655.22" rx="4.58" ry="4.58" style="fill:#081830"/><path d="M339.32 655.22H240.7a4.58 4.58 0 0 0-4.58 4.58v6.57a4.58 4.58 0 0 0 4.58 4.58h93.43z" style="fill:#fed40b"/><path d="M339.32 655.22H240.7a4.58 4.58 0 0 0-4.58 4.58v6.57a4.58 4.58 0 0 0 4.58 4.58h93.43z" style="fill:url(#_Градієнт_без_назви_72);mix-blend-mode:multiply"/><path d="M339.32 655.22H240.7a4.58 4.58 0 0 0-4.58 4.58v6.57a4.58 4.58 0 0 0 4.58 4.58h93.43z" style="fill:url(#_Градієнт_без_назви_69)"/><rect width="178.18" height="15.73" x="236.12" y="655.22" rx="4.58" ry="4.58" style="fill:none;stroke-linecap:round;stroke-linejoin:round;stroke-width:2.07px;stroke:#a15504"/><path d="M338.96 655.22h70.76a4.58 4.58 0 0 1 4.58 4.58v6.57a4.58 4.58 0 0 1-4.58 4.58h-75.09" style="fill:none;stroke-linecap:round;stroke-linejoin:round;stroke:#0465a1;stroke-width:2.07px"/><path d="m334.11 672.1 5.88-17.86-5.47-5.36s1.15 5.3 1.32 5.3-4.44-3.23-4.44-3.23l4.21 8.99-3.46-3.28 1.84 5.01-4.55-3.82s3.63 9.75 3.69 9.92-3.23-3.17-3.23-3.17l4.21 7.49Z" style="fill:#ffe77d"/><path d="m334.11 672.1 5.7-17.31-3.4-3.51.92 6.16-2.36-2.33 1.47 6.45-1.99-2.3 1.24 4.98-3.08-3.11 1.87 4.55-1.21-1.32s.66 5.76.66 5.67-.81-1.32-.81-1.32l.98 3.4Z" class="st32"/><path d="M213.38 700.16c-3.04.76-6.35.93-9.46.88-3.07-.09-6.95-.53-9.42-1.72-.58-.27-.87-1.1-.55-1.66.26-.53.45-1.08.52-1.67l.25-3.01c.15-1.57.11-3.04.27-4.61.06-.84 1-1.13 1.68-1.11 4.15.55 7.99 1.49 11.89-.12 2.38-1.2 2.43-3.09.08-4.58-1.45-.62-3.52-.26-5.1-.25-1.68.28-3.09.73-3.49-1.51-.11-1.01-.06-1.87-.17-2.79-.18-.81-.32-1.67-.2-2.51.11-.69.86-1.12 1.41-1.27 2.48-.86 5.31-1.73 7.41-3.21 1.96-1.42 1.39-2.77-.95-2.86-3.01-.08-5.22 2.48-7.26 4.49-1.12 1.4-2.62 2.04-3.75.56-2.24-2.4-4.19-4.9-6.52-7.18-.47-.52-1.1-1.24-.87-2.04.2-.77.71-1.09 1.09-1.64 3.92-4.04 9.22-6.39 14.68-7.3 3.35-.42 6.7-.83 10 .15 2.11.8 4.15 2.02 5.66 3.74 1.54 1.77 2.76 3.89 3.22 6.18 1.64 3.49.85 10.36-4.49 12.82-.1.06-.21.09-.32.1l.19-1.11c6.41 3.14 9.54 11.65 4.91 17.57-2.49 3.36-6.85 4.74-10.7 5.66Zm-.28-1.15c2.61-.6 5.12-1.16 7.45-2.5 5.47-2.82 6.44-10.37 2.67-15-1.26-1.46-2.79-2.75-4.54-3.53-.29-.13-.42-.47-.29-.76.1-.22.32-.34.54-.35l-.23.08.03-.02c7.32-3.61 5.02-13.8-.3-18.07-1.16-.91-2.57-1.67-3.97-2.17-2.94-.79-6.25-.4-9.25 0-5.39.99-11.19 3.37-14.67 7.65-.1-.11.18.41.49.75 2.21 2.33 4.17 5 6.25 7.4.23.28.45.56.86.57h-.07c.66-.05 1.05-.64 1.53-1.1.52-.54 1.09-1.07 1.65-1.6.85-.78 1.83-1.5 2.75-2.17 1.99-1.42 6.03-2.46 7.36.37 1.06 5.55-8.2 4.4-10.82 6.76-.39 1.11.47 2.33.46 3.47l.13 1.83c.1.36.12.84.59.85.13 0 .13.02.38-.01.9-.21 2.31-.28 3.23-.3 1.97-.17 4.12.03 5.36 1.77 1.74 1.93.36 4.24-1.73 5.15-3.49 1.4-7.23.98-10.81.33-.6-.09-1.46-.28-2.01-.08-.12.07-.1.03-.13.17-.13 1.47-.1 3.07-.23 4.54-.12 1.28-.12 3.9-.82 5.05a.5.5 0 0 0-.04.16c0 .02-.02.03.13.12 3.3 1.36 7.58 1.65 11.23 1.5 2.23-.07 4.69-.27 6.84-.85Z" class="st62"/><path d="M212.4 699.83c-1.39.34-2.81.58-4.24.73s-2.87.21-4.3.2c-1.27-.03-2.53-.1-3.77-.21a22 22 0 0 1-3.64-.64c-.12-.03-.3-.07-.55-.12-.24-.05-.5-.13-.77-.22s-.51-.18-.74-.25c-.23-.08-.38-.15-.47-.22-.42-.24-.52-.58-.28-1.04.26-.54.43-1.11.51-1.69q.12-.87.15-1.77l.15-2.01c.05-.66.08-1.33.09-2 0-.32.01-.64.02-.96 0-.32.03-.64.08-.96s.25-.52.62-.6.71-.09 1.04-.04c.8.08 1.58.2 2.33.36s1.53.28 2.33.36q1.74.12 3.51-.06c1.77-.18 2.32-.39 3.43-.82.53-.25 1.02-.61 1.47-1.07s.68-.97.71-1.53c.02-.56-.16-1.09-.55-1.58q-.585-.75-1.35-1.26-.51-.3-1.17-.39c-.44-.05-.88-.1-1.32-.13-1.07-.01-2.12.04-3.14.14-.12.01-.4.06-.85.15s-.73.12-.85.09c-.36 0-.62-.14-.78-.4-.17-.26-.28-.57-.33-.92-.06-.35-.08-.72-.08-1.12s-.02-.75-.05-1.07c-.03-.27-.06-.48-.09-.62s-.07-.26-.1-.38-.06-.24-.1-.38a6 6 0 0 1-.09-.62c-.02-.24-.04-.47-.04-.71s.06-.46.2-.68c.18-.22.42-.39.72-.52s.61-.25.92-.36c.38-.12.86-.27 1.41-.44.56-.17 1.13-.35 1.7-.53.58-.18 1.13-.36 1.67-.56.54-.19.98-.37 1.32-.52 1.18-.52 1.95-1.12 2.32-1.81q.555-1.035.12-1.8c-.29-.51-.88-.85-1.77-1.04s-2.03-.03-3.41.46c-.23.1-.51.26-.84.47s-.68.46-1.03.73-.68.54-.99.79-.56.46-.74.64c-.4.36-.79.73-1.17 1.13s-.76.79-1.16 1.19c-.36.36-.76.55-1.19.6-.28-.01-.51-.09-.71-.23-.19-.14-.36-.3-.5-.49a46 46 0 0 1-3.13-3.61 39 39 0 0 0-3.19-3.61 5 5 0 0 1-.37-.44c-.11-.15-.22-.31-.32-.5-.15-.3-.08-.65.22-1.03.3-.39.56-.69.77-.91 1.95-1.9 4.25-3.46 6.91-4.66s5.39-1.98 8.22-2.35c.94-.1 1.89-.18 2.83-.26s1.88-.08 2.8-.02q.9.03 1.77.18c.59.1 1.17.26 1.75.48 1.33.58 2.49 1.24 3.47 1.97 1.12.92 2.07 1.97 2.85 3.16s1.35 2.44 1.72 3.76l.02.18c.14.22.22.45.25.69.29.88.45 1.8.49 2.75s-.04 1.89-.22 2.82c-.2.77-.49 1.54-.87 2.29s-.88 1.44-1.49 2.06c-.32.35-.7.66-1.13.92q-.645.39-1.26.75h-.06c.96.47 1.83 1.03 2.61 1.71s1.49 1.4 2.12 2.17c.55.74 1 1.54 1.34 2.39.34.86.6 1.74.77 2.63.1.62.16 1.25.16 1.89 0 .63-.06 1.26-.2 1.87-.46 1.75-1.23 3.3-2.33 4.64-.67.78-1.47 1.45-2.39 2s-1.87 1.03-2.86 1.45c-.8.32-1.62.58-2.45.78s-1.66.41-2.47.61Z" class="st6"/><path d="M220.16 670.32c-1.58 1.32-3.32 2.83-5.5 2.85a4.2 4.2 0 0 1-2.69-.96c-.62-.52-.94-1.25-1.44-1.86a1.22 1.22 0 0 0-.82-.45c-.05.23-.12.47-.26.73-.37.69-1.14 1.3-2.32 1.81-.34.15-.78.33-1.32.52s-1.09.38-1.67.56-1.15.35-1.7.53c-.56.18-1.03.32-1.41.44-.31.11-.61.23-.92.36s-.55.3-.72.52c-.14.21-.2.44-.2.68s.02.47.04.71c.03.28.06.48.09.62s.07.26.1.38.06.24.1.38c.03.14.06.34.09.62.03.32.05.67.05 1.07 0 .11 0 .21.01.32 3.11.92 6.53 1.27 10.08.91 3.42-.35 6.59-1.32 9.38-2.75-.34-.21-.69-.4-1.05-.58h.06c.41-.25.83-.5 1.26-.76s.81-.57 1.13-.92c.61-.62 1.11-1.3 1.49-2.06.38-.75.67-1.52.87-2.29.18-.93.26-1.87.22-2.82 0-.14-.02-.29-.03-.43-1.04.47-2.01 1.13-2.92 1.89Z" style="mix-blend-mode:screen;fill:url(#_Градієнт_без_назви_14)"/><path d="M190.58 665.39s8.58-8.05 18.85-7.79 14.81 11.88 10.71 18.18c0 0 5.01-4.1 2.26-10.93s-7.94-11.27-19.13-8.53-14.23 8.61-14.23 8.61 1.01 1.21 1.54.47Z" class="st32"/><path d="M212.65 699.8c-1.39.34-2.81.58-4.24.73s-2.87.21-4.3.2c-1.27-.03-2.53-.1-3.77-.21a22 22 0 0 1-3.64-.64c-.12-.03-.3-.07-.55-.12-.24-.05-.5-.13-.77-.22s-.51-.18-.74-.25c-.23-.08-.38-.15-.47-.22-.42-.24-.52-.58-.28-1.04.26-.54.43-1.11.51-1.69q.12-.87.15-1.77l.15-2.01c.05-.66.08-1.33.09-2 0-.32.01-.64.02-.96 0-.32.03-.64.08-.96s.25-.52.62-.6.71-.09 1.04-.04c.8.08 1.58.2 2.33.36s1.53.28 2.33.36q1.74.12 3.51-.06c1.18-.12 2.32-.39 3.43-.82.53-.25 1.02-.61 1.47-1.07s.68-.97.71-1.53c.02-.56-.16-1.09-.55-1.58q-.585-.75-1.35-1.26-.51-.3-1.17-.39c-.44-.05-.88-.1-1.32-.13-1.07-.01-2.12.04-3.14.14-.12.01-.4.06-.85.15s-.73.12-.85.09c-.36 0-.62-.14-.78-.4-.17-.26-.28-.57-.33-.92-.06-.35-.08-.72-.08-1.12s-.02-.75-.05-1.07c-.03-.27-.06-.48-.09-.62s-.07-.26-.1-.38-.06-.24-.1-.38a6 6 0 0 1-.09-.62c-.02-.24-.04-.47-.04-.71s.06-.46.2-.68c.18-.22.42-.39.72-.52s.61-.25.92-.36c.38-.12.86-.27 1.41-.44.56-.17 1.13-.35 1.7-.53.58-.18 1.13-.36 1.67-.56.54-.19.98-.37 1.32-.52 1.18-.52 1.95-1.12 2.32-1.81q.555-1.035.12-1.8c-.29-.51-.88-.85-1.77-1.04s-2.03-.03-3.41.46c-.23.1-.51.26-.84.47s-.68.46-1.03.73-.68.54-.99.79-.56.46-.74.64c-.4.36-.79.73-1.17 1.13s-.76.79-1.16 1.19c-.36.36-.76.55-1.19.6-.28-.01-.51-.09-.71-.23-.19-.14-.36-.3-.5-.49a46 46 0 0 1-3.13-3.61 39 39 0 0 0-3.19-3.61 5 5 0 0 1-.37-.44c-.11-.15-.22-.31-.32-.5-.15-.3-.08-.65.22-1.03.3-.39.56-.69.77-.91 1.95-1.9 4.25-3.46 6.91-4.66s5.39-1.98 8.22-2.35c.94-.1 1.89-.18 2.83-.26s1.88-.08 2.8-.02q.9.03 1.77.18c.59.1 1.17.26 1.75.48 1.33.58 2.49 1.24 3.47 1.97 1.12.92 2.07 1.97 2.85 3.16s1.35 2.44 1.72 3.76l.02.18c.14.22.22.45.25.69.29.88.45 1.8.49 2.75s-.04 1.89-.22 2.82c-.2.77-.49 1.54-.87 2.29s-.88 1.44-1.49 2.06c-.32.35-.7.66-1.13.92q-.645.39-1.26.75h-.06c.96.47 1.83 1.03 2.61 1.71s1.49 1.4 2.12 2.17c.55.74 1 1.54 1.34 2.39.34.86.6 1.74.77 2.63.1.62.16 1.25.16 1.89 0 .63-.06 1.26-.2 1.87-.46 1.75-1.23 3.3-2.33 4.64-.67.78-1.47 1.45-2.39 2s-1.87 1.03-2.86 1.45c-.8.32-1.62.58-2.45.78s-1.66.41-2.47.61Z" style="fill:url(#_Градієнт_без_назви_22)"/><path d="M199.67 678.52s2.28 2.18 2.6 1.88 1.13-2.41 2.86-1.21 4.06 2 4.76.63 2.4-1.62 4.79-.6 1.48-.88 1.03-1.48 4.39-1.59 4.39-1.59-2.19 1.79-1.87 1.95 4.33 1.46 4.24 4.42c-.03 1.08-1.75-2.93-4.01-2.6-.68.1-1.24 1.11-3.15.73s-2.81-.33-4.22 1.19-.94 2.89-.94 2.89-1.91-2.35-3.2-2.61-5.53-.18-5.72-.16-2.01-.18-1.57-3.43Z" class="st32"/><path d="m201.73 688.72-6.06-.99s-.85-.05-1.02.91-.33 5.41-.52 7.34-.61 3.04-.61 3.04 4.38 1.7 8.27 1.68c3.9-.01 6.29-.56 6.29-.56s-4.79 1.02-6.53-2.62 1.98-8.38 2.33-8.72-2.16-.24-2.15-.09Z" style="mix-blend-mode:screen;fill:url(#_Градієнт_без_назви_141)"/><path d="m222.37 665.42-.02-.18a13.7 13.7 0 0 0-1.72-3.76 13.8 13.8 0 0 0-2.85-3.16c-.99-.73-2.15-1.39-3.47-1.97-.58-.22-1.16-.38-1.75-.48q-.885-.15-1.77-.18c-.92-.07-1.85-.06-2.8.02s-1.89.16-2.83.26c-2.82.37-5.56 1.15-8.22 2.35s-4.96 2.76-6.91 4.66c-.22.22-.47.52-.77.91s-.37.73-.22 1.03c.1.19.2.36.32.5.11.15.24.29.37.44 1.06 1.04 2.12 2.25 3.19 3.61s2.11 2.56 3.13 3.61c.14.19.3.35.5.49.19.14.43.21.71.23.43-.04.83-.24 1.19-.6.4-.4.78-.79 1.16-1.19s.76-.77 1.17-1.13c.18-.18.43-.39.74-.64s.64-.51.99-.79c.35-.27.69-.52 1.03-.73s.62-.37.84-.47c1.38-.5 2.51-.65 3.41-.46.89.19 1.48.53 1.77 1.04q.435.765-.12 1.8c-.37.69-1.14 1.3-2.32 1.81-.34.15-.78.33-1.32.52s-1.09.38-1.67.56-1.15.35-1.7.53c-.56.18-1.03.32-1.41.44-.31.11-.61.23-.92.36s-.55.3-.72.52c-.14.21-.2.44-.2.68s.02.47.04.71c.03.28.06.48.09.62s.07.26.1.38.06.24.1.38c.03.14.06.34.09.62.03.32.05.67.05 1.07 0 .11 0 .21.01.32 3.11.92 6.53 1.27 10.08.91.87-.09 1.6-1.2 2.67-1.34 3.1-.42 7.01.11 9.59.91-.34-.21-3.56-2.73-3.93-2.91h.06c.41-.25.83-.5 1.26-.76s.81-.57 1.13-.92c.61-.62 1.11-1.3 1.49-2.06.38-.75.67-1.52.87-2.29.18-.93.26-1.87.22-2.82s-.2-1.86-.49-2.75c-.02-.24-.11-.47-.25-.69Z" style="fill:url(#_Градієнт_без_назви_142);mix-blend-mode:screen"/><path d="M218.14 677.69s4.99 2.39 6.42 7.44-.83 10.89-7.52 13.3-13 1.98-13.33 2.17-10.03-1.94-10.03-1.94l.34-1.16s5.35 3.48 17.81 1.25 11.92-9.36 11.34-12.82c-.77-4.56-5.02-8.25-5.02-8.25Zm-13.54-3.98s-5.53 1.22-5.65 2.05.85 5.37 1.1 5.8 6.36.43 6.51.41-4.8-1.14-5.16-2.69-1-3.31 3.21-5.57Z" class="st32"/><path d="M212.54 700.41c-3.04.76-6.35.93-9.47.88-3.07-.09-6.96-.53-9.42-1.73-.59-.27-.88-1.11-.55-1.68.26-.53.45-1.08.52-1.67l.25-3.01c.15-1.57.11-3.04.27-4.61.06-.84 1.01-1.14 1.69-1.12 4.1.57 8.14 1.45 11.85-.11 1.36-.62 2.62-2.16 1.32-3.52-.76-.94-1.52-1.36-2.76-1.38-1.01-.12-2.5.06-3.54.08-.73.05-1.2.31-1.98.23-1.54.03-1.65-2.26-1.64-3.68 0-1.15-.46-2.21-.26-3.37.05-.22.15-.42.27-.59 1.28-1.1 3.01-1.15 4.5-1.84 1.9-.91 4.2-1.5 5.16-3.37.33-.8-.41-1.16-1.1-1.38-3.39-.84-5.99 2.14-8.22 4.34-1.13 1.4-2.63 2.04-3.77.56-2.25-2.4-4.2-4.89-6.52-7.18-.47-.53-1.1-1.25-.87-2.05.21-.78.71-1.09 1.1-1.64 3.93-4.04 9.22-6.39 14.69-7.3 3.35-.42 6.7-.83 10 .15 2.12.8 4.15 2.02 5.66 3.75 1.54 1.77 2.76 3.9 3.22 6.19 1.63 3.49.87 10.34-4.5 12.83-.1.06-.21.09-.33.1l.2-1.13c6.41 3.14 9.54 11.66 4.91 17.58-2.49 3.36-6.85 4.74-10.7 5.67Zm-.29-1.17c2.61-.6 5.12-1.16 7.44-2.49 5.47-2.82 6.44-10.36 2.66-14.98-1.26-1.46-2.79-2.75-4.54-3.52-.3-.13-.43-.48-.3-.78.1-.23.32-.35.56-.36l-.24.08.03-.02c7.31-3.61 5.01-13.78-.31-18.05-1.16-.91-2.56-1.67-3.97-2.16-2.94-.79-6.24-.4-9.24 0-5.38.99-11.18 3.36-14.65 7.63-.1-.12.18.4.48.74 2.2 2.33 4.17 5 6.25 7.4.23.28.44.55.85.56.98-.25 2.1-1.9 3.1-2.7.85-.78 1.83-1.5 2.75-2.17 2-1.43 6.05-2.47 7.39.38 1.07 5.58-8.2 4.41-10.83 6.77-.39 1.11.47 2.33.46 3.46l.13 1.83c.1.36.11.83.58.84.14 0 .12.02.37-.01.9-.21 2.31-.28 3.23-.3 1.97-.17 4.13.04 5.37 1.78 1.74 1.93.36 4.26-1.73 5.17-3.49 1.4-7.24.98-10.81.33-.6-.09-1.45-.28-2-.08-.12.07-.09.03-.12.17-.13 1.47-.1 3.07-.22 4.54-.12 1.28-.12 3.9-.82 5.05-.1.21-.02.18.17.32 3.29 1.27 7.52 1.62 11.14 1.44 2.23-.07 4.68-.27 6.83-.85Z" class="st33"/><path d="M166.76 698.71c-.44-.01-2.06.13-2.34.03-.26-.04-.56-.2-.75-.42l.09.08c-1.33-1.22.45-2.87 1.05-3.97 1.78-2.58 3.43-5.61 4.89-8.38.02-.07.12-.16.16-.22v.73c-2.66-3.36-5.34-6.58-8.16-9.81-.66-.87-.45-2.22.89-2.45 1.88-.53 3.92-1.1 5.82-1.5.81-.15 1.26-.36 2.2-.28.9.18 1.33.88 1.9 1.42a108 108 0 0 0 2.67 3.04l-1.16.12c.73-1.45 1.39-2.68 2.22-3.99.35-.62.92-1.39 1.77-1.48.37-.04.65-.05.98-.07 1.66 0 4.7.07 6.33.21.34.04.59 0 1.01.08.89.15 1.38 1.19 1.13 2.02-.65 1.87-2.01 3.55-2.84 5.26-1.04 2.15-2.11 4.29-3.21 6.43l-.22-1.11c.11-.02 2.14 2.7 2.25 2.81 1.3 1.69 2.73 3.29 4.24 4.83.78.96 2.84 2.25 1.79 3.68l.04-.05c-.15.21-.37.39-.58.48-.21.1-.41.14-.58.15h.06c-2.03.27-4.76.74-6.77.95-.97.04-2 .34-2.93-.05-.75-.23-2.52-2.85-3.07-3.43-.06-.01 1.29-.11 1.28-.11-.6 1.06-1.04 2.22-1.66 3.29-.21.46-.95 1.07-1.53 1.12-2.3.39-4.7.45-7 .56Zm-.12-1.79c2.31-.16 5.02-.15 7.01-.59.66-.87 1.29-2.37 1.94-3.35.27-.48.97-.52 1.3-.09l2.11 2.58c.16.17.36.43.66.39 2.7-.15 5.85-.76 8.55-1.17.1-.02.02-.02-.05.07l.04-.05c-.05.04-.11.24-.08.3 0 .05.02.05-.05-.05-.14-.2-.24-.33-.42-.49-1.94-1.95-3.88-3.94-5.58-6.13l-2.02-2.56.13.14-.11-.09a.894.894 0 0 1-.22-1.12c1.7-3.1 3.22-6.52 5.14-9.46.32-.49.55-.99.82-1.49.26-.48 0-.51.18-.39-1.73-.17-5.22-.36-6.96-.37l-.81.05c-.16.03-.19.04-.35.2-.62.83-1.29 1.92-1.77 2.85-.3.6-.64 1.08-.85 1.56-.19.47-.88.53-1.16.12-.87-.92-1.72-1.98-2.55-2.96-.42-.44-.92-1.02-1.16-1.02-2.41.25-5.06 1.08-7.45 1.7-.18.05-.3.08-.33.1-.05.04.04-.07-.02.03-.02.07-.02.12.14.41 2.59 2.97 5.48 6.52 8.03 9.78.22.26.13.61-.08.83l.07-.11c-1.28 2.93-2.82 6.13-4.56 8.79-.19.35-1.05 1.58-1.17 1.97-.05.11-.03.11-.03.05.02-.07-.08-.27-.14-.3l.09.08c-.04-.09-.29-.12-.12-.12h.06l1.77-.11Z" class="st62"/><path d="M167.81 697.68q-.9.06-1.8.09c-.11.01-.21 0-.32-.02a.46.46 0 0 1-.27-.15c-.19-.15-.22-.38-.1-.68s.26-.56.41-.77c.46-.74.93-1.46 1.4-2.18.47-.71.91-1.45 1.33-2.2.53-.92 1.03-1.84 1.5-2.77s.93-1.87 1.39-2.82l.09-.11c-.79-.95-1.55-1.9-2.29-2.84s-1.48-1.89-2.23-2.85c-.32-.4-.63-.76-.93-1.09-.3-.32-.6-.65-.89-.96-.29-.32-.58-.64-.87-.98s-.59-.71-.89-1.11c-.03-.04-.07-.13-.14-.26s-.1-.27-.11-.41c0-.14.04-.28.12-.43s.26-.26.53-.33c1.07-.32 2.18-.63 3.33-.92 1.16-.29 2.27-.54 3.35-.76.36-.06.65-.1.86-.12s.41 0 .59.09c.18.08.37.21.56.38s.42.41.69.71c.49.53 2.28 2.83 2.71 3.41.3-.66.61-1.31.92-1.97s.65-1.29 1.02-1.91c.2-.34.38-.62.53-.83s.31-.37.47-.48.35-.18.58-.2.51-.04.85-.05c1.12 0 2.27.02 3.45.07s2.32.13 3.43.23c.28.02.48.09.59.22s.18.26.2.4c.03.14.02.28 0 .42-.03.14-.05.24-.07.28-.21.45-.43.87-.65 1.26s-.44.77-.68 1.14c-.23.37-.46.74-.69 1.12s-.46.8-.7 1.25c-.54 1.09-1.07 2.17-1.61 3.23q-.81 1.605-1.68 3.24l.11.09q1.005 1.26 1.95 2.49c.63.82 1.3 1.63 2.01 2.42.56.65 1.14 1.29 1.74 1.89.6.61 1.2 1.23 1.8 1.85.19.17.37.4.55.67s.19.5.04.69c-.11.16-.3.26-.55.28-.59.1-1.18.2-1.77.28-.58.08-1.18.17-1.8.28-.85.13-1.69.25-2.53.35-.84.11-1.69.18-2.55.23-.37 0-.68-.13-.94-.36-.22-.22-.42-.45-.62-.7s-.4-.5-.59-.76c-.2-.26-.4-.51-.61-.75s-.41-.49-.61-.75c-.16.3-.32.58-.48.86-.16.27-.3.56-.45.85-.14.3-.29.58-.43.87-.14.28-.3.55-.47.81-.09.14-.21.25-.35.34s-.3.15-.47.19c-.87.13-1.73.23-2.57.29s-1.7.12-2.55.16q-.9.03-1.8.09Z" class="st6"/><path d="M167.81 697.68q-.9.06-1.8.09c-.11.01-.21 0-.32-.02a.46.46 0 0 1-.27-.15c-.19-.15-.22-.38-.1-.68s.26-.56.41-.77c.46-.74.93-1.46 1.4-2.18.47-.71.91-1.45 1.33-2.2.53-.92 1.03-1.84 1.5-2.77s.93-1.87 1.39-2.82l.09-.11c-.79-.95-1.55-1.9-2.29-2.84s-1.48-1.89-2.23-2.85c-.32-.4-.63-.76-.93-1.09-.3-.32-.6-.65-.89-.96-.29-.32-.58-.64-.87-.98s-.59-.71-.89-1.11c-.03-.04-.07-.13-.14-.26s-.1-.27-.11-.41c0-.14.04-.28.12-.43s.26-.26.53-.33c1.07-.32 2.18-.63 3.33-.92 1.16-.29 2.27-.54 3.35-.76.36-.06.65-.1.86-.12s.41 0 .59.09c.18.08.37.21.56.38s.42.41.69.71c.49.53.95 1.09 1.4 1.67s.88 1.16 1.31 1.74c.3-.66.61-1.31.92-1.97s.65-1.29 1.02-1.91c.2-.34.38-.62.53-.83s.31-.37.47-.48.35-.18.58-.2.51-.04.85-.05c1.12 0 2.27.02 3.45.07s2.32.13 3.43.23c.28.02.48.09.59.22s.18.26.2.4c.03.14.02.28 0 .42-.03.14-.05.24-.07.28-.21.45-.43.87-.65 1.26s-.44.77-.68 1.14c-.23.37-.46.74-.69 1.12s-.46.8-.7 1.25c-.54 1.09-1.07 2.17-1.61 3.23q-.81 1.605-1.68 3.24l.11.09q1.005 1.26 1.95 2.49c.63.82 1.3 1.63 2.01 2.42.56.65 1.14 1.29 1.74 1.89.6.61 1.2 1.23 1.8 1.85.19.17.37.4.55.67s.19.5.04.69c-.11.16-.3.26-.55.28-.59.1-1.18.2-1.77.28-.58.08-1.18.17-1.8.28-.85.13-1.69.25-2.53.35-.84.11-1.69.18-2.55.23-.37 0-.68-.13-.94-.36-.22-.22-.42-.45-.62-.7s-.4-.5-.59-.76c-.2-.26-.4-.51-.61-.75s-.41-.49-.61-.75c-.16.3-.32.58-.48.86-.16.27-.3.56-.45.85-.14.3-.29.58-.43.87-.14.28-.3.55-.47.81-.09.14-.21.25-.35.34s-.3.15-.47.19c-.87.13-1.73.23-2.57.29s-1.7.12-2.55.16q-.9.03-1.8.09Z" style="fill:url(#_Градієнт_без_назви_48)"/><path d="M163.71 676.26s6.33 8.91 8.22 9.49 2.13-1.59 2.85-1.28c.39.17 2.64-.02 4.56.49 1.59.43 2.93 1.66 2.93 1.04.01-1.38 1.85-6.61 3.2-8.42 1.34-1.82 3.18-4.83 1.86-5s-8.21-1.08-9.1-.07-2.85 4.34-2.85 4.34-1.2-1.33-2.57-2.72-1.65-1.21-2.93-1-7.84 1.02-6.18 3.15Z" style="mix-blend-mode:screen;fill:url(#_Градієнт_без_назви_143)"/><path d="M163.72 676.1c.16.22 7.41 9.29 7.66 9.26s1.96-.25 2.32-.74 2.06-.77 2.78-.23 1.18.59 1.61.35 2.09 0 2.36.17 1.48.51 1.7-.27 6.17-11.02 5.87-11.5-7.13-1.01-7.29-1.05-1.57-.4-2.15.42-1.83 4.57-2.06 4.84-.67.47-1.94-1.08-2.55-3.67-3.33-3.26-5.66.55-6.4 1.24-1.85.85-1.14 1.85Z" style="mix-blend-mode:multiply;fill:url(#_Градієнт_без_назви_54)"/><path d="M173.84 696.32s-5.64.19-5.57-.66 4.56-7.03 5.89-9.77c1.33-2.73-.66-2-1.71-2.58s-7.26-5.99-6.67-6.97 5.38-1.92 6.05-1.38 3.53 4.69 4.62 4.88 2.03-6.88 2.03-6.88-2.27 5.3-2.89 4.44-3.26-4.26-4.32-4.15-8.1 1.51-7.84 2.55 8.4 8.83 7.9 10.34-6.62 10.54-6.17 11.19 9.29-.33 8.68-1.03Z" class="st32"/><path d="M174.16 685.9s.74-1.79 1.46-1.45 1.97 2.09 2.63 1.07 4.02 1.96 4.94 2.75-1.9-3.29-1.99-3.47 1.9-3.9 1.9-3.9-2.12 2.51-2.95 2.94-1.89-.95-2.31-.19-1.04.72-2.45-.4-2.3.35-3.61-.55.76 1.45.76 1.45 1.71 1.78 1.63 1.75" class="st32"/><path d="M167.85 698.38c-.38-.01-2.06.13-2.3.04-.23-.04-.49-.17-.65-.36l.07.07c-.79-.65-.27-1.73.19-2.37l.89-1.36c1.78-2.59 3.42-5.63 4.86-8.43.02-.06.11-.14.15-.19v.58a255 255 0 0 0-8.15-9.81c-.61-.82-.43-2.04.83-2.24 1.88-.53 3.91-1.09 5.81-1.49.78-.15 1.27-.35 2.15-.28.84.16 1.28.87 1.82 1.38.89 1.04 1.73 2.02 2.65 3.04l-.92.09c.26-.6.61-1.1.84-1.59.39-.84.92-1.61 1.38-2.38.34-.6.86-1.33 1.67-1.41 2.07-.16 5.22.02 7.27.15.32.04.61.01.98.08.8.13 1.23 1.08 1.01 1.82-.21.73-.7 1.51-1.06 2.17-1.94 3.08-3.29 6.28-4.98 9.48l-.18-.88c.1-.03 2.12 2.69 2.22 2.78 1.31 1.7 2.74 3.3 4.26 4.84l1.13 1.17c.57.54 1.29 1.49.65 2.27-.11.2-.71.55-1 .52h.05c-2.02.28-4.75.75-6.76.96-.94.04-1.95.34-2.85-.03-.73-.24-2.48-2.82-3.01-3.37-.06-.01 1.02-.09 1.01-.09-.6 1.05-1.06 2.22-1.67 3.27-.2.43-.85.97-1.39 1.03-2.31.38-4.69.44-7 .56Zm-.09-1.41c2.35-.18 5.03-.1 7.11-.63.61-.72 1.34-2.47 1.97-3.42.21-.38.78-.41 1.03-.07l2.11 2.59c.19.22.45.48.78.45 2.7-.15 5.86-.76 8.56-1.16.12-.02.1-.04.08 0l.03-.04c-.02.01-.06.14-.04.16-.13-.2-.3-.46-.51-.64-2.69-2.61-5.3-5.67-7.58-8.67l.11.11c-.32-.21-.47-.62-.29-.96 1.89-3.68 3.86-7.44 5.96-10.98.08-.14.22-.46.09-.62 0 0 .06.03-.02 0-1.74-.17-5.25-.35-7-.36l-.82.05c-.44.06-.63.51-.89.89-.44.72-.99 1.51-1.34 2.25-.29.59-.63 1.07-.85 1.56-.15.37-.69.42-.92.09-.87-.93-1.73-1.98-2.57-2.97-.43-.44-.91-1.03-1.24-1.06-2.45.23-5.09 1.09-7.51 1.71-.48.11-.59.2-.29.74 1.13 1.5 2.87 3.17 4.09 4.8 1.3 1.68 2.62 3.34 3.95 4.98.14.17.13.41 0 .58l-.08.11.06-.09-1.38 2.98c-1.22 2.72-2.94 5.2-4.41 7.76-.05.11-.04.14-.04.13.01-.02-.05-.15-.08-.16l.07.07c-.13-.11-.12-.03.08-.06l1.78-.1Z" class="st33"/><circle cx="80.35" cy="695.88" r="42.78" class="st58"/><path d="M57.69 732.39c1.05.43 2.14.75 3.19 1.18 1.21.49 2.41 1 3.61 1.51 2.43 1.02 4.87 2 7.41 2.7 2.5.68 5.07 1.08 7.66 1.11 4.92.06 9.7-1.17 14.4-2.51 1.19-.34 2.37-.64 3.47-1.23.93-.5 1.77-1.15 2.6-1.8.86-.68 1.73-1.39 2.68-1.94.36-.21.74-.39 1.13-.56-4.76-6.98-13.17-11.61-22.75-11.61-10.22 0-19.11 5.28-23.66 13.05.09.04.17.08.26.11Z" class="st37"/><path d="M57.69 732.39c1.05.43 2.14.75 3.19 1.18 1.21.49 2.41 1 3.61 1.51 2.43 1.02 4.87 2 7.41 2.7 2.5.68 5.07 1.08 7.66 1.11 4.92.06 9.7-1.17 14.4-2.51 1.19-.34 2.37-.64 3.47-1.23.93-.5 1.77-1.15 2.6-1.8.86-.68 1.73-1.39 2.68-1.94.36-.21.74-.39 1.13-.56-4.76-6.98-13.17-11.61-22.74-11.61-10.19 0-19.06 5.25-23.62 12.98.02.04.05.08.07.12l.15.06Z" style="fill:#d2c1af"/><path d="M57.69 732.39c1.05.43 2.14.75 3.19 1.18 1.21.49 2.41 1 3.61 1.51 2.43 1.02 4.87 2 7.41 2.7 2.5.68 5.07 1.08 7.66 1.11 4.92.06 9.7-1.17 14.4-2.51 1.19-.34 2.37-.64 3.47-1.23.93-.5 1.77-1.15 2.6-1.8.86-.68 1.73-1.39 2.68-1.94.36-.21.74-.39 1.13-.56-4.76-6.98-13.17-11.61-22.75-11.61-10.22 0-19.11 5.28-23.66 13.05.09.04.17.08.26.11Z" style="fill:none;stroke-linecap:round;stroke-linejoin:round;stroke:#665e55;stroke-width:1.18px"/><path d="M70.2 725.87c.45.91 1.02 1.79 1.61 2.69l-.11-.13c1.59 1.34 3.53 2.3 5.6 2.63.25.03.44.25.43.49l-.25 6.86c-.02.5-.79.46-.76-.04l.01-6.82.43.49c-2.3-.31-4.61-1.25-6.34-2.82-.6-.89-1.23-1.81-1.69-2.85a.59.59 0 0 1 1.07-.5m22.9.17c.21.84-.46 1.97-.92 2.35-1.78 2.12-4.47 3.41-7.21 3.63l.42-.41c-.32 2.05.21 4.26 0 6.52-.03.41-.67.37-.65-.04.07-2.13-.57-4.28-.31-6.62.02-.22.19-.38.4-.41 2.51-.3 4.82-1.57 6.44-3.49.45-.45.71-.9.65-1.39-.09-.76 1.07-.92 1.17-.16Z" class="st26"/><path d="M54.79 730.6c.85.77 1.85 1.35 2.9 1.78s2.14.75 3.19 1.18c1.21.49 2.41 1 3.61 1.51.12.05.25.1.37.15.59-9.32 5.29-14.78 5.29-14.78s-7.8 1.56-14.35 7.9q-.9.87-1.62 1.68l.6.57Z" class="st37"/><path d="M63.89 723.14c-2.33.96-4.51 2.38-6.46 3.96-1.02.83-1.99 1.72-2.88 2.69" class="st19"/><path d="M60.88 733.56c1.21.49 2.41 1 3.61 1.51.18.07.35.15.53.22 1.02-12.45 5.82-15.3 5.55-15.21 0 0-5.59 2.11-8.61 4.23 0 0-2.68 1.97-4.23 8.09 1.04.42 2.11.74 3.15 1.16" class="st59"/><path d="M65.74 723.9c-.87.78-1.96.05-2.96.19-1.19.17-1.45 1.2-.97 2.12.44.85 1.4 1.84 1.34 2.86-.06.92-1.18 1.24-1.89 1.58-.66.32-2.26.99-1.7 1.99" class="st21"/><path d="M65.06 734.75c.44-4.75 1.46-10.59 4.97-14.16.17-.18.36-.34.54-.51-4.11 1.5-8.63 3.12-10.85 7.11-.83 1.48-1.42 3.08-1.86 4.72" class="st15"/><path d="m92.8 736.69 1.17-.33c1.19-.34 2.37-.64 3.47-1.23.93-.5 1.77-1.15 2.6-1.8.86-.68 1.73-1.39 2.68-1.94.42-.25.87-.46 1.33-.64-.63-.76-1.37-1.56-2.24-2.4-6.54-6.34-14.35-7.9-14.35-7.9s5.03 5.84 5.34 15.76c0 .16 0 .32.01.49Z" class="st37"/><path d="M93.71 723.14c3.92 1.61 7.18 4.27 9.92 7.31" class="st19"/><path d="M92.68 736.73c.43-.12.86-.24 1.28-.36 1.19-.34 2.37-.64 3.47-1.23.93-.5 1.77-1.15 2.6-1.8.02-.01.03-.02.05-.04-1.49-6.83-4.44-8.99-4.44-8.99-3.02-2.11-8.61-4.23-8.61-4.23-.28-.09 4.9 2.98 5.65 16.65" class="st59"/><path d="M91.86 723.9c1.05.94 2.49-.31 3.59.41 1.35.89.12 2.21-.42 3.18-.65 1.14-.87 2.02.38 2.72.77.42 2.6.87 2.74 1.93.15 1.17-1.86 2.29-2.34 3.26" class="st21"/><path d="M92.65 736.24c-.04-5.88-1.52-12.09-5.63-16.17 2.89 1.05.2.18 0 0 3.22 1.42 6.77 2.3 9.43 4.96 2.07 2.07 2.96 5.03 3.52 7.81" class="st15"/><path d="M110.41 706.46c0 10.76-5.32 21.51-14.41 26.45-4.33 2.35-10.53-1.48-15.85-1.48-5.79 0-11.54 4.02-16.12 1.28-8.47-5.08-13.37-15.93-13.37-26.24 0-15.89 13.37-28.76 29.87-28.76s29.87 12.88 29.87 28.76Z" style="fill:#d0c0b1"/><path d="M103.46 695.78c0 16.89-10.21 30.58-22.79 30.58s-22.79-13.69-22.79-30.58 5.57-31.51 22.79-31.79c18.91-.3 22.8 14.9 22.8 31.79Z" class="st36"/><path d="M105.75 702.14c-.67-4.03-1.41-7.39-1.88-12.29s-1.28-8.4-1.88-11.55c-.28-1.47-1.13-3.23-2.13-4.46-.32-1.31-1.3-2.53-1.3-2.53l-1.88-2.69.6-.4c-5.1-3.69-7.86-3.63-7.86-3.63v-.81c-3.49-1.28-10.07.07-10.07.07-4.77-1.21-10.54 1.28-10.54 1.28l.4.81c-3.36 1.54-6.31 4.77-6.31 4.77l.6.67c-5.44 6.18-6.38 18.81-6.51 21.83s-1.68 8.8-2.22 12.09 1.68 4.7 1.68 4.7c-.94 5.1 1.75 6.51 1.75 6.51-.81 4.63 2.75 6.25 2.75 6.25.47 4.37 4.84 4.84 4.84 4.84 2.28 3.63 7.12 3.29 7.12 3.29 3.9 2.28 5.71 1.34 5.71 1.34 2.62 1.48 3.83-.27 3.83-.27 2.49 1.68 5.57-1.28 5.57-1.28 5.64-.4 7.39-3.16 7.39-3.16 4.7-1.81 4.5-4.9 4.5-4.9 3.29-1.81 2.82-6.51 2.82-6.58 3.29-1.14 1.88-6.04 1.81-6.18 2.01-1.41 1.88-3.69 1.21-7.72m-5.78-1.01c-1.01 1.34-.67 3.83-.67 3.83-1.48 1.14-1.01 4.23-1.01 4.23-2.62.54-2.49 3.16-2.49 3.16-1.26.2-2.59 1.27-3.18 1.79-.08.29-.2.56-.37.82-.28.44-.05 6.78-13.53 6.65-8.01-.07-10.25-5.95-10.14-5.97-1.44-3.48-4.35-3.23-4.35-3.23.07-1.81-2.08-3.56-2.08-3.56.34-2.55-1.21-4.3-1.21-4.3.6-2.15-.6-3.69-.6-3.69s.34-1.21.27-1.61-.54-1.28-.54-1.28l.27-7.86s-.54-3.16.2-6.78c.74-3.63 4.57-6.45 4.57-6.45s-.87.81.47 1.68 5.64-1.75 5.64-1.75-1.75 1.68-.07 2.49 6.18-1.75 6.18-1.75-2.15 3.09 1.34 2.55 7.25-2.89 7.25-2.89-2.08 2.01 1.75 2.15c3.83.13 6.85-2.08 6.85-2.08s.66.02 1.51-.06c.2.17.42.37.64.6.67.74 2.49 3.69 3.02 5.04s.6 4.7.67 7.52.07 7.79.07 7.79c-1.07.74-.47 2.96-.47 2.96Z" class="st47"/><path d="M103.06 699.25c-1.48-1.88-3.76-.67-3.16 1.01.09.24.05.18-.09-.11.04.55.16.99.16.99-1.01 1.34-.67 3.83-.67 3.83-1.48 1.14-1.01 4.23-1.01 4.23-2.62.54-2.49 3.16-2.49 3.16-1.26.2-2.59 1.27-3.18 1.79-.08.29-.2.56-.37.82-.28.44-.05 6.78-13.53 6.65-8.01-.07-10.25-5.95-10.14-5.97-1.44-3.48-4.35-3.23-4.35-3.23.07-1.81-2.08-3.56-2.08-3.56.34-2.55-1.21-4.3-1.21-4.3.27-.95.18-1.77 0-2.41-.34-.27-1.96-1.42-3.63.19-1.88 1.81-1.07 4.5-.47 4.5s1.28-.2 1.07 1.68c-.2 1.88-.54 5.91.27 5.1s1.48-.07 1.61 2.08.67 4.77 2.01 5.44 1.75 3.29 2.28 3.16 1.41-.54 1.88 0 2.08 3.43 3.83 4.3 1.21-.81 2.22-.4c1.01.4 3.9 2.89 4.7 2.01.81-.87 1.07-1.48 2.42-.27 1.34 1.21 2.15 1.48 3.29.2s1.41-.2 1.41.54 3.16-.27 4.84-2.69 2.15-.87 1.95.13 2.08.4 3.49-2.42 2.55-2.55 2.69-1.88c.13.67 1.95-1.28 1.95-2.96s2.08-1.01 2.35-3.56.47-4.43 1.14-3.96.81-2.96.47-4.63c-.34-1.68.6-2.82 1.01-2.42.4.4.81-5.17-.67-7.05Z" class="st60"/><path d="M100.01 699.96s.5-.78 1.79-.23 1.44 1.99 1.44 1.99.28-1.2-.36-2.27c-.68-1.13-1.39-1.51-2.22-1.41s-.65 1.91-.65 1.91Z" class="st47"/><path d="M56.31 710.03c-1.49-.76-2.32-3.79-.81-8.03 1.51-4.23 1.51-10.11 1.51-10.11s.07-13.13 6.41-20.65l-.81-.5s3.29-3.59 6.72-4.94l-.71-.4s4.43-2.75 10.78-1.78c0 0 6.78-1.04 10.31.27l-.64.54s5.41 1.41 8.26 3.73l-.77.44s4.8 5.94 6.25 12.93c1.44 6.99 1.31 11.38 1.31 11.38m-45.79 22.71s-1.26 4.89 2.49 7.25c0 0 .48 3.48 4.71 4.84" class="st12"/><path d="M56.82 708.67s-2.01 6.45 1.16 7.66m7.25 9.77s.35 4.68 7.61 4.89" class="st12"/><path d="M71.98 729.88s2.92 3.78 6.4 2.47m-.16-1.26s.45 1.71 2.01 2.01 2.01-1.21 2.01-1.21m21.89-38.98s.17 5.07 1.28 8.9c1.24 4.32.71 7.27-.78 8.03m-2.01 5.59s1.26 4.89-2.49 7.25c0 0-.48 3.48-4.71 4.84m8.71-19.05s2.01 6.45-1.16 7.66" class="st12"/><path d="M95.71 725.9s-.35 4.68-7.61 4.89" class="st12"/><path d="M88.96 729.68s-2.92 3.78-6.4 2.47m12.64-55.36s-2.62 2.62-6.95 2.62-2.22-2.12-2.22-2.12-3.73 2.52-7.25 2.92c-3.53.4-1.41-2.62-1.41-2.62s-3.32 2.01-5.94 1.81 0-2.52 0-2.52-4.03 2.12-5.44 1.91-.71-2.12-.71-2.12c-6.35 4.33-5.21 12.63-5.21 12.63l-.1 9.07s1.01.47.4 2.62c0 0 1.14 1.38.6 3.86 0 0 1.44.97 1.21 4.3 0 0 2.18.57 2.18 3.09 0 0 3.32.76 4.48 3.53" class="st12"/><path d="M92.3 714.44c1.38-1.76 3.63-2.19 3.63-2.19 0-2.52 2.18-3.09 2.18-3.09-.24-3.32 1.21-4.3 1.21-4.3-.54-2.49.6-3.86.6-3.86-.6-2.15.4-2.62.4-2.62l-.1-9.07s1.14-8.29-5.21-12.63" class="st12"/><path d="M61.3 718.9s-1.32-1.47.3-3.23c.94-1.02 1.03-2.49 1.03-2.62s.93 1.04.44 2.03-1.86 1.48-1.76 3.82Zm-2.64-6.85s.01-1.15.81-1.68c1.23-.83 1.55-1.8.99-2.9 0 0-.25 1.16-.92 1.6s-1.61 1.44-.87 2.98Zm1.37-8.74s-1.83.28-1.59 1.71c.16.94-.39 1.84-.39 1.84s1.37-.11 1.24-1.49c-.09-.97.22-1.61.73-2.06Zm2.24 6.99s.47 1.35-.61 1.7c-.68.22-.71 1.41-.26 2.11 0 0 .2-1.04 1.01-1.89.52-.55.29-1.44-.15-1.91Zm-3.16-9.14s-1.46.18-1.65 1.41-.52 1.56-.52 1.56.94-.2 1.17-1.14 1.09-1.58 1.66-1.44-.07-.61-.65-.39Zm.41 11.94s-.34-.97.18-1.57.91-.82 1.05-1.3c0 0 .43.31.01 1.05s-1.02.53-1.23 1.83Zm3.27 8.3s-.65-.83-.38-2.12 1.18-1.94 1.31-3.02c0 0 .58.45.03 1.81s-1.13 1.84-.96 3.32Zm1.41 2.55s-.53-.38-.28-1.59 1.44-1.74 1.36-3.27-.73-1.62.04-3.3c0 0 .1 1.44.51 2.47s1.06 1.06.18 2.47-2.04 1.54-1.81 3.22m35.18-5.05s1.32-1.47-.3-3.23c-.94-1.02-1.03-2.49-1.03-2.62s-.93 1.04-.44 2.03 1.86 1.48 1.76 3.82Zm2.64-6.85s-.01-1.15-.81-1.68c-1.23-.83-1.55-1.8-.99-2.9 0 0 .25 1.16.92 1.6s1.61 1.44.87 2.98Zm-1.37-8.74s1.83.28 1.59 1.71c-.16.94.39 1.84.39 1.84s-1.37-.11-1.24-1.49c.09-.97-.22-1.61-.73-2.06Zm-2.23 6.99s-.47 1.35.61 1.7c.68.22.71 1.41.26 2.11 0 0-.2-1.04-1.01-1.89-.52-.55-.29-1.44.15-1.91Zm3.16-9.14s1.46.18 1.65 1.41.52 1.56.52 1.56-.94-.2-1.17-1.14-1.05-1.65-1.68-1.49c-.5.12-.04-.44.68-.34m-.41 11.94s.34-.97-.18-1.57-.91-.82-1.05-1.3c0 0-.43.31-.01 1.05s1.02.53 1.23 1.83Zm-3.28 8.3s.65-.83.38-2.12-1.18-1.94-1.31-3.02c0 0-.58.45-.03 1.81s1.13 1.84.96 3.32Zm-1.41 2.55s.53-.38.28-1.59-1.44-1.74-1.36-3.27.73-1.62-.04-3.3c0 0-.1 1.44-.51 2.47s-1.06 1.06-.18 2.47 2.04 1.54 1.81 3.22" class="st47"/><ellipse cx="69.95" cy="692.62" class="st32" rx="5.81" ry="4.62"/><ellipse cx="89.57" cy="692.42" class="st32" rx="5.81" ry="4.62"/><ellipse cx="69.95" cy="692.62" class="st23" rx="5.81" ry="4.62"/><circle cx="71.69" cy="691.62" r="1.69" class="st61"/><path d="M64.25 688.61s9.77 2.07 12.49 1.19-.57-6.07-6.45-6.6c-5.12-.46-9.02 4.55-6.04 5.41" class="st54"/><path d="M64.36 688.77s4.58 1.08 12.24 1.16" class="st24"/><ellipse cx="89.57" cy="692.42" class="st23" rx="5.81" ry="4.62"/><path d="M95.26 688.41s-9.77 2.07-12.49 1.19.57-6.07 6.45-6.6c5.12-.46 9.02 4.55 6.04 5.41" class="st54"/><path d="M95.16 688.57s-4.58 1.08-12.24 1.16" class="st24"/><path d="M80.66 663.99c-11.68.19-18 6.97-20.85 16.58 4.45 1.99 11.33 4.24 19.78 4.07 7.65-.16 15.78-2.95 21.9-5.63-2.69-8.98-8.64-15.22-20.82-15.02Z" class="st51"/><circle cx="87.55" cy="691.47" r="1.69" class="st61"/><path d="M61.9 686.06s1.28-2.91 2.07-4.08 2.73-.31 5.93 1.37c3.2 1.67 5.42 2.77 6.84 3.2s1.84.2 1.88.33c.07.24-.25 1.83-2.18 2.07s-7.21-1.96-9.24-2.64c-2.02-.68-2.79-.99-3.62-.34s-2.36 1.44-1.68.09" class="st61"/><path d="M78.46 688.65s1.06-.88.63-3" class="st23"/><path d="M97.77 685.86s-1.28-2.91-2.07-4.08c-.78-1.17-2.73-.31-5.93 1.37s-5.42 2.77-6.84 3.2-1.84.2-1.88.33c-.07.24.25 1.83 2.18 2.07 1.93.25 7.21-1.96 9.24-2.64s2.79-.99 3.62-.34 2.36 1.44 1.68.09" class="st61"/><path d="M81.21 688.46s-1.06-.88-.63-3" class="st23"/><path d="M72.71 698.17c-2.44 2.12-7.35 2.03-8.89-1.12-.05-.1.1-.19.17-.1 1.93 2.52 6 2.6 8.49.94.18-.13.4.14.23.28" class="st61"/><path d="M79.52 705.15c-.11 0-9.33-1.34-10.67 4.1 0 0-1.41 1.61-1.41 3.69 0 0-1.59 1.38-.33 6.62 1.27 5.24 6.44 8.8 7.99 7.52 0 0 2.17 2.35 6 1.34s4.67-2.59 4.67-2.59 4.41 1.41 6.22-1.98 1.34-9.03.14-10.75c0 0-.43-2.82-1.66-3.76 0 0-.65-5.14-10.96-4.2Z" class="st60"/><path d="M75.68 708.91s-1.01.91-2.13 1.21-1.23.1-1.23.2-2.13 1.95-2.71 3.93-.36 2.62-.36 2.62 1.48.34 1.63.97.18.97.18.84 1.74-2.05 4.41-1.48c0 0 1.04-1.12 1.22-2.56 0 0 2.53-.67 5.92-.2 0 0 .27 2.09 1.32 2.77 0 0 3.47.47 4.23 1.68 0 0 .98-1.85 1.95-2.01 0 0-.25-4.6-3.22-6.58 0 0-1.77.03-3.18-1.28 0 0-1.45 1.91-3.91-.87 0 0-2.89 2.92-4.12.77Z" class="st36"/><path d="M78.96 711.72s-4.51.2-6.15 1.11 1.18 1.13 5.82.73 5.89.08 7.28-.08 2.17-1.86-6.95-1.76" class="st48"/><path d="M72.26 712.9s.91-1.64 4.94-2.22 9.8 1.21 9.29 1.56-3.88-.6-7.38-.58-7.13 1.59-6.85 1.23Z" class="st51"/><path d="M79.41 704.98s-9.62-.91-10.6 4.33c0 0-1.48 1.78-1.41 3.63 0 0-1.34 2.01-.83 4.37" class="st12"/><path d="M79.66 708.14s-.76 1.11-2.21 1.41-1.7-.64-1.7-.64-2.06 1.68-3.18 1.34c0 0-3.11 1.66-3.33 6.67 0 0 1.56.17 1.74 1.98m4.71-3.88s4.27-1.71 8.03-.07" class="st12"/><path d="M76.56 714.87s-.34 2.17-1.86 3.28" class="st12"/><path d="M75.36 717.24s-4.27-.3-4.7 2.75" class="st12"/><path d="M71.6 712.82c5.1-2.04 11.03-2.29 16.2-.36.2.07.3.28.23.48-.07.19-.26.29-.45.24-5.14-1.55-10.68-1.36-15.79.24-.39.13-.58-.48-.19-.6" style="fill:#29221d"/><path d="M79.52 705.02s9.98-.94 10.96 4.3c0 0 1.48 1.78 1.41 3.63 0 0 1.34 2.01.83 4.37" class="st12"/><path d="M79.63 708.14s.76 1.11 2.21 1.41 1.7-.64 1.7-.64 2.06 1.68 3.18 1.34c0 0 3.11 1.66 3.33 6.67 0 0-1.56.17-1.74 1.98m-5.65-4.23s.44 2.37 1.96 3.48" class="st12"/><path d="M83.96 717.24s4.27-.3 4.7 2.75" class="st12"/><path d="M79.71 692s-4.23.78-4.71 7.73c0 0-1.33-.83-2.09-.1s-.81 2.75.18 3.78 2.14 1.79 2.14 1.79 1.36 2.9 4.68 3.05 4.61-3 4.61-3 2.54-1.21 2.85-3.53-1.54-2.59-2.85-1.13c0 0-.45-8.79-4.81-8.59" class="st54"/><ellipse cx="73.81" cy="700.55" class="st48" rx="1.11" ry=".96"/><ellipse cx="85.97" cy="700.78" class="st48" rx="1.11" ry=".96"/><path d="M84.45 700.81s.62-1.3 1.87-1.06c1.33.25 2.33 3.39-1.53 5.44m-9.71-5.13c-.35-.43-1.08-.93-1.91-.5-1.14.59-1.57 3.63 2.29 5.68" class="st24"/><path d="M78.6 692.33c-4.59 3.1-3.45 11.46-3.45 11.46s.3 4.53 4.68 4.6c4.03.07 4.79-2.96 4.74-4.13" class="st24"/><path d="M72.73 699.71s-1.66 1.31-2.52 4.28m16.6-4.18s1.89 1.13 3.25 3.7" style="fill:none;stroke-linecap:round;stroke-linejoin:round;stroke-width:.6px;stroke:#211b18"/><path d="M81.94 703.05c0 1.34-1.21 1.65-2.69 1.65s-2.65-.31-2.65-1.65 1.2-2.42 2.67-2.42 2.67 1.08 2.67 2.42" class="st48"/><ellipse cx="78.91" cy="703.05" class="st32" rx="1.11" ry=".91"/><circle cx="71.39" cy="691.28" r=".49" class="st32"/><circle cx="87.06" cy="691.02" r=".49" class="st32"/><path d="M86.51 697.89c2.5 1.66 6.55 1.58 8.49-.94.06-.09.22 0 .17.1-1.54 3.15-6.45 3.24-8.89 1.12-.17-.15.06-.42.23-.28" class="st61"/><path d="M57.03 666.76s-.5-2.27 8.26-3.12c8.76-.86 39.79-1.56 40.2 2.52.4 4.08-49.57 5.49-48.46.6" class="st39"/><path d="M95.98 663.59s4.8-.13 8.13 1.31" class="st14"/><path d="M67.45 735c-.14-.07-3.32-2.01-6.3-2.37-2.97-.35-7.24-1.51-9-3.83s-2.28-5.84-2.28-5.84-3.59-1.41-3.49-7.05 3.24-11.49 4.2-16.37c.96-4.89 1.91-12.19 2.47-16.12s4.06-11.32 4.72-12.78 6.26-9.24 16.14-11.1c9.87-1.86 20.6.65 26.24 6.04s7.51 13.3 8.56 19.04c1.06 5.74 3.22 16.62 4.38 21.26 1.16 4.63 4.75 16.79-3.01 20.27 0 0-.5 2.72-4.33 4.94s-7.98 1.85-10.39 2.8-4.55 3.85-5.15 1.73 2.28-4.6 4.55-5.51 8.61-4.79 10.13-9.27 1.41-6.9.2-12.19-3.48-15.21-4.13-19.04-1.91-7.05-2.67-8.36-2.92-3.32-2.92-3.32-9.92 4.13-17.03 4.28c-7.1.15-10.93-2.67-11.99-2.97s-2.82-.3-4.13 1.01-2.07 2.22-2.77 11.13c-.71 8.92-2.82 16.93-3.27 20.85-.45 3.93-1.26 9.27 1.76 12.54s6.3 3.83 8.21 4.94 4.35 3.96 4.25 4.97-1.53 1.02-2.94.32Z" style="fill:#fbf7f4"/><path d="M97.78 680.87s-.3-1.41-1.26-1.86-1.56-.55-.2-1.06 3.58-.3 4.58.3 2.32 1.46 3.17 5.94 1.31 5.74 1.31 5.74-1.36-6.7-3.78-8.87-2.57 1.86-2.57 1.86l-1.26-2.07Zm-33.55-1.67s-2.92-1.16-5.19.15-3.02 2.62-3.02 2.62 1.96-1.56 3.22-1.06.81 4.13.81 4.13.55-3.22 1.81-4.43 2.37-1.41 2.37-1.41m47.5 36.17s.13 1.81 1.28 1.68 1.54-1.68 1.54-1.68.47 3.56-.81 6.18-2.96 4.1-2.96 4.1-1.14.4-.6-.94 1.68-7.46 1.54-9.34Zm-65.35-1.07s1.75 1.75 2.49-.74 3.83-9.27 3.83-9.27-3.29 11.82-2.96 14.84 1.23 4.95-.87 3.09c-2.89-2.55-2.62-7.32-2.49-7.93Z" class="st55"/><path d="M54.31 678.6s1.28-2.7 7.52-1.44c6.25 1.26 10.18 2.85 17.73 2.35 7.56-.5 13.9-2.89 20.22-3.16 4.39-.19 7.27 2.85 7.27 2.85s-1.36-6.7-2.97-7.71-22.06-1.91-26.24-2.22c-4.18-.3-19.39 2.27-20.3 2.42s-3.17 5.94-3.22 6.9Z" class="st55"/><path d="M64.21 663.59s-5.04.47-6.99 1.68" class="st14"/><path d="M49.87 722.89s-4.23-1.01-3.43-8.6c.73-6.92 4.93-15.29 5.94-25.62 0 0 .84-28.6 25.42-29.33 24.26-.73 28.52 14.27 30.4 24.54 1.88 10.28 3.53 18.25 5.34 24.83s2.12 15.04-3.83 17.46" style="fill:none;stroke-linecap:round;stroke-linejoin:round;stroke-width:.99px;stroke:#665e55"/><path d="M107.54 671.09c-.25-1.96-1.51-2.44-1.51-2.44s-.68-.35-.35-1.08.41-3.34-6.7-2.34c-2.87.4-12.59 1.86-22.95 1.23-6.83-.42-11.46-.34-13.49-.97-.52.1-4.47-.02-4.98-.02-.85.41-1.39.29-1.75 1.12 0 0-.43.3.08 1.26.5.96-.28.96-.65 1.21-.38.25-1.91.96-1.11 2.9.81 1.94 4.61 3.85 14.43 4.38s22.92.23 28.44-.71c5.52-.93 10.81-2.57 10.55-4.53Z" class="st59"/><path d="m99.31 666.58.24-1.14s2.08-1.21 3.86-.84 1.51 1.21.81 1.28-4.9.71-4.9.71Z" class="st39"/><path d="M82.79 668.39c-13.77 0-25.45-1.71-25.63-1.74a.686.686 0 0 1-.58-.78c.06-.38.41-.64.78-.58.26.04 26.65 3.9 46.71-.06.37-.07.74.17.81.54s-.17.74-.54.81c-6.88 1.36-14.5 1.81-21.56 1.81Z" class="st39"/><path d="M55.08 683.85c.23-5.48 6.82-6.47 10.96-4.8 2.16.76 4.1 1.83 6.2 2.39 2.09.61 4.28.76 6.46.64 4.39-.22 8.59-1.72 12.77-3.24 3.04-1 6.94-2.7 9.95-.56.97.71 1.64 1.7 2.11 2.73.06.12 0 .27-.12.32-.11.05-.25 0-.31-.1-.55-.94-1.23-1.8-2.09-2.38-2.85-1.84-6.3-.21-9.26.77-4.14 1.55-8.44 3.15-13 3.4-2.26.12-4.57-.04-6.76-.69-4.84-1.5-10.67-5.53-15.18-1.26-.7.77-1.21 1.77-1.42 2.82-.02.18-.33.15-.31-.04" class="st26"/><path d="M64.98 679.74c-4.79.56-4.46 7.65-5.02 11.27-.5 7.05-2.1 14.06-3.45 20.97-.68 5.22-1.2 12.67 4.64 14.99 2.46 1.45 10.5 4.61 9.46 8.12-.95 2.07-2.44.91-3.69 0-3.35-2.54-7.88-1.7-11.73-3.21-10.69-5.01-4.36-21.36-2.17-29.87.07-.26.48-.18.43.1-.86 4.66-2.12 9.22-2.84 13.85-1.13 6.77-.04 15.1 8.3 15.72 2.34.34 4.86.45 7.04 1.57 1.03.47 2.09 1.34 3 1.86.15.05.19.1.29.04.52-.42.48-.95.04-1.59-2.63-3.04-6.81-4.41-10.25-6.41-2.75-1.71-3.74-5.18-3.97-8.12-.39-4.84.68-9.61 1.73-14.17 1.25-5.7 1.83-11.65 2.5-17.47.36-3.44 1.45-8.48 5.79-8.62.69.06.58 1.07-.1.98Z" class="st26"/><path d="M54.31 670.07s2.01 4.2 27.35 3.74c25.34-.45 25.07-4.42 25.07-4.42s-1.65-1.43-4.11-.07-12.64 2.62-28.71 2.17-17.38-2.77-18.49-2.22-1.11.79-1.11.79Z" style="fill:#c7910c"/><path d="M95.31 677.78c4.03 2.22 5.18 7.41 6.1 11.55.7 4.28 1.63 8.45 2.63 12.66 1.86 8.6 5.34 18.02-2.69 24.68-2.45 2.21-5.53 3.54-8.37 5.05-1.24.75-2.49 1.83-2.66 3.29-.03.42.14.78.39.85.84.17 1.51-.89 2.23-1.41 1.78-1.45 4.16-1.75 6.33-2.01 7.84-.58 10.42-5.36 11.51-12.54.34-2.11.52-4.26.58-6.4 0-.09.08-.16.17-.16.08 0 .15.07.16.15.18 2.17.12 4.35-.13 6.52-.55 4.25-1.85 9.19-5.82 11.5-3.67 2.48-8.76 1.12-12.2 3.71-.9.79-2.3 2.42-3.68 1.24-1.6-2.07.88-4.59 2.61-5.58 2.85-1.54 5.82-2.79 8.21-4.97 7.63-6.34 4.06-15.44 2.3-23.67-1.02-4.19-1.92-8.46-2.6-12.71-.84-3.87-1.83-8.58-5.38-10.81-.65-.18-.36-1.19.31-.94m15.31 31.17-1.78-6.37c-1.11-4.28-2.82-8.39-3.64-12.72-.46-2.16-.9-4.3-1.49-6.42-.06-.2.25-.3.32-.1 1.55 4.13 2.11 8.57 3.6 12.7 1.37 4.22 2.34 8.52 3.19 12.87.03.12-.17.18-.21.05Z" class="st26"/><path d="M104.68 668.76s1.33-.02 2.05.64c1.03.95 1.38 2.73-1.71 4.4-3.38 1.82-14.91 3.09-23.91 3.16s-21.19-.55-25.05-2.69c-2.58-1.43-2.39-3.15-1.75-4.2.54-.87 1.71-1.14 1.71-1.14" class="st14"/><path d="M57.87 664.93c-2.14.89-3.41 3.06-1.01 4.39 3.75 2.08 15.57 2.67 24.3 2.61 8.73-.07 19.92-1.3 23.19-3.06 2.66-1.43 1.27-3.76-1.25-4.34" class="st14"/><path d="M61.36 665.6s20.57 2.74 38.43-.15m-44.54 8.11s.57-2.62 3.49-3.39m.17 4.97s1.71-2.59 5-3.96m1.7 5.15s.24-2.12 3.26-4.63m2.86 4.78s-.17-1.61 3.02-4.28m6.4-.25s-2.4 2.22-2.54 4.84m6.22-.21s1.41-2.27 2.77-4.63m4.25 4.43s2.38-3.49 2.45-5.19m3.53 4.44c.1.15 2.07-3.02 2.37-5.44m5.18-1.26s0 3.07-1.56 5.24" class="st14"/><path d="M56.87 669.08s-.45-2.77 4.63-3.48m-.04 4.89s.96-3.83 5.74-4.28m.86 5.19s.25-3.63 5.29-4.74m2.52 4.84s.4-3.83 4.38-4.63m3.27 4.88s.5-4.18 3.22-5.04m4.44 4.53s.15-2.27 2.82-4.94m5.14-.65s.71 1.86-1.11 4.84m4-6.2s2.18 1.51 1.18 5" class="st14"/><path d="M77.67 716.45c-.06-.08.13 1.04-1.11 1.71s-1.48 1.58-1.51 2.75c0 0 .71-1.18 1.98-1.78s.94-2.32.64-2.69Zm1.51-.1s-.84.87-.44 2.01.87 1.54.64 2.15c0 0 .77-.37.57-1.34s-.94-1.98-.77-2.82m1.38-1.08s-.34 1.41.27 2.12.87 1.51.87 1.65.54-.84.2-1.68-1.24-1.38-1.34-2.08Zm2.45 3.96s1.21.84 1.01 2.15-.2 2.01.13 2.79c0 0 .13-.84.54-1.78s.2-2.59-1.68-3.16M72 720.98s-1.44.67-1.38 1.95.97 2.12.84 2.75c0 0 .77-.5.47-1.58s-.4-2.38.07-3.12m4.86.17s-1.68.87-1.41 2.75 1.34 2.38 1.54 3.39c0 0 .3-1.31-.24-2.45s-.5-2.82.1-3.69Zm3.8 1.11s.67 1.07.74 2.52-.64 2.49-.54 3.46c0 0 1.34-.97 1.71-2.62s-1.41-2.85-1.91-3.36m5.91-1.15s.94.91.67 2.15-.94 1.78-.97 2.59c0 0 .78-.55 1.67-1.5s-.36-2.86-1.37-3.23Z" class="st47"/><path d="M80.35 649.42c-25.27 0-45.76 20.49-45.76 45.76s20.49 45.76 45.76 45.76 45.76-20.49 45.76-45.76-20.49-45.76-45.76-45.76m0 87.45c-23.02 0-41.68-18.66-41.68-41.68s18.66-41.68 41.68-41.68 41.68 18.66 41.68 41.68-18.66 41.68-41.68 41.68" style="fill:#454545"/><text class="st10" transform="translate(235.9 692.8)"><tspan x="0" y="0">current winnings</tspan></text><text class="st10" transform="translate(235.59 732.04)"><tspan x="0" y="0">game history</tspan></text><path d="M211.07 653.58c-6.01 3.51-6.5 4.64-4.97 11.43-3.51-6.01-4.64-6.5-11.43-4.97 6.01-3.51 6.5-4.64 4.97-11.43 3.51 6.01 4.64 6.5 11.43 4.97m19.89 11.34c-5.03.78-5.66 1.41-6.44 6.44-.78-5.03-1.41-5.66-6.44-6.44 5.03-.78 5.66-1.41 6.44-6.44.78 5.03 1.41 5.66 6.44 6.44m-46.64 5.68c-2.9.45-3.27.82-3.72 3.72-.45-2.9-.82-3.27-3.72-3.72 2.9-.45 3.27-.82 3.72-3.72.45 2.9.82 3.27 3.72 3.72" class="st32"/><text style="font-family:Octosale,Octosale;fill:#fff;font-size:8.42px" transform="translate(48.19 753.67)"><tspan x="0" y="0">darth vader</tspan></text><text style="fill:#fed61c;font-family:Octosale,Octosale;font-size:10.24px" transform="translate(53.13 773.76)"><tspan x="0" y="0">00.30 usd</tspan></text><text style="font-size:16.34px;fill:#fed61c;font-family:Octosale,Octosale" transform="translate(236.88 714.11)"><tspan x="0" y="0">7,500 usd</tspan></text><rect width="409.54" height="12.29" x="11.67" y="795.89" class="st50" rx="6.15" ry="6.15"/><rect width="130.88" height="8.96" x="13.52" y="797.56" class="st31" rx="4.48" ry="4.48"/><rect width="142.87" height="12.38" x="12.05" y="819.09" class="st50" rx="6.13" ry="6.13"/><circle cx="18.69" cy="825.34" r="4.95" class="st31"/><circle cx="148.12" cy="825.34" r="4.95" class="st31"/><rect width="32.66" height="12.04" x="13.4" y="835.62" class="st50" rx="6.02" ry="6.02"/><rect width="32.66" height="12.04" x="49.35" y="835.62" class="st50" rx="6.02" ry="6.02"/><rect width="32.66" height="12.04" x="85.3" y="835.62" class="st50" rx="6.02" ry="6.02"/><rect width="32.66" height="12.04" x="121.24" y="835.62" class="st50" rx="6.02" ry="6.02"/><path d="M20.04 826.29h-3.96v-1.91h3.96zm129.05-1.72h1.55v1.44h-1.55v2.22h-1.46v-2.22h-1.57v-1.44h1.57v-2.13h1.46z" style="fill:#76757d"/><path d="M415.01 845.56H163.36c-2.02 0-3.66-1.68-3.66-3.76v-17.83c0-2.08 1.64-3.76 3.66-3.76h251.65c2.02 0 3.66 1.68 3.66 3.76v17.83c0 2.08-1.64 3.76-3.66 3.76" style="fill:#1aa14b"/><path d="M415.01 845.56H163.36c-2.02 0-3.66-1.68-3.66-3.76v-17.83c0-2.08 1.64-3.76 3.66-3.76h251.65c2.02 0 3.66 1.68 3.66 3.76v17.83c0 2.08-1.64 3.76-3.66 3.76" style="fill:url(#_Новий_зразок_градієнта_1)"/><path d="M415.01 845.56H163.36c-2.02 0-3.66-1.68-3.66-3.76v-17.83c0-2.08 1.64-3.76 3.66-3.76h251.65c2.02 0 3.66 1.68 3.66 3.76v17.83c0 2.08-1.64 3.76-3.66 3.76" style="fill:none;stroke-linecap:round;stroke-linejoin:round;stroke:#1aa14b;stroke-width:.75px"/><text class="st8" transform="translate(73.53 803.72)"><tspan x="0" y="0">Bet</tspan></text><text class="st8" transform="translate(215.34 803.72)"><tspan x="0" y="0">Auto</tspan></text><text class="st8" transform="translate(353.94 803.72)"><tspan x="0" y="0">free bet</tspan></text><text style="font-family:Octosale,Octosale;fill:#94ffbb;font-size:5.58px" transform="translate(283.17 832.62)"><tspan xml:space="preserve" x="0" y="0"> bet</tspan><tspan x="-6.42" y="6.7">0.30 usd</tspan></text><text class="st8" transform="translate(73.43 826.38)"><tspan x="0" y="0">0.30 </tspan></text><text class="st8" transform="translate(26.38 843.73)"><tspan x="0" y="0">0.1</tspan></text><text class="st8" transform="translate(61.68 843.73)"><tspan x="0" y="0">0.2</tspan></text><text class="st8" transform="translate(97.42 843.73)"><tspan x="0" y="0">0.3</tspan></text><text class="st8" transform="matrix(.89 0 0 1 133.32 843.73)"><tspan x="0" y="0">0.4</tspan></text><rect width="1.11" height="23.74" x="164.48" y="742.33" class="st32" rx=".24" ry=".24"/><path d="m166.64 748.63.04-6.19c0-.14.15-.22.26-.15.47.3 1.55.8 3.08.37 2.24-.63 4.57-1.21 6.52 1.12.1.12 0 .3-.15.28-.84-.06-2.76 0-3.7 1.69-1.38 2.47-3.64 3.68-5.94 3.05a.17.17 0 0 1-.13-.17Z" class="st53"/><rect width="1.11" height="23.74" x="183.71" y="742.48" class="st58" rx=".24" ry=".24"/><path d="m185.86 748.78.04-6.19c0-.14.15-.22.26-.15.47.3 1.55.8 3.08.37 2.24-.63 4.57-1.21 6.52 1.12.1.12 0 .3-.15.28-.84-.06-2.76 0-3.7 1.69-1.38 2.47-3.64 3.68-5.94 3.05a.17.17 0 0 1-.13-.17Z" class="st58"/><rect width="1.11" height="23.74" x="202.94" y="742.48" class="st32" rx=".24" ry=".24"/><path d="m205.09 748.78.04-6.19c0-.14.15-.22.26-.15.47.3 1.55.8 3.08.37 2.24-.63 4.57-1.21 6.52 1.12.1.12 0 .3-.15.28-.84-.06-2.76 0-3.7 1.69-1.38 2.47-3.64 3.68-5.94 3.05a.17.17 0 0 1-.13-.17Z" class="st53"/><rect width="1.11" height="23.74" x="222.17" y="742.48" class="st32" rx=".24" ry=".24"/><path d="m224.32 748.78.04-6.19c0-.14.15-.22.26-.15.47.3 1.55.8 3.08.37 2.24-.63 4.57-1.21 6.52 1.12.1.12 0 .3-.15.28-.84-.06-2.76 0-3.7 1.69-1.38 2.47-3.64 3.68-5.94 3.05a.17.17 0 0 1-.13-.17Z" class="st53"/><rect width="1.11" height="23.74" x="241.39" y="742.48" class="st6" rx=".24" ry=".24"/><path d="m243.55 748.78.04-6.19c0-.14.15-.22.26-.15.47.3 1.55.8 3.08.37 2.24-.63 4.57-1.21 6.52 1.12.1.12 0 .3-.15.28-.84-.06-2.76 0-3.7 1.69-1.38 2.47-3.64 3.68-5.94 3.05a.17.17 0 0 1-.13-.17Z" class="st6"/><rect width="1.11" height="23.74" x="260.62" y="743" class="st32" rx=".24" ry=".24"/><path d="m262.78 749.31.04-6.19c0-.14.15-.22.26-.15.47.3 1.55.8 3.08.37 2.24-.63 4.57-1.21 6.52 1.12.1.12 0 .3-.15.28-.84-.06-2.76 0-3.7 1.69-1.38 2.47-3.64 3.68-5.94 3.05a.17.17 0 0 1-.13-.17Z" class="st53"/><rect width="1.11" height="23.74" x="279.85" y="743.15" class="st6" rx=".24" ry=".24"/><path d="m282.01 749.46.04-6.19c0-.14.15-.22.26-.15.47.3 1.55.8 3.08.37 2.24-.63 4.57-1.21 6.52 1.12.1.12 0 .3-.15.28-.84-.06-2.76 0-3.7 1.69-1.38 2.47-3.64 3.68-5.94 3.05a.17.17 0 0 1-.13-.17Z" class="st6"/><rect width="1.11" height="23.74" x="299.08" y="743.15" class="st32" rx=".24" ry=".24"/><path d="m301.23 749.46.04-6.19c0-.14.15-.22.26-.15.47.3 1.55.8 3.08.37 2.24-.63 4.57-1.21 6.52 1.12.1.12 0 .3-.15.28-.84-.06-2.76 0-3.7 1.69-1.38 2.47-3.64 3.68-5.94 3.05a.17.17 0 0 1-.13-.17Z" class="st53"/><rect width="1.11" height="23.74" x="318.31" y="743.15" class="st32" rx=".24" ry=".24"/><path d="m320.46 749.46.04-6.19c0-.14.15-.22.26-.15.47.3 1.55.8 3.08.37 2.24-.63 4.57-1.21 6.52 1.12.1.12 0 .3-.15.28-.84-.06-2.76 0-3.7 1.69-1.38 2.47-3.64 3.68-5.94 3.05a.17.17 0 0 1-.13-.17Z" class="st53"/></g></g></svg>