<svg xmlns="http://www.w3.org/2000/svg" width="430" height="932" viewBox="0 0 430 932"><defs><style>.st0{fill:#4f3c61}.st4{fill:#9e4a58}.st5{opacity:.7}.st7{fill:#87546f}.st10{fill:#61447c}</style></defs><g style="isolation:isolate"><g id="_Шар_1" data-name="Шар_1"><g class="st5"><path d="M304.93 506.16s.04.61 2.48.08c0 0 1.64.88 3.51.08 0 0 .8.61 2.6.27s5.35.27 5.62-.15-3.71-.65-3.71-.65-.15-.69-.99-.53c0 0-1.3-1.45-2.48-.88 0 0-.53-1.49-1.8-.96s-.84 1.64-.84 1.64-1.49-.42-1.91-.08-.34.8-.34.8-3.17-.27-2.14.38m-177.07-3.11s.04.61 2.48.08c0 0 1.64.88 3.51.08 0 0 .8.61 2.6.27s5.35.27 5.62-.15-3.71-.65-3.71-.65-.15-.69-.99-.53c0 0-1.3-1.45-2.48-.88 0 0-.53-1.49-1.8-.96s-.84 1.64-.84 1.64-1.49-.42-1.91-.08-.34.8-.34.8-3.17-.27-2.14.38m242.6-.59s-1.15-2.6-3.82-2.33-2.67 1.53-2.67 1.53-1.45-.88-1.91.99c0 0-3.13-1.57-4.39.96 0 0-2.9-.96-3.36 1.18 0 0-4.93-.31-5.31.42s3.63 1.11 6.11.92 3.86.42 6.46.57 3.71-.19 3.71-.19 1.83.34 4.13.5 3.02-.88 3.02-.88 5.73.88 6.27-.53c.53-1.41-5.35-1.3-5.35-1.3s1.22-1.87-.38-2.56-2.48.73-2.48.73Zm32.33-18.27s-1.15-2.6-3.82-2.33-2.67 1.53-2.67 1.53-1.45-.88-1.91.99c0 0-3.13-1.57-4.39.96 0 0-2.9-.96-3.36 1.18 0 0-4.93-.31-5.31.42s3.63 1.11 6.11.92 3.86.42 6.46.57 3.71-.19 3.71-.19 1.83.34 4.13.5 3.02-.88 3.02-.88 5.73.88 6.27-.53-5.35-1.3-5.35-1.3 1.22-1.87-.38-2.56-2.48.73-2.48.73Zm9.8 22.56s-.77-1.75-2.57-1.57-1.8 1.03-1.8 1.03-.98-.59-1.29.67c0 0-2.11-1.06-2.96.64 0 0-1.96-.64-2.26.8 0 0-3.32-.21-3.58.28s2.44.75 4.12.62 2.6.28 4.35.39 2.5-.13 2.5-.13 1.24.23 2.78.33 2.03-.59 2.03-.59 3.86.59 4.22-.36-3.6-.87-3.6-.87.82-1.26-.26-1.72-1.67.49-1.67.49Zm-150.93 16.32 6.25-.17c2.24-.06 5.79.11 7.22-.06s.23-1.03-1.78-.74c0 0-.52-1.55-2.06-.34 0 0-.23-2.52-2.87-.69 0 0-2.23-.52-2.23.92 0 0-2.18-.23-2.18.46 0 0-4.01.17-2.35.63Zm-60.19-14.15 6.25-.17c2.24-.06 5.79.11 7.22-.06s.23-1.03-1.78-.74c0 0-.52-1.55-2.06-.34 0 0-.23-2.52-2.87-.69 0 0-2.23-.52-2.23.92 0 0-2.18-.23-2.18.46 0 0-4.01.17-2.35.63Zm25.78 14.56s2.1-.04 4.13-.46 4.13-.34 6.92 0 6.65.5 5.85-.46-5.65-.57-5.65-.57-.15-.84-1.03-.34c0 0-.65-2.06-2.64-.65-.08-.04-.04-1.72-2.79-1.72s-3.17 1.57-3.17 1.57-1.45-.88-2.29-.65 0 1.68 0 1.68-5.39 0-4.47.96 5 .69 5.16.65Zm-57.33-15.98s.04.61 2.48.08c0 0 1.64.88 3.51.08 0 0 .8.61 2.6.27s5.35.27 5.62-.15-3.71-.65-3.71-.65-.15-.69-.99-.53c0 0-1.3-1.45-2.48-.88 0 0-.53-1.49-1.8-.96s-.84 1.64-.84 1.64-1.49-.42-1.91-.08-.34.8-.34.8-3.17-.27-2.14.38m-.73-28.94s-1.15-2.6-3.82-2.33-2.67 1.53-2.67 1.53-1.45-.88-1.91.99c0 0-3.13-1.57-4.39.96 0 0-2.9-.96-3.36 1.18 0 0-4.93-.31-5.31.42s3.63 1.11 6.11.92 3.86.42 6.46.57 3.71-.19 3.71-.19 1.83.34 4.13.5 3.02-.88 3.02-.88 5.73.88 6.27-.53-5.35-1.3-5.35-1.3 1.22-1.87-.38-2.56-2.48.73-2.48.73ZM59.96 512.94s-1.15-2.6-3.82-2.33-2.67 1.53-2.67 1.53-1.45-.88-1.91.99c0 0-3.13-1.57-4.39.96 0 0-2.9-.96-3.36 1.18 0 0-4.93-.31-5.31.42s3.63 1.11 6.11.92 3.86.42 6.46.57 3.71-.19 3.71-.19 1.83.34 4.13.5 3.02-.88 3.02-.88 5.73.88 6.27-.53-5.35-1.3-5.35-1.3 1.22-1.87-.38-2.56-2.48.73-2.48.73Zm28.98-26.95s1.15-2.6 3.82-2.33 2.67 1.53 2.67 1.53 1.45-.88 1.91.99c0 0 3.13-1.57 4.39.96 0 0 2.9-.96 3.36 1.18 0 0 4.93-.31 5.31.42s-3.63 1.11-6.11.92-3.86.42-6.46.57-3.71-.19-3.71-.19-1.83.34-4.13.5-3.02-.88-3.02-.88-5.73.88-6.27-.53 5.35-1.3 5.35-1.3-1.22-1.87.38-2.56 2.48.73 2.48.73Zm-75.31 7.22s.99-2.25 3.3-2.01 2.31 1.32 2.31 1.32 1.25-.76 1.65.86c0 0 2.71-1.35 3.8.83 0 0 2.51-.83 2.91 1.02 0 0 4.26-.26 4.59.36s-3.14.96-5.28.79-3.34.36-5.58.5-3.2-.17-3.2-.17-1.59.3-3.57.43-2.61-.76-2.61-.76-4.95.76-5.42-.46 4.62-1.12 4.62-1.12-1.06-1.62.33-2.21 2.15.63 2.15.63Zm125.1 25.25 6.25-.17c2.23-.06 5.79.11 7.22-.06s.23-1.03-1.78-.74c0 0-.52-1.55-2.06-.34 0 0-.23-2.52-2.87-.69 0 0-2.23-.52-2.23.92 0 0-2.18-.23-2.18.46 0 0-4.01.17-2.35.63Z" style="fill:#9e4a58;opacity:.7"/><path d="M242.37 464.99s2.64 1.03 6.3.17c0 0 3.84 1.89 6.13.06 0 0 2.81 1.43 5.62 1.03s5.56-.86 6.82-.63 4.13.8 6.88.4 3.44-.34 5.1-.17 4.7.52 4.18-.57-3.27-.4-3.27-.4-2.12-1.09-2.98-.34c0 0-1.55-2.69-5.16-.46 0 0-3.27-4.24-6.76-1.6 0 0 .52-2.41-2.18-1.26 0 0 .63-3.15-4.53-2.35-.11.11 1.55-5.27-4.01-5.96s-5.96 3.27-5.96 3.27-3.72-1.38-5.39.46-.11 3.67-.11 3.67-1.89-1.32-3.38-.17.34 2.23.34 2.23-10.89.57-7.68 2.64 10.03 0 10.03 0Z" class="st7"/><path d="M265.14 420.1s2.64 1.03 6.3.17c0 0 3.84 1.89 6.13.06 0 0 2.81 1.43 5.62 1.03s5.56-.86 6.82-.63 4.13.8 6.88.4 3.44-.34 5.1-.17 4.7.52 4.18-.57-3.27-.4-3.27-.4-2.12-1.09-2.98-.34c0 0-1.55-2.69-5.16-.46 0 0-3.27-4.24-6.76-1.6 0 0 .52-2.41-2.18-1.26 0 0 .63-3.15-4.53-2.35-.11.11 1.55-5.27-4.01-5.96s-5.96 3.27-5.96 3.27-3.72-1.38-5.39.46-.11 3.67-.11 3.67-1.89-1.32-3.38-.17.34 2.23.34 2.23-10.89.57-7.68 2.64 10.03 0 10.03 0Z" class="st10"/><path d="M124.57 373.99s2.64 1.03 6.3.17c0 0 3.84 1.89 6.13.06 0 0 2.81 1.43 5.62 1.03s5.56-.86 6.82-.63 4.13.8 6.88.4 3.44-.34 5.1-.17 4.7.52 4.18-.57-3.27-.4-3.27-.4-2.12-1.09-2.98-.34c0 0-1.55-2.69-5.16-.46 0 0-3.27-4.24-6.76-1.6 0 0 .52-2.41-2.18-1.26 0 0 .63-3.15-4.53-2.35-.11.11 1.55-5.27-4.01-5.96s-5.96 3.27-5.96 3.27-3.72-1.38-5.39.46-.11 3.67-.11 3.67-1.89-1.32-3.38-.17.34 2.23.34 2.23-10.89.57-7.68 2.64 10.03 0 10.03 0Z" class="st0"/><path d="M386.53 370.53s2.64 1.03 6.3.17c0 0 3.84 1.89 6.13.06 0 0 2.81 1.43 5.62 1.03s5.56-.86 6.82-.63 4.13.8 6.88.4 3.44-.34 5.1-.17 4.7.52 4.18-.57-3.27-.4-3.27-.4-2.12-1.09-2.98-.34c0 0-1.55-2.69-5.16-.46 0 0-3.27-4.24-6.76-1.6 0 0 .52-2.41-2.18-1.26 0 0 .63-3.15-4.53-2.35-.11.11 1.55-5.27-4.01-5.96s-5.96 3.27-5.96 3.27-3.72-1.38-5.39.46-.11 3.67-.11 3.67-1.89-1.32-3.38-.17.34 2.23.34 2.23-10.89.57-7.68 2.64 10.03 0 10.03 0Z" class="st10"/><path d="M150.7 121.59s2.64 1.03 6.3.17c0 0 3.84 1.89 6.13.06 0 0 2.81 1.43 5.62 1.03s5.56-.86 6.82-.63 4.13.8 6.88.4 3.44-.34 5.1-.17 4.7.52 4.18-.57-3.27-.4-3.27-.4-2.12-1.09-2.98-.34c0 0-1.55-2.69-5.16-.46 0 0-3.27-4.24-6.76-1.6 0 0 .52-2.41-2.18-1.26 0 0 .63-3.15-4.53-2.35-.11.11 1.55-5.27-4.01-5.96s-5.96 3.27-5.96 3.27-3.72-1.38-5.39.46-.11 3.67-.11 3.67-1.89-1.32-3.38-.17.34 2.23.34 2.23-10.89.57-7.68 2.64 10.03 0 10.03 0Z" class="st0"/><path d="M98.63 440.18s2.17.85 5.19.14c0 0 3.16 1.55 5.05.05 0 0 2.31 1.18 4.62.85s4.57-.71 5.61-.52 3.4.66 5.66.33 2.83-.28 4.2-.14 3.87.42 3.44-.47-2.69-.33-2.69-.33-1.74-.9-2.45-.28c0 0-1.27-2.21-4.24-.38 0 0-2.69-3.49-5.56-1.32 0 0 .42-1.98-1.79-1.04 0 0 .52-2.59-3.73-1.93-.09.09 1.27-4.34-3.3-4.9s-4.9 2.69-4.9 2.69-3.07-1.13-4.43.38-.09 3.02-.09 3.02-1.56-1.08-2.78-.14.28 1.84.28 1.84-8.96.47-6.32 2.17 8.25 0 8.25 0Zm98.32-10.61s2.64 1.03 6.3.17c0 0 3.84 1.89 6.13.06 0 0 2.81 1.43 5.62 1.03s5.56-.86 6.82-.63 4.13.8 6.88.4 3.44-.34 5.1-.17 4.7.52 4.18-.57-3.27-.4-3.27-.4-2.12-1.09-2.98-.34c0 0-1.55-2.69-5.16-.46 0 0-3.27-4.24-6.76-1.6 0 0 .52-2.41-2.18-1.26 0 0 .63-3.15-4.53-2.35-.11.11 1.55-5.27-4.01-5.96s-5.96 3.27-5.96 3.27-3.72-1.38-5.39.46-.11 3.67-.11 3.67-1.89-1.32-3.38-.17.34 2.23.34 2.23-10.89.57-7.68 2.64 10.03 0 10.03 0Zm-180.05-.62s2.64 1.03 6.3.17c0 0 3.84 1.89 6.13.06 0 0 2.81 1.43 5.62 1.03s5.56-.86 6.82-.63 4.13.8 6.88.4 3.44-.34 5.1-.17 4.7.52 4.18-.57-3.27-.4-3.27-.4-2.12-1.09-2.98-.34c0 0-1.55-2.69-5.16-.46 0 0-3.27-4.24-6.76-1.6 0 0 .52-2.41-2.18-1.26 0 0 .63-3.15-4.53-2.35-.11.11 1.55-5.27-4.01-5.96s-5.96 3.27-5.96 3.27-3.72-1.38-5.39.46-.11 3.67-.11 3.67-1.89-1.32-3.38-.17.34 2.23.34 2.23-10.89.57-7.68 2.64 10.03 0 10.03 0Z" class="st10"/><path d="M399.5 465.07s-1.45.11-4.16.19-4.97 1.76-8.67 1.64-3.25-.69-5.27-.61-2.71-.04-3.9-.69c0 0-4.43 1.22-10.28-.19 0 0-11.61.8-11.23-1.07s7.34-1.41 7.34-1.41.42-2.79 5.16-2.6c0 0 1.22-4.39 7.03-1.95 0 0 .8-1.6 4.24-1.68s4.32 3.78 4.32 3.78.69-.46 2.37-.23c0 0 2.22-3.71 7.03-1.11 0 0 1.3-1.22 3.78-.38s2.41 2.79 2.41 2.79 1.72-.65 3.67.08.99 1.76.99 1.76 2.71-.84 3.4.53-7.53 1.18-8.21 1.15Z" class="st7"/><path d="M389.48 404.2s-1.45.11-4.16.19-4.97 1.76-8.67 1.64-3.25-.69-5.27-.61-2.71-.04-3.9-.69c0 0-4.43 1.22-10.28-.19 0 0-11.61.8-11.23-1.07s7.34-1.41 7.34-1.41.42-2.79 5.16-2.6c0 0 1.22-4.39 7.03-1.95 0 0 .8-1.6 4.24-1.68s4.32 3.78 4.32 3.78.69-.46 2.37-.23c0 0 2.22-3.71 7.03-1.11 0 0 1.3-1.22 3.78-.38s2.41 2.79 2.41 2.79 1.72-.65 3.67.08.99 1.76.99 1.76 2.71-.84 3.4.53-7.53 1.18-8.21 1.15Zm-58.66-107.12s-1.45.11-4.16.19-4.97 1.76-8.67 1.64-3.25-.69-5.27-.61-2.71-.04-3.9-.69c0 0-4.43 1.22-10.28-.19 0 0-11.61.8-11.23-1.07s7.34-1.41 7.34-1.41.42-2.79 5.16-2.6c0 0 1.22-4.39 7.03-1.95 0 0 .8-1.6 4.24-1.68s4.32 3.78 4.32 3.78.69-.46 2.37-.23c0 0 2.22-3.71 7.03-1.11 0 0 1.3-1.22 3.78-.38s2.41 2.79 2.41 2.79 1.72-.65 3.67.08.99 1.76.99 1.76 2.71-.84 3.4.53-7.53 1.18-8.21 1.15Z" class="st10"/><path d="M299.63 211.17s-1.45.11-4.16.19-4.97 1.76-8.67 1.64-3.25-.69-5.27-.61-2.71-.04-3.9-.69c0 0-4.43 1.22-10.28-.19 0 0-11.61.8-11.23-1.07s7.34-1.41 7.34-1.41.42-2.79 5.16-2.6c0 0 1.22-4.39 7.03-1.95 0 0 .8-1.6 4.24-1.68s4.32 3.78 4.32 3.78.69-.46 2.37-.23c0 0 2.22-3.71 7.03-1.11 0 0 1.3-1.22 3.78-.38s2.41 2.79 2.41 2.79 1.72-.65 3.67.08.99 1.76.99 1.76 2.71-.84 3.4.53-7.53 1.18-8.21 1.15Zm53.46-147.84s-1.45.11-4.16.19-4.97 1.76-8.67 1.64-3.25-.69-5.27-.61-2.71-.04-3.9-.69c0 0-4.43 1.22-10.28-.19 0 0-11.61.8-11.23-1.07s7.34-1.41 7.34-1.41.42-2.79 5.16-2.6c0 0 1.22-4.39 7.03-1.95 0 0 .8-1.6 4.24-1.68s4.32 3.78 4.32 3.78.69-.46 2.37-.23c0 0 2.22-3.71 7.03-1.11 0 0 1.3-1.22 3.78-.38s2.41 2.79 2.41 2.79 1.72-.65 3.67.08.99 1.76.99 1.76 2.71-.84 3.4.53-7.53 1.18-8.21 1.15Z" class="st0"/><path d="M284.42 359.1s2.83 1.11 6.76.18c0 0 4.12 2.03 6.58.06 0 0 3.01 1.54 6.02 1.11s5.96-.92 7.31-.68 4.43.86 7.38.43 3.69-.37 5.47-.18 5.04.55 4.49-.61-3.5-.43-3.5-.43-2.27-1.17-3.2-.37c0 0-1.66-2.89-5.53-.49 0 0-3.5-4.55-7.25-1.72 0 0 .55-2.58-2.34-1.35 0 0 .68-3.38-4.86-2.52-.12.12 1.66-5.66-4.3-6.39s-6.39 3.5-6.39 3.5-4-1.48-5.78.49-.12 3.93-.12 3.93-2.03-1.41-3.63-.18.37 2.4.37 2.4-11.68.61-8.24 2.83 10.76 0 10.76 0Zm-92.62 32.64s2.83 1.11 6.76.18c0 0 4.12 2.03 6.58.06 0 0 3.01 1.54 6.02 1.11s5.96-.92 7.31-.68 4.43.86 7.38.43 3.69-.37 5.47-.18 5.04.55 4.49-.61-3.5-.43-3.5-.43-2.27-1.17-3.2-.37c0 0-1.66-2.89-5.53-.49 0 0-3.5-4.55-7.25-1.72 0 0 .55-2.58-2.34-1.35 0 0 .68-3.38-4.86-2.52-.12.12 1.66-5.66-4.3-6.39s-6.39 3.5-6.39 3.5-4-1.48-5.78.49-.12 3.93-.12 3.93-2.03-1.41-3.63-.18.37 2.4.37 2.4-11.68.61-8.24 2.83 10.76 0 10.76 0Zm144.19-62.63s2.83 1.11 6.76.18c0 0 4.12 2.03 6.58.06 0 0 3.01 1.54 6.02 1.11s5.96-.92 7.31-.68 4.43.86 7.38.43 3.69-.37 5.47-.18 5.04.55 4.49-.61-3.5-.43-3.5-.43-2.27-1.17-3.2-.37c0 0-1.66-2.89-5.53-.49 0 0-3.5-4.55-7.25-1.72 0 0 .55-2.58-2.34-1.35 0 0 .68-3.38-4.86-2.52-.12.12 1.66-5.66-4.3-6.39-5.96-.74-6.39 3.5-6.39 3.5s-4-1.48-5.78.49-.12 3.93-.12 3.93-2.03-1.41-3.63-.18.37 2.4.37 2.4-11.68.61-8.24 2.83 10.76 0 10.76 0Z" class="st10"/><path d="M251.31 109.02s2.83 1.11 6.76.18c0 0 4.12 2.03 6.58.06 0 0 3.01 1.54 6.02 1.11s5.96-.92 7.31-.68 4.43.86 7.38.43 3.69-.37 5.47-.18 5.04.55 4.49-.61-3.5-.43-3.5-.43-2.27-1.17-3.2-.37c0 0-1.66-2.89-5.53-.49 0 0-3.5-4.55-7.25-1.72 0 0 .55-2.58-2.34-1.35 0 0 .68-3.38-4.86-2.52-.12.12 1.66-5.66-4.3-6.39-5.96-.74-6.39 3.5-6.39 3.5s-4-1.48-5.78.49-.12 3.93-.12 3.93-2.03-1.41-3.63-.18.37 2.4.37 2.4-11.68.61-8.24 2.83 10.76 0 10.76 0Zm-37.15 155.37s2.83 1.11 6.76.18c0 0 4.12 2.03 6.58.06 0 0 3.01 1.54 6.02 1.11s5.96-.92 7.31-.68 4.43.86 7.38.43 3.69-.37 5.47-.18 5.04.55 4.49-.61-3.5-.43-3.5-.43-2.27-1.17-3.2-.37c0 0-1.66-2.89-5.53-.49 0 0-3.5-4.55-7.25-1.72 0 0 .55-2.58-2.34-1.35 0 0 .68-3.38-4.86-2.52-.12.12 1.66-5.66-4.3-6.39s-6.39 3.5-6.39 3.5-4-1.48-5.78.49-.12 3.93-.12 3.93-2.03-1.41-3.63-.18.37 2.4.37 2.4-11.68.61-8.24 2.83 10.76 0 10.76 0Zm141.44-7.66s2.83 1.11 6.76.18c0 0 4.12 2.03 6.58.06 0 0 3.01 1.54 6.02 1.11s5.96-.92 7.31-.68 4.43.86 7.38.43 3.69-.37 5.47-.18 5.04.55 4.49-.61-3.5-.43-3.5-.43-2.27-1.17-3.2-.37c0 0-1.66-2.89-5.53-.49 0 0-3.5-4.55-7.25-1.72 0 0 .55-2.58-2.34-1.35 0 0 .68-3.38-4.86-2.52-.12.12 1.66-5.66-4.3-6.39s-6.39 3.5-6.39 3.5-4-1.48-5.78.49-.12 3.93-.12 3.93-2.03-1.41-3.63-.18.37 2.4.37 2.4-11.68.61-8.24 2.83 10.76 0 10.76 0Z" class="st0"/><path d="M223.38 336.54s2.83 1.11 6.76.18c0 0 4.12 2.03 6.58.06 0 0 3.01 1.54 6.02 1.11s5.96-.92 7.31-.68 4.43.86 7.38.43 3.69-.37 5.47-.18 5.04.55 4.49-.61-3.5-.43-3.5-.43-2.27-1.17-3.2-.37c0 0-1.66-2.89-5.53-.49 0 0-3.5-4.55-7.25-1.72 0 0 .55-2.58-2.34-1.35 0 0 .68-3.38-4.86-2.52-.12.12 1.66-5.66-4.3-6.39s-6.39 3.5-6.39 3.5-4-1.48-5.78.49-.12 3.93-.12 3.93-2.03-1.41-3.63-.18.37 2.4.37 2.4-11.68.61-8.24 2.83 10.76 0 10.76 0Z" class="st10"/><path d="M382.7 149.13s2.83 1.11 6.76.18c0 0 4.12 2.03 6.58.06 0 0 3.01 1.54 6.02 1.11s5.96-.92 7.31-.68 4.43.86 7.38.43 3.69-.37 5.47-.18 5.04.55 4.49-.61-3.5-.43-3.5-.43-2.27-1.17-3.2-.37c0 0-1.66-2.89-5.53-.49 0 0-3.5-4.55-7.25-1.72 0 0 .55-2.58-2.34-1.35 0 0 .68-3.38-4.86-2.52-.12.12 1.66-5.66-4.3-6.39s-6.39 3.5-6.39 3.5-4-1.48-5.78.49-.12 3.93-.12 3.93-2.03-1.41-3.63-.18.37 2.4.37 2.4-11.68.61-8.24 2.83c3.44 2.21 10.76 0 10.76 0ZM78.36 143s2.83 1.11 6.76.18c0 0 4.12 2.03 6.58.06 0 0 3.01 1.54 6.02 1.11s5.96-.92 7.31-.68 4.43.86 7.38.43 3.69-.37 5.47-.18 5.04.55 4.49-.61-3.5-.43-3.5-.43-2.27-1.17-3.2-.37c0 0-1.66-2.89-5.53-.49 0 0-3.5-4.55-7.25-1.72 0 0 .55-2.58-2.34-1.35 0 0 .68-3.38-4.86-2.52-.12.12 1.66-5.66-4.3-6.39s-6.39 3.5-6.39 3.5-4-1.48-5.78.49-.12 3.93-.12 3.93-2.03-1.41-3.63-.18.37 2.4.37 2.4-11.68.61-8.24 2.83 10.76 0 10.76 0Z" class="st0"/><path d="M11.77 333.64s2.33.91 5.56.15c0 0 3.39 1.67 5.41.05 0 0 2.48 1.26 4.96.91s4.91-.76 6.02-.56 3.64.71 6.07.35 3.04-.3 4.5-.15 4.15.45 3.69-.51-2.88-.35-2.88-.35-1.87-.96-2.63-.3c0 0-1.37-2.38-4.55-.4 0 0-2.88-3.74-5.97-1.42 0 0 .46-2.12-1.92-1.11 0 0 .56-2.78-4-2.07-.1.1 1.37-4.65-3.54-5.26s-5.26 2.88-5.26 2.88-3.29-1.21-4.75.4-.1 3.23-.1 3.23-1.67-1.16-2.98-.15.3 1.97.3 1.97-9.61.51-6.78 2.32 8.85 0 8.85 0Zm27.66 55.32s2.83 1.11 6.76.18c0 0 4.12 2.03 6.58.06 0 0 3.01 1.54 6.02 1.11s5.96-.92 7.31-.68 4.43.86 7.38.43 3.69-.37 5.47-.18 5.04.55 4.49-.61-3.5-.43-3.5-.43-2.27-1.17-3.2-.37c0 0-1.66-2.89-5.53-.49 0 0-3.5-4.55-7.25-1.72 0 0 .55-2.58-2.34-1.35 0 0 .68-3.38-4.86-2.52-.12.12 1.66-5.66-4.3-6.39-5.96-.74-6.39 3.5-6.39 3.5s-4-1.48-5.78.49-.12 3.93-.12 3.93-2.03-1.41-3.63-.18.37 2.4.37 2.4-11.68.61-8.24 2.83 10.76 0 10.76 0Z" class="st10"/><path d="M19.06 198.89s2.83 1.11 6.76.18c0 0 4.12 2.03 6.58.06 0 0 3.01 1.54 6.02 1.11s5.96-.92 7.31-.68 4.43.86 7.38.43 3.69-.37 5.47-.18 5.04.55 4.49-.61-3.5-.43-3.5-.43-2.27-1.17-3.2-.37c0 0-1.66-2.89-5.53-.49 0 0-3.5-4.55-7.25-1.72 0 0 .55-2.58-2.34-1.35 0 0 .68-3.38-4.86-2.52-.12.12 1.66-5.66-4.3-6.39s-6.39 3.5-6.39 3.5-4-1.48-5.78.49-.12 3.93-.12 3.93-2.03-1.41-3.63-.18.37 2.4.37 2.4-11.68.61-8.24 2.83 10.76 0 10.76 0Zm364.7-1.31s-1.56.12-4.47.2-5.33 1.89-9.3 1.76-3.48-.74-5.66-.66-2.91-.04-4.18-.74c0 0-4.75 1.31-11.02-.2 0 0-12.46.86-12.05-1.15s7.87-1.52 7.87-1.52.45-2.99 5.53-2.79c0 0 1.31-4.71 7.54-2.09 0 0 .86-1.72 4.55-1.8s4.63 4.06 4.63 4.06.74-.49 2.54-.25c0 0 2.38-3.97 7.54-1.19 0 0 1.39-1.31 4.06-.41s2.58 2.99 2.58 2.99 1.84-.7 3.93.08 1.07 1.89 1.07 1.89 2.91-.9 3.65.57-8.07 1.27-8.81 1.23ZM177.19 321.02s-1.56.12-4.47.2-5.33 1.89-9.3 1.76-3.48-.74-5.66-.66-2.91-.04-4.18-.74c0 0-4.75 1.31-11.02-.2 0 0-12.46.86-12.05-1.15s7.87-1.52 7.87-1.52.45-2.99 5.53-2.79c0 0 1.31-4.71 7.54-2.09 0 0 .86-1.72 4.55-1.8s4.63 4.06 4.63 4.06.74-.49 2.54-.25c0 0 2.38-3.97 7.54-1.19 0 0 1.39-1.31 4.06-.41s2.58 2.99 2.58 2.99 1.84-.7 3.93.08 1.07 1.89 1.07 1.89 2.91-.9 3.65.57-8.07 1.27-8.81 1.23ZM133.43 231s-1.56.12-4.47.2-5.33 1.89-9.3 1.76-3.48-.74-5.66-.66-2.91-.04-4.18-.74c0 0-4.75 1.31-11.02-.2 0 0-12.46.86-12.05-1.15s7.87-1.52 7.87-1.52.45-2.99 5.53-2.79c0 0 1.31-4.71 7.54-2.09 0 0 .86-1.72 4.55-1.8s4.63 4.06 4.63 4.06.74-.49 2.54-.25c0 0 2.38-3.97 7.54-1.19 0 0 1.39-1.31 4.06-.41s2.58 2.99 2.58 2.99 1.84-.7 3.93.08 1.07 1.89 1.07 1.89 2.91-.9 3.65.57-8.07 1.27-8.81 1.23Zm-82.72 31.15s-1.56.12-4.47.2-5.33 1.89-9.3 1.76-3.48-.74-5.66-.66-2.91-.04-4.18-.74c0 0-4.75 1.31-11.02-.2 0 0-12.46.86-12.05-1.15s7.87-1.52 7.87-1.52.45-2.99 5.53-2.79c0 0 1.31-4.71 7.54-2.09 0 0 .86-1.72 4.55-1.8s4.63 4.06 4.63 4.06.74-.49 2.54-.25c0 0 2.38-3.97 7.54-1.19 0 0 1.39-1.31 4.06-.41s2.58 2.99 2.58 2.99 1.84-.7 3.93.08 1.07 1.89 1.07 1.89 2.91-.9 3.65.57-8.07 1.27-8.81 1.23Zm49.65 29.44s-1.56.12-4.47.2-5.33 1.89-9.3 1.76-3.48-.74-5.66-.66-2.91-.04-4.18-.74c0 0-4.75 1.31-11.02-.2 0 0-12.46.86-12.05-1.15s7.87-1.52 7.87-1.52.45-2.99 5.53-2.79c0 0 1.31-4.71 7.54-2.09 0 0 .86-1.72 4.55-1.8s4.63 4.06 4.63 4.06.74-.49 2.54-.25c0 0 2.38-3.97 7.54-1.19 0 0 1.39-1.31 4.06-.41s2.58 2.99 2.58 2.99 1.84-.7 3.93.08 1.07 1.89 1.07 1.89 2.91-.9 3.65.57-8.07 1.27-8.81 1.23Zm122.55-124.08s-1.56.12-4.47.2-5.33 1.89-9.3 1.76-3.48-.74-5.66-.66-2.91-.04-4.18-.74c0 0-4.75 1.31-11.02-.2 0 0-12.46.86-12.05-1.15s7.87-1.52 7.87-1.52.45-2.99 5.53-2.79c0 0 1.31-4.71 7.54-2.09 0 0 .86-1.72 4.55-1.8s4.63 4.06 4.63 4.06.74-.49 2.54-.25c0 0 2.38-3.97 7.54-1.19 0 0 1.39-1.31 4.06-.41s2.58 2.99 2.58 2.99 1.84-.7 3.93.08 1.07 1.89 1.07 1.89 2.91-.9 3.65.57-8.07 1.27-8.81 1.23ZM66.77 101.58s-2 .16-5.75.26-6.86 2.43-11.97 2.27-4.48-.95-7.28-.84-3.74-.05-5.38-.95c0 0-6.12 1.69-14.19-.26 0 0-16.03 1.11-15.5-1.48s10.13-1.95 10.13-1.95.58-3.85 7.12-3.59c0 0 1.69-6.06 9.7-2.69 0 0 1.11-2.21 5.85-2.32s5.96 5.22 5.96 5.22.95-.63 3.27-.32c0 0 3.06-5.12 9.7-1.53 0 0 1.79-1.69 5.22-.53s3.32 3.85 3.32 3.85 2.37-.9 5.06.11 1.37 2.43 1.37 2.43 3.74-1.16 4.69.74-10.39 1.63-11.34 1.58Z" class="st0"/><path d="M52.98 462.76s-1.45.11-4.16.19-4.97 1.76-8.67 1.64c-3.71-.11-3.25-.69-5.27-.61s-2.71-.04-3.9-.69c0 0-4.43 1.22-10.28-.19 0 0-11.61.8-11.23-1.07s7.34-1.41 7.34-1.41.42-2.79 5.16-2.6c0 0 1.22-4.39 7.03-1.95 0 0 .8-1.6 4.24-1.68s4.32 3.78 4.32 3.78.69-.46 2.37-.23c0 0 2.22-3.71 7.03-1.11 0 0 1.3-1.22 3.78-.38s2.41 2.79 2.41 2.79 1.72-.65 3.67.08.99 1.76.99 1.76 2.71-.84 3.4.53-7.53 1.18-8.21 1.15Zm244.95.24s.76.84 4.28.08c0 0 3.82 1.57 10.24.15 0 0-1.87.96.84 1.53s6.8-.65 6.8-.65 1.15.99 3.4 1.07 3.17-.88 3.17-.88 6.8 1.07 8.29-.11-3.44-1.91-6.15-1.45c0 0-1.72-3.09-5.08-1.64 0 0-1.72-3.82-5.12-1.95 0 0-.61-3.71-5.23-3.4s-4.85 3.17-4.85 3.17-1.45-1.41-3.21-.8-1.41 2.33-1.41 2.33-3.02-1.83-3.32 1.6c0 0-4.39-.08-2.64.96Z" class="st7"/><path d="M313.94 462.67a1 1 0 0 0 .09-.02c-.03 0-.06 0-.09.02" class="st7"/><g class="st5"><path d="M329.73 488.38s-.23.88 2.14 1.03 4.36-.15 4.51-.04 2.64.27 6.8-.42c0 0 3.02.76 5.39.5s3.32-.34 5.69-.46 3.06-.69 2.37-1.11-4.24-.11-4.24-.11.31-2.02-2.18-2.64-3.02.23-3.02.23-.42-2.48-2.9-1.34c0 0-2.25-3.06-5.23-1.57-2.85 1.43-1.95 4.13-1.95 4.13s-.61-1.22-2.67-1.18-1.53 1.95-1.53 1.95-3.4.11-3.17 1.03Z" class="st4"/></g><g class="st5"><path d="M228.53 496.3s-.23.88 2.14 1.03 4.36-.15 4.51-.04 2.64.27 6.8-.42c0 0 3.02.76 5.39.5s3.32-.34 5.69-.46 3.06-.69 2.37-1.11-4.24-.11-4.24-.11.31-2.02-2.18-2.64-3.02.23-3.02.23-.42-2.48-2.9-1.34c0 0-2.25-3.06-5.23-1.57s-1.95 4.13-1.95 4.13-.61-1.22-2.67-1.18-1.53 1.95-1.53 1.95-3.4.11-3.17 1.03Z" class="st4"/></g></g><path d="M640.86-524.79s-1.64 1.69-1.6 2.02.21.93.84 1.22 1.69.8 1.94.59 2.23-1.73 2.32-2.19.04-1.1-.25-1.26-2.61-.84-3.24-.38Z" style="fill:#84737d"/><g style="mix-blend-mode:multiply;opacity:.31"><path d="M639.6-522.81s1.6.13 2.15-.04 2.32-1.43 2.32-1.43.88.8.42 1.31-1.98 2.02-2.44 2.02-2.06-.55-2.28-.76-.38-.97-.17-1.1" style="fill:#4b465e"/></g><path d="M641.86-520.33c-.47 0-1.09-.27-1.93-.66l-.07-.03c-.65-.3-1.08-.91-1.17-1.67-.03-.23-.08-.61 1.76-2.5.02-.02.05-.04.07-.06.95-.7 3.6.19 3.87.34.58.33.65 1.22.53 1.87-.07.4-.47.9-2.34 2.39-.08.06-.14.11-.17.14-.15.13-.34.18-.55.18m-2.01-2.4c.05.24.18.51.5.66l.08.04c.3.14 1.05.49 1.36.54.02-.02.05-.04.08-.07 1.5-1.19 1.85-1.61 1.93-1.74.04-.29.01-.54-.02-.64-.47-.21-2.14-.58-2.55-.4-.57.59-1.2 1.32-1.37 1.61Zm3.96-.58" style="fill:#45374a"/></g></g></svg>